<?xml version="1.0" encoding="utf-8" standalone="no"?>

<svg height="1.00px" version="1.1" width="314.00px" xmlns="http://www.w3.org/2000/svg"><path d="M1.2 0 L2 0 L2 0.4 L1.2 0.4 L1.2 0M312.79 0.4 L311.98 0.4 L311.98 0 L312.79 0 L312.79 0.4M3.21 0 L4.01 0 L4.01 0.4 L3.21 0.4 L3.21 0M5.21 0 L6.01 0 L6.01 0.4 L5.21 0.4 L5.21 0M7.22 0 L8.02 0 L8.02 0.4 L7.22 0.4 L7.22 0M9.22 0 L10.02 0 L10.02 0.4 L9.22 0.4 L9.22 0M11.23 0 L12.03 0 L12.03 0.4 L11.23 0.4 L11.23 0M13.23 0 L14.03 0 L14.03 0.4 L13.23 0.4 L13.23 0M15.24 0 L16.04 0 L16.04 0.4 L15.24 0.4 L15.24 0M17.24 0 L18.04 0 L18.04 0.4 L17.24 0.4 L17.24 0M19.25 0 L20.05 0 L20.05 0.4 L19.25 0.4 L19.25 0M21.25 0 L22.05 0 L22.05 0.4 L21.25 0.4 L21.25 0M23.26 0 L24.06 0 L24.06 0.4 L23.26 0.4 L23.26 0M25.26 0 L26.06 0 L26.06 0.4 L25.26 0.4 L25.26 0M27.27 0 L28.07 0 L28.07 0.4 L27.27 0.4 L27.27 0M29.27 0 L30.07 0 L30.07 0.4 L29.27 0.4 L29.27 0M31.28 0 L32.08 0 L32.08 0.4 L31.28 0.4 L31.28 0M33.28 0 L34.08 0 L34.08 0.4 L33.28 0.4 L33.28 0M35.29 0 L36.09 0 L36.09 0.4 L35.29 0.4 L35.29 0M37.29 0 L38.09 0 L38.09 0.4 L37.29 0.4 L37.29 0M39.3 0 L40.1 0 L40.1 0.4 L39.3 0.4 L39.3 0M41.3 0 L42.1 0 L42.1 0.4 L41.3 0.4 L41.3 0M43.31 0 L44.11 0 L44.11 0.4 L43.31 0.4 L43.31 0M45.31 0 L46.11 0 L46.11 0.4 L45.31 0.4 L45.31 0M47.32 0 L48.12 0 L48.12 0.4 L47.32 0.4 L47.32 0M49.32 0 L50.12 0 L50.12 0.4 L49.32 0.4 L49.32 0M51.33 0 L52.13 0 L52.13 0.4 L51.33 0.4 L51.33 0M53.33 0 L54.13 0 L54.13 0.4 L53.33 0.4 L53.33 0M55.34 0 L56.14 0 L56.14 0.4 L55.34 0.4 L55.34 0M57.34 0 L58.14 0 L58.14 0.4 L57.34 0.4 L57.34 0M59.35 0 L60.15 0 L60.15 0.4 L59.35 0.4 L59.35 0M61.35 0 L62.15 0 L62.15 0.4 L61.35 0.4 L61.35 0M63.36 0 L64.16 0 L64.16 0.4 L63.36 0.4 L63.36 0M65.36 0 L66.16 0 L66.16 0.4 L65.36 0.4 L65.36 0M67.37 0 L68.17 0 L68.17 0.4 L67.37 0.4 L67.37 0M69.37 0 L70.17 0 L70.17 0.4 L69.37 0.4 L69.37 0M71.38 0 L72.18 0 L72.18 0.4 L71.38 0.4 L71.38 0M73.38 0 L74.18 0 L74.18 0.4 L73.38 0.4 L73.38 0M75.39 0 L76.19 0 L76.19 0.4 L75.39 0.4 L75.39 0M77.39 0 L78.19 0 L78.19 0.4 L77.39 0.4 L77.39 0M79.4 0 L80.2 0 L80.2 0.4 L79.4 0.4 L79.4 0M81.4 0 L82.2 0 L82.2 0.4 L81.4 0.4 L81.4 0M83.41 0 L84.21 0 L84.21 0.4 L83.41 0.4 L83.41 0M85.41 0 L86.21 0 L86.21 0.4 L85.41 0.4 L85.41 0M87.42 0 L88.22 0 L88.22 0.4 L87.42 0.4 L87.42 0M89.42 0 L90.22 0 L90.22 0.4 L89.42 0.4 L89.42 0M91.43 0 L92.23 0 L92.23 0.4 L91.43 0.4 L91.43 0M93.43 0 L94.23 0 L94.23 0.4 L93.43 0.4 L93.43 0M95.44 0 L96.24 0 L96.24 0.4 L95.44 0.4 L95.44 0M97.44 0 L98.24 0 L98.24 0.4 L97.44 0.4 L97.44 0M99.45 0 L100.25 0 L100.25 0.4 L99.45 0.4 L99.45 0M101.45 0 L102.25 0 L102.25 0.4 L101.45 0.4 L101.45 0M103.46 0 L104.26 0 L104.26 0.4 L103.46 0.4 L103.46 0M105.46 0 L106.26 0 L106.26 0.4 L105.46 0.4 L105.46 0M107.47 0 L108.27 0 L108.27 0.4 L107.47 0.4 L107.47 0M109.47 0 L110.27 0 L110.27 0.4 L109.47 0.4 L109.47 0M111.48 0 L112.28 0 L112.28 0.4 L111.48 0.4 L111.48 0M113.48 0 L114.28 0 L114.28 0.4 L113.48 0.4 L113.48 0M115.49 0 L116.29 0 L116.29 0.4 L115.49 0.4 L115.49 0M117.49 0 L118.3 0 L118.3 0.4 L117.49 0.4 L117.49 0M119.5 0 L120.3 0 L120.3 0.4 L119.5 0.4 L119.5 0M121.5 0 L122.31 0 L122.31 0.4 L121.5 0.4 L121.5 0M123.51 0 L124.31 0 L124.31 0.4 L123.51 0.4 L123.51 0M125.51 0 L126.32 0 L126.32 0.4 L125.51 0.4 L125.51 0M127.52 0 L128.32 0 L128.32 0.4 L127.52 0.4 L127.52 0M129.52 0 L130.33 0 L130.33 0.4 L129.52 0.4 L129.52 0M131.53 0 L132.33 0 L132.33 0.4 L131.53 0.4 L131.53 0M133.53 0 L134.34 0 L134.34 0.4 L133.53 0.4 L133.53 0M135.54 0 L136.34 0 L136.34 0.4 L135.54 0.4 L135.54 0M137.54 0 L138.35 0 L138.35 0.4 L137.54 0.4 L137.54 0M139.55 0 L140.35 0 L140.35 0.4 L139.55 0.4 L139.55 0M141.55 0 L142.36 0 L142.36 0.4 L141.55 0.4 L141.55 0M143.56 0 L144.36 0 L144.36 0.4 L143.56 0.4 L143.56 0M145.56 0 L146.37 0 L146.37 0.4 L145.56 0.4 L145.56 0M147.57 0 L148.37 0 L148.37 0.4 L147.57 0.4 L147.57 0M149.57 0 L150.38 0 L150.38 0.4 L149.57 0.4 L149.57 0M151.58 0 L152.38 0 L152.38 0.4 L151.58 0.4 L151.58 0M153.58 0 L154.39 0 L154.39 0.4 L153.58 0.4 L153.58 0M155.59 0 L156.39 0 L156.39 0.4 L155.59 0.4 L155.59 0M157.59 0 L158.4 0 L158.4 0.4 L157.59 0.4 L157.59 0M159.6 0 L160.4 0 L160.4 0.4 L159.6 0.4 L159.6 0M161.6 0 L162.41 0 L162.41 0.4 L161.6 0.4 L161.6 0M163.61 0 L164.41 0 L164.41 0.4 L163.61 0.4 L163.61 0M165.61 0 L166.42 0 L166.42 0.4 L165.61 0.4 L165.61 0M167.62 0 L168.42 0 L168.42 0.4 L167.62 0.4 L167.62 0M169.62 0 L170.43 0 L170.43 0.4 L169.62 0.4 L169.62 0M171.63 0 L172.43 0 L172.43 0.4 L171.63 0.4 L171.63 0M173.63 0 L174.44 0 L174.44 0.4 L173.63 0.4 L173.63 0M175.64 0 L176.44 0 L176.44 0.4 L175.64 0.4 L175.64 0M177.64 0 L178.45 0 L178.45 0.4 L177.64 0.4 L177.64 0M179.65 0 L180.45 0 L180.45 0.4 L179.65 0.4 L179.65 0M181.65 0 L182.46 0 L182.46 0.4 L181.65 0.4 L181.65 0M183.66 0 L184.46 0 L184.46 0.4 L183.66 0.4 L183.66 0M185.66 0 L186.47 0 L186.47 0.4 L185.66 0.4 L185.66 0M187.67 0 L188.47 0 L188.47 0.4 L187.67 0.4 L187.67 0M189.67 0 L190.48 0 L190.48 0.4 L189.67 0.4 L189.67 0M191.68 0 L192.48 0 L192.48 0.4 L191.68 0.4 L191.68 0M193.69 0 L194.49 0 L194.49 0.4 L193.69 0.4 L193.69 0M195.69 0 L196.49 0 L196.49 0.4 L195.69 0.4 L195.69 0M197.7 0 L198.5 0 L198.5 0.4 L197.7 0.4 L197.7 0M199.7 0 L200.5 0 L200.5 0.4 L199.7 0.4 L199.7 0M201.71 0 L202.51 0 L202.51 0.4 L201.71 0.4 L201.71 0M203.71 0 L204.51 0 L204.51 0.4 L203.71 0.4 L203.71 0M205.72 0 L206.52 0 L206.52 0.4 L205.72 0.4 L205.72 0M207.72 0 L208.52 0 L208.52 0.4 L207.72 0.4 L207.72 0M209.73 0 L210.53 0 L210.53 0.4 L209.73 0.4 L209.73 0M211.73 0 L212.53 0 L212.53 0.4 L211.73 0.4 L211.73 0M213.74 0 L214.54 0 L214.54 0.4 L213.74 0.4 L213.74 0M215.74 0 L216.54 0 L216.54 0.4 L215.74 0.4 L215.74 0M217.75 0 L218.55 0 L218.55 0.4 L217.75 0.4 L217.75 0M219.75 0 L220.55 0 L220.55 0.4 L219.75 0.4 L219.75 0M221.76 0 L222.56 0 L222.56 0.4 L221.76 0.4 L221.76 0M223.76 0 L224.56 0 L224.56 0.4 L223.76 0.4 L223.76 0M225.77 0 L226.57 0 L226.57 0.4 L225.77 0.4 L225.77 0M227.77 0 L228.57 0 L228.57 0.4 L227.77 0.4 L227.77 0M229.78 0 L230.58 0 L230.58 0.4 L229.78 0.4 L229.78 0M231.78 0 L232.58 0 L232.58 0.4 L231.78 0.4 L231.78 0M233.79 0 L234.59 0 L234.59 0.4 L233.79 0.4 L233.79 0M235.79 0 L236.59 0 L236.59 0.4 L235.79 0.4 L235.79 0M237.8 0 L238.6 0 L238.6 0.4 L237.8 0.4 L237.8 0M239.8 0 L240.6 0 L240.6 0.4 L239.8 0.4 L239.8 0M241.81 0 L242.61 0 L242.61 0.4 L241.81 0.4 L241.81 0M243.81 0 L244.61 0 L244.61 0.4 L243.81 0.4 L243.81 0M245.82 0 L246.62 0 L246.62 0.4 L245.82 0.4 L245.82 0M247.82 0 L248.62 0 L248.62 0.4 L247.82 0.4 L247.82 0M249.83 0 L250.63 0 L250.63 0.4 L249.83 0.4 L249.83 0M251.83 0 L252.63 0 L252.63 0.4 L251.83 0.4 L251.83 0M253.84 0 L254.64 0 L254.64 0.4 L253.84 0.4 L253.84 0M255.84 0 L256.64 0 L256.64 0.4 L255.84 0.4 L255.84 0M257.85 0 L258.65 0 L258.65 0.4 L257.85 0.4 L257.85 0M259.85 0 L260.65 0 L260.65 0.4 L259.85 0.4 L259.85 0M261.86 0 L262.66 0 L262.66 0.4 L261.86 0.4 L261.86 0M263.86 0 L264.66 0 L264.66 0.4 L263.86 0.4 L263.86 0M265.87 0 L266.67 0 L266.67 0.4 L265.87 0.4 L265.87 0M267.87 0 L268.67 0 L268.67 0.4 L267.87 0.4 L267.87 0M269.88 0 L270.68 0 L270.68 0.4 L269.88 0.4 L269.88 0M271.88 0 L272.68 0 L272.68 0.4 L271.88 0.4 L271.88 0M273.89 0 L274.69 0 L274.69 0.4 L273.89 0.4 L273.89 0M275.89 0 L276.69 0 L276.69 0.4 L275.89 0.4 L275.89 0M277.9 0 L278.7 0 L278.7 0.4 L277.9 0.4 L277.9 0M279.9 0 L280.7 0 L280.7 0.4 L279.9 0.4 L279.9 0M281.91 0 L282.71 0 L282.71 0.4 L281.91 0.4 L281.91 0M283.91 0 L284.71 0 L284.71 0.4 L283.91 0.4 L283.91 0M285.92 0 L286.72 0 L286.72 0.4 L285.92 0.4 L285.92 0M287.92 0 L288.72 0 L288.72 0.4 L287.92 0.4 L287.92 0M289.93 0 L290.73 0 L290.73 0.4 L289.93 0.4 L289.93 0M291.93 0 L292.73 0 L292.73 0.4 L291.93 0.4 L291.93 0M293.94 0 L294.74 0 L294.74 0.4 L293.94 0.4 L293.94 0M295.94 0 L296.74 0 L296.74 0.4 L295.94 0.4 L295.94 0M297.95 0 L298.75 0 L298.75 0.4 L297.95 0.4 L297.95 0M299.95 0 L300.75 0 L300.75 0.4 L299.95 0.4 L299.95 0M301.96 0 L302.76 0 L302.76 0.4 L301.96 0.4 L301.96 0M303.96 0 L304.76 0 L304.76 0.4 L303.96 0.4 L303.96 0M305.97 0 L306.77 0 L306.77 0.4 L305.97 0.4 L305.97 0M307.97 0 L308.77 0 L308.77 0.4 L307.97 0.4 L307.97 0M309.98 0 L310.78 0 L310.78 0.4 L309.98 0.4 L309.98 0" fill="rgba(255,255,255,0)" stroke="rgba(255,255,255,0)" stroke-opacity="0" stroke-width="0"/><path d="M0 -0.01 L1.2 -0.01 L1.2 0.41 L0 0.41 L0 -0.01M312.79 -0.01 L313.99 -0.01 L313.99 0.41 L312.79 0.41 L312.79 -0.01M2 -0.01 L3.21 -0.01 L3.21 0.41 L2 0.41 L2 -0.01M4.01 -0.01 L5.21 -0.01 L5.21 0.41 L4.01 0.41 L4.01 -0.01M6.01 -0.01 L7.22 -0.01 L7.22 0.41 L6.01 0.41 L6.01 -0.01M8.02 -0.01 L9.22 -0.01 L9.22 0.41 L8.02 0.41 L8.02 -0.01M10.02 -0.01 L11.23 -0.01 L11.23 0.41 L10.02 0.41 L10.02 -0.01M12.03 -0.01 L13.23 -0.01 L13.23 0.41 L12.03 0.41 L12.03 -0.01M14.03 -0.01 L15.24 -0.01 L15.24 0.41 L14.03 0.41 L14.03 -0.01M16.04 -0.01 L17.24 -0.01 L17.24 0.41 L16.04 0.41 L16.04 -0.01M18.04 -0.01 L19.25 -0.01 L19.25 0.41 L18.04 0.41 L18.04 -0.01M20.05 -0.01 L21.25 -0.01 L21.25 0.41 L20.05 0.41 L20.05 -0.01M22.05 -0.01 L23.26 -0.01 L23.26 0.41 L22.05 0.41 L22.05 -0.01M24.06 -0.01 L25.26 -0.01 L25.26 0.41 L24.06 0.41 L24.06 -0.01M26.06 -0.01 L27.27 -0.01 L27.27 0.41 L26.06 0.41 L26.06 -0.01M28.07 -0.01 L29.27 -0.01 L29.27 0.41 L28.07 0.41 L28.07 -0.01M30.07 -0.01 L31.28 -0.01 L31.28 0.41 L30.07 0.41 L30.07 -0.01M32.08 -0.01 L33.28 -0.01 L33.28 0.41 L32.08 0.41 L32.08 -0.01M34.08 -0.01 L35.29 -0.01 L35.29 0.41 L34.08 0.41 L34.08 -0.01M36.09 -0.01 L37.29 -0.01 L37.29 0.41 L36.09 0.41 L36.09 -0.01M38.09 -0.01 L39.3 -0.01 L39.3 0.41 L38.09 0.41 L38.09 -0.01M40.1 -0.01 L41.3 -0.01 L41.3 0.41 L40.1 0.41 L40.1 -0.01M42.1 -0.01 L43.31 -0.01 L43.31 0.41 L42.1 0.41 L42.1 -0.01M44.11 -0.01 L45.31 -0.01 L45.31 0.41 L44.11 0.41 L44.11 -0.01M46.11 -0.01 L47.32 -0.01 L47.32 0.41 L46.11 0.41 L46.11 -0.01M48.12 -0.01 L49.32 -0.01 L49.32 0.41 L48.12 0.41 L48.12 -0.01M50.12 -0.01 L51.33 -0.01 L51.33 0.41 L50.12 0.41 L50.12 -0.01M52.13 -0.01 L53.33 -0.01 L53.33 0.41 L52.13 0.41 L52.13 -0.01M54.13 -0.01 L55.34 -0.01 L55.34 0.41 L54.13 0.41 L54.13 -0.01M56.14 -0.01 L57.34 -0.01 L57.34 0.41 L56.14 0.41 L56.14 -0.01M58.14 -0.01 L59.35 -0.01 L59.35 0.41 L58.14 0.41 L58.14 -0.01M60.15 -0.01 L61.35 -0.01 L61.35 0.41 L60.15 0.41 L60.15 -0.01M62.15 -0.01 L63.36 -0.01 L63.36 0.41 L62.15 0.41 L62.15 -0.01M64.16 -0.01 L65.36 -0.01 L65.36 0.41 L64.16 0.41 L64.16 -0.01M66.16 -0.01 L67.37 -0.01 L67.37 0.41 L66.16 0.41 L66.16 -0.01M68.17 -0.01 L69.37 -0.01 L69.37 0.41 L68.17 0.41 L68.17 -0.01M70.17 -0.01 L71.38 -0.01 L71.38 0.41 L70.17 0.41 L70.17 -0.01M72.18 -0.01 L73.38 -0.01 L73.38 0.41 L72.18 0.41 L72.18 -0.01M74.18 -0.01 L75.39 -0.01 L75.39 0.41 L74.18 0.41 L74.18 -0.01M76.19 -0.01 L77.39 -0.01 L77.39 0.41 L76.19 0.41 L76.19 -0.01M78.19 -0.01 L79.4 -0.01 L79.4 0.41 L78.19 0.41 L78.19 -0.01M80.2 -0.01 L81.4 -0.01 L81.4 0.41 L80.2 0.41 L80.2 -0.01M82.2 -0.01 L83.41 -0.01 L83.41 0.41 L82.2 0.41 L82.2 -0.01M84.21 -0.01 L85.41 -0.01 L85.41 0.41 L84.21 0.41 L84.21 -0.01M86.21 -0.01 L87.42 -0.01 L87.42 0.41 L86.21 0.41 L86.21 -0.01M88.22 -0.01 L89.42 -0.01 L89.42 0.41 L88.22 0.41 L88.22 -0.01M90.22 -0.01 L91.43 -0.01 L91.43 0.41 L90.22 0.41 L90.22 -0.01M92.23 -0.01 L93.43 -0.01 L93.43 0.41 L92.23 0.41 L92.23 -0.01M94.23 -0.01 L95.44 -0.01 L95.44 0.41 L94.23 0.41 L94.23 -0.01M96.24 -0.01 L97.44 -0.01 L97.44 0.41 L96.24 0.41 L96.24 -0.01M98.24 -0.01 L99.45 -0.01 L99.45 0.41 L98.24 0.41 L98.24 -0.01M100.25 -0.01 L101.45 -0.01 L101.45 0.41 L100.25 0.41 L100.25 -0.01M102.25 -0.01 L103.46 -0.01 L103.46 0.41 L102.25 0.41 L102.25 -0.01M104.26 -0.01 L105.46 -0.01 L105.46 0.41 L104.26 0.41 L104.26 -0.01M106.26 -0.01 L107.47 -0.01 L107.47 0.41 L106.26 0.41 L106.26 -0.01M108.27 -0.01 L109.47 -0.01 L109.47 0.41 L108.27 0.41 L108.27 -0.01M110.27 -0.01 L111.48 -0.01 L111.48 0.41 L110.27 0.41 L110.27 -0.01M112.28 -0.01 L113.48 -0.01 L113.48 0.41 L112.28 0.41 L112.28 -0.01M114.28 -0.01 L115.49 -0.01 L115.49 0.41 L114.28 0.41 L114.28 -0.01M116.29 -0.01 L117.49 -0.01 L117.49 0.41 L116.29 0.41 L116.29 -0.01M118.3 -0.01 L119.5 -0.01 L119.5 0.41 L118.3 0.41 L118.3 -0.01M120.3 -0.01 L121.5 -0.01 L121.5 0.41 L120.3 0.41 L120.3 -0.01M122.31 -0.01 L123.51 -0.01 L123.51 0.41 L122.31 0.41 L122.31 -0.01M124.31 -0.01 L125.51 -0.01 L125.51 0.41 L124.31 0.41 L124.31 -0.01M126.32 -0.01 L127.52 -0.01 L127.52 0.41 L126.32 0.41 L126.32 -0.01M128.32 -0.01 L129.52 -0.01 L129.52 0.41 L128.32 0.41 L128.32 -0.01M130.33 -0.01 L131.53 -0.01 L131.53 0.41 L130.33 0.41 L130.33 -0.01M132.33 -0.01 L133.53 -0.01 L133.53 0.41 L132.33 0.41 L132.33 -0.01M134.34 -0.01 L135.54 -0.01 L135.54 0.41 L134.34 0.41 L134.34 -0.01M136.34 -0.01 L137.54 -0.01 L137.54 0.41 L136.34 0.41 L136.34 -0.01M138.35 -0.01 L139.55 -0.01 L139.55 0.41 L138.35 0.41 L138.35 -0.01M140.35 -0.01 L141.55 -0.01 L141.55 0.41 L140.35 0.41 L140.35 -0.01M142.36 -0.01 L143.56 -0.01 L143.56 0.41 L142.36 0.41 L142.36 -0.01M144.36 -0.01 L145.56 -0.01 L145.56 0.41 L144.36 0.41 L144.36 -0.01M146.37 -0.01 L147.57 -0.01 L147.57 0.41 L146.37 0.41 L146.37 -0.01M148.37 -0.01 L149.57 -0.01 L149.57 0.41 L148.37 0.41 L148.37 -0.01M150.38 -0.01 L151.58 -0.01 L151.58 0.41 L150.38 0.41 L150.38 -0.01M152.38 -0.01 L153.58 -0.01 L153.58 0.41 L152.38 0.41 L152.38 -0.01M154.39 -0.01 L155.59 -0.01 L155.59 0.41 L154.39 0.41 L154.39 -0.01M156.39 -0.01 L157.59 -0.01 L157.59 0.41 L156.39 0.41 L156.39 -0.01M158.4 -0.01 L159.6 -0.01 L159.6 0.41 L158.4 0.41 L158.4 -0.01M160.4 -0.01 L161.6 -0.01 L161.6 0.41 L160.4 0.41 L160.4 -0.01M162.41 -0.01 L163.61 -0.01 L163.61 0.41 L162.41 0.41 L162.41 -0.01M164.41 -0.01 L165.61 -0.01 L165.61 0.41 L164.41 0.41 L164.41 -0.01M166.42 -0.01 L167.62 -0.01 L167.62 0.41 L166.42 0.41 L166.42 -0.01M168.42 -0.01 L169.62 -0.01 L169.62 0.41 L168.42 0.41 L168.42 -0.01M170.43 -0.01 L171.63 -0.01 L171.63 0.41 L170.43 0.41 L170.43 -0.01M172.43 -0.01 L173.63 -0.01 L173.63 0.41 L172.43 0.41 L172.43 -0.01M174.44 -0.01 L175.64 -0.01 L175.64 0.41 L174.44 0.41 L174.44 -0.01M176.44 -0.01 L177.64 -0.01 L177.64 0.41 L176.44 0.41 L176.44 -0.01M178.45 -0.01 L179.65 -0.01 L179.65 0.41 L178.45 0.41 L178.45 -0.01M180.45 -0.01 L181.65 -0.01 L181.65 0.41 L180.45 0.41 L180.45 -0.01M182.46 -0.01 L183.66 -0.01 L183.66 0.41 L182.46 0.41 L182.46 -0.01M184.46 -0.01 L185.66 -0.01 L185.66 0.41 L184.46 0.41 L184.46 -0.01M186.47 -0.01 L187.67 -0.01 L187.67 0.41 L186.47 0.41 L186.47 -0.01M188.47 -0.01 L189.67 -0.01 L189.67 0.41 L188.47 0.41 L188.47 -0.01M190.48 -0.01 L191.68 -0.01 L191.68 0.41 L190.48 0.41 L190.48 -0.01M192.48 -0.01 L193.69 -0.01 L193.69 0.41 L192.48 0.41 L192.48 -0.01M194.49 -0.01 L195.69 -0.01 L195.69 0.41 L194.49 0.41 L194.49 -0.01M196.49 -0.01 L197.7 -0.01 L197.7 0.41 L196.49 0.41 L196.49 -0.01M198.5 -0.01 L199.7 -0.01 L199.7 0.41 L198.5 0.41 L198.5 -0.01M200.5 -0.01 L201.71 -0.01 L201.71 0.41 L200.5 0.41 L200.5 -0.01M202.51 -0.01 L203.71 -0.01 L203.71 0.41 L202.51 0.41 L202.51 -0.01M204.51 -0.01 L205.72 -0.01 L205.72 0.41 L204.51 0.41 L204.51 -0.01M206.52 -0.01 L207.72 -0.01 L207.72 0.41 L206.52 0.41 L206.52 -0.01M208.52 -0.01 L209.73 -0.01 L209.73 0.41 L208.52 0.41 L208.52 -0.01M210.53 -0.01 L211.73 -0.01 L211.73 0.41 L210.53 0.41 L210.53 -0.01M212.53 -0.01 L213.74 -0.01 L213.74 0.41 L212.53 0.41 L212.53 -0.01M214.54 -0.01 L215.74 -0.01 L215.74 0.41 L214.54 0.41 L214.54 -0.01M216.54 -0.01 L217.75 -0.01 L217.75 0.41 L216.54 0.41 L216.54 -0.01M218.55 -0.01 L219.75 -0.01 L219.75 0.41 L218.55 0.41 L218.55 -0.01M220.55 -0.01 L221.76 -0.01 L221.76 0.41 L220.55 0.41 L220.55 -0.01M222.56 -0.01 L223.76 -0.01 L223.76 0.41 L222.56 0.41 L222.56 -0.01M224.56 -0.01 L225.77 -0.01 L225.77 0.41 L224.56 0.41 L224.56 -0.01M226.57 -0.01 L227.77 -0.01 L227.77 0.41 L226.57 0.41 L226.57 -0.01M228.57 -0.01 L229.78 -0.01 L229.78 0.41 L228.57 0.41 L228.57 -0.01M230.58 -0.01 L231.78 -0.01 L231.78 0.41 L230.58 0.41 L230.58 -0.01M232.58 -0.01 L233.79 -0.01 L233.79 0.41 L232.58 0.41 L232.58 -0.01M234.59 -0.01 L235.79 -0.01 L235.79 0.41 L234.59 0.41 L234.59 -0.01M236.59 -0.01 L237.8 -0.01 L237.8 0.41 L236.59 0.41 L236.59 -0.01M238.6 -0.01 L239.8 -0.01 L239.8 0.41 L238.6 0.41 L238.6 -0.01M240.6 -0.01 L241.81 -0.01 L241.81 0.41 L240.6 0.41 L240.6 -0.01M242.61 -0.01 L243.81 -0.01 L243.81 0.41 L242.61 0.41 L242.61 -0.01M244.61 -0.01 L245.82 -0.01 L245.82 0.41 L244.61 0.41 L244.61 -0.01M246.62 -0.01 L247.82 -0.01 L247.82 0.41 L246.62 0.41 L246.62 -0.01M248.62 -0.01 L249.83 -0.01 L249.83 0.41 L248.62 0.41 L248.62 -0.01M250.63 -0.01 L251.83 -0.01 L251.83 0.41 L250.63 0.41 L250.63 -0.01M252.63 -0.01 L253.84 -0.01 L253.84 0.41 L252.63 0.41 L252.63 -0.01M254.64 -0.01 L255.84 -0.01 L255.84 0.41 L254.64 0.41 L254.64 -0.01M256.64 -0.01 L257.85 -0.01 L257.85 0.41 L256.64 0.41 L256.64 -0.01M258.65 -0.01 L259.85 -0.01 L259.85 0.41 L258.65 0.41 L258.65 -0.01M260.65 -0.01 L261.86 -0.01 L261.86 0.41 L260.65 0.41 L260.65 -0.01M262.66 -0.01 L263.86 -0.01 L263.86 0.41 L262.66 0.41 L262.66 -0.01M264.66 -0.01 L265.87 -0.01 L265.87 0.41 L264.66 0.41 L264.66 -0.01M266.67 -0.01 L267.87 -0.01 L267.87 0.41 L266.67 0.41 L266.67 -0.01M268.67 -0.01 L269.88 -0.01 L269.88 0.41 L268.67 0.41 L268.67 -0.01M270.68 -0.01 L271.88 -0.01 L271.88 0.41 L270.68 0.41 L270.68 -0.01M272.68 -0.01 L273.89 -0.01 L273.89 0.41 L272.68 0.41 L272.68 -0.01M274.69 -0.01 L275.89 -0.01 L275.89 0.41 L274.69 0.41 L274.69 -0.01M276.69 -0.01 L277.9 -0.01 L277.9 0.41 L276.69 0.41 L276.69 -0.01M278.7 -0.01 L279.9 -0.01 L279.9 0.41 L278.7 0.41 L278.7 -0.01M280.7 -0.01 L281.91 -0.01 L281.91 0.41 L280.7 0.41 L280.7 -0.01M282.71 -0.01 L283.91 -0.01 L283.91 0.41 L282.71 0.41 L282.71 -0.01M284.71 -0.01 L285.92 -0.01 L285.92 0.41 L284.71 0.41 L284.71 -0.01M286.72 -0.01 L287.92 -0.01 L287.92 0.41 L286.72 0.41 L286.72 -0.01M288.72 -0.01 L289.93 -0.01 L289.93 0.41 L288.72 0.41 L288.72 -0.01M290.73 -0.01 L291.93 -0.01 L291.93 0.41 L290.73 0.41 L290.73 -0.01M292.73 -0.01 L293.94 -0.01 L293.94 0.41 L292.73 0.41 L292.73 -0.01M294.74 -0.01 L295.94 -0.01 L295.94 0.41 L294.74 0.41 L294.74 -0.01M296.74 -0.01 L297.95 -0.01 L297.95 0.41 L296.74 0.41 L296.74 -0.01M298.75 -0.01 L299.95 -0.01 L299.95 0.41 L298.75 0.41 L298.75 -0.01M300.75 -0.01 L301.96 -0.01 L301.96 0.41 L300.75 0.41 L300.75 -0.01M302.76 -0.01 L303.96 -0.01 L303.96 0.41 L302.76 0.41 L302.76 -0.01M304.76 -0.01 L305.97 -0.01 L305.97 0.41 L304.76 0.41 L304.76 -0.01M306.77 -0.01 L307.97 -0.01 L307.97 0.41 L306.77 0.41 L306.77 -0.01M308.77 -0.01 L309.98 -0.01 L309.98 0.41 L308.77 0.41 L308.77 -0.01M310.78 -0.01 L311.98 -0.01 L311.98 0.41 L310.78 0.41 L310.78 -0.01" fill="#3D4B52" stroke="#3D4B52" stroke-opacity="1" stroke-width="0"/></svg>