<?xml version="1.0" standalone="no"?>
<!DOCTYPE svg PUBLIC "-//W3C//DTD SVG 20010904//EN"
 "http://www.w3.org/TR/2001/REC-SVG-20010904/DTD/svg10.dtd">
<svg version="1.0" xmlns="http://www.w3.org/2000/svg"
 width="1500.000000pt" height="1500.000000pt" viewBox="0 0 1500.000000 1500.000000"
 preserveAspectRatio="xMidYMid meet">
<metadata>
Created by potrace 1.11, written by Peter Selinger 2001-2013
</metadata>
<g transform="translate(0.000000,1500.000000) scale(0.100000,-0.100000)"
fill="#000000" stroke="none">
<path d="M7035 14559 c-1431 -99 -2759 -605 -3885 -1481 -439 -342 -898 -800
-1237 -1236 -1126 -1446 -1642 -3239 -1457 -5067 196 -1950 1217 -3747 2804
-4937 652 -488 1394 -866 2160 -1099 1128 -344 2299 -403 3460 -174 2121 418
3958 1819 4939 3765 692 1372 915 2935 635 4460 -201 1096 -679 2155 -1377
3052 -339 436 -799 895 -1237 1236 -832 646 -1770 1091 -2788 1321 -293 67
-589 113 -927 147 -190 18 -891 27 -1090 13z m1093 -303 c895 -94 1643 -309
2412 -697 1875 -944 3210 -2697 3615 -4743 89 -449 125 -831 125 -1316 0 -485
-36 -867 -125 -1316 -229 -1158 -748 -2213 -1543 -3139 -111 -129 -528 -546
-657 -657 -458 -393 -917 -700 -1435 -959 -756 -378 -1518 -596 -2400 -686
-252 -26 -1009 -26 -1255 0 -750 79 -1381 239 -2025 514 -1083 461 -2037 1207
-2757 2153 -767 1009 -1218 2168 -1350 3470 -26 251 -26 989 0 1240 63 623
192 1187 393 1728 290 776 695 1458 1252 2107 111 129 528 546 657 657 1147
986 2496 1546 3990 1657 190 15 923 6 1103 -13z"/>
<path d="M7033 13873 c3 -54 16 -298 28 -543 12 -245 25 -448 28 -452 4 -4
665 25 699 32 6 1 1 130 -5 130 -5 0 -129 -7 -277 -15 -148 -9 -271 -13 -274
-10 -5 5 -50 809 -52 913 l0 42 -77 0 -76 0 6 -97z"/>
<path d="M8250 13928 c0 -2 -38 -243 -85 -537 -46 -294 -82 -537 -80 -539 4
-4 665 -112 686 -112 6 0 31 121 26 126 -1 1 -123 21 -272 44 -148 23 -272 44
-274 46 -3 3 134 879 146 930 4 19 -1 22 -44 28 -26 4 -60 9 -75 12 -16 3 -28
4 -28 2z"/>
<path d="M6079 13842 l-67 -15 -10 -71 c-44 -298 -144 -1078 -139 -1082 8 -8
120 17 133 30 6 6 19 85 29 174 17 148 21 165 39 171 37 13 406 94 409 90 2
-2 43 -68 91 -146 48 -79 90 -143 93 -143 9 0 148 33 152 36 1 1 -140 221
-314 488 -213 325 -323 486 -334 485 -9 -1 -46 -8 -82 -17z m191 -391 c72
-116 117 -197 111 -201 -17 -10 -310 -74 -316 -69 -2 3 10 116 27 252 26 202
34 243 44 229 7 -10 67 -105 134 -211z"/>
<path d="M4905 13469 c-31 -8 -510 -230 -523 -244 -3 -3 466 -964 477 -977 4
-4 119 48 256 116 198 97 260 133 298 170 129 125 137 307 21 436 -51 57 -103
80 -182 80 -35 0 -62 3 -60 8 43 84 50 108 46 166 -12 175 -161 285 -333 245z
m98 -143 c68 -28 116 -118 103 -191 -12 -61 -67 -105 -237 -187 l-154 -75 -66
131 c-97 192 -102 166 48 237 211 101 246 111 306 85z m264 -405 c51 -24 94
-92 101 -160 5 -57 -20 -114 -70 -156 -31 -27 -357 -190 -364 -182 -2 2 -40
79 -84 172 -61 127 -78 170 -68 176 35 22 324 153 351 159 54 13 90 10 134 -9z"/>
<path d="M9742 12987 c-226 -226 -412 -415 -412 -418 0 -3 30 -18 68 -33 l68
-27 119 120 c65 67 124 121 130 121 12 0 376 -159 387 -169 4 -3 0 -69 -7
-146 -22 -215 -27 -196 57 -233 39 -18 72 -31 73 -29 2 1 19 243 39 537 20
294 39 554 42 578 l5 43 -76 34 c-42 19 -77 35 -78 35 -1 0 -188 -186 -415
-413z m395 -19 c-12 -130 -25 -239 -29 -243 -5 -6 -75 22 -262 105 l-49 22
179 179 c98 98 179 177 180 176 1 -1 -7 -109 -19 -239z"/>
<path d="M3636 12760 c-198 -138 -361 -252 -363 -254 -5 -4 66 -106 73 -106 2
0 69 45 149 101 80 55 149 99 155 97 5 -2 131 -176 281 -388 149 -212 275
-384 280 -382 9 2 119 73 119 76 0 1 -124 177 -275 392 -151 214 -275 392
-275 396 0 4 65 53 145 108 80 56 145 104 145 107 0 11 -62 103 -69 103 -3 0
-168 -113 -365 -250z"/>
<path d="M11082 12735 c-174 -54 -260 -237 -182 -384 17 -31 76 -110 132 -176
185 -219 206 -269 149 -357 -16 -26 -44 -54 -62 -64 -47 -24 -140 -16 -212 20
-74 36 -169 124 -197 181 -31 63 -29 143 4 208 30 56 34 46 -47 104 l-39 27
-19 -24 c-61 -80 -79 -227 -40 -330 54 -144 241 -288 420 -326 121 -25 209 3
290 91 64 69 84 122 79 209 -4 90 -30 135 -170 301 -131 155 -160 199 -165
249 -9 77 60 146 151 154 70 6 141 -26 220 -99 93 -85 118 -174 76 -268 -11
-24 -19 -45 -18 -46 2 -1 25 -18 52 -38 27 -20 52 -37 57 -37 4 0 23 30 41 67
28 56 33 78 32 133 -1 86 -43 176 -120 255 -136 138 -295 193 -432 150z"/>
<path d="M7208 12449 c-1669 -96 -3187 -1038 -4022 -2497 -772 -1348 -863
-2988 -245 -4415 382 -882 1019 -1641 1824 -2172 704 -464 1440 -721 2310
-806 193 -19 672 -16 883 5 824 82 1577 346 2256 793 484 317 915 726 1266
1198 553 741 888 1637 960 2560 14 180 14 590 0 770 -106 1361 -775 2623
-1845 3480 -965 772 -2159 1155 -3387 1084z m-391 -1811 l643 -643 618 618
c566 566 621 618 648 615 21 -2 30 -9 32 -25 2 -13 -128 -421 -288 -909 -160
-487 -290 -887 -288 -888 2 -1 35 -15 73 -31 365 -149 697 -417 914 -738 61
-91 149 -251 186 -339 l29 -66 919 309 c506 170 925 309 932 309 7 0 22 -15
34 -32 l21 -33 -638 -638 -637 -639 615 -608 615 -608 -22 -39 c-13 -21 -29
-37 -37 -35 -8 1 -411 133 -896 292 -484 160 -884 290 -888 290 -5 0 -14 -17
-21 -37 -25 -71 -129 -271 -186 -360 -222 -341 -549 -615 -919 -769 -82 -33
-100 -45 -98 -60 2 -10 132 -408 289 -884 157 -476 286 -871 287 -878 0 -8
-16 -23 -36 -35 l-38 -22 -612 612 -613 613 -622 -622 -623 -623 -35 19 c-19
11 -35 22 -35 25 0 4 137 418 305 921 168 502 304 914 302 915 -1 1 -63 31
-137 68 -223 109 -402 239 -567 410 -173 180 -321 401 -406 604 -23 57 -46
102 -52 102 -5 0 -410 -132 -900 -293 l-890 -294 -22 37 -23 36 613 613 612
612 -637 638 -638 637 21 33 c12 17 27 32 34 32 10 0 1778 -592 1835 -614 11
-5 25 18 57 91 90 208 230 410 408 589 188 189 376 324 588 419 48 21 87 44
87 49 0 5 -139 423 -310 927 -170 504 -310 923 -310 931 0 20 21 38 44 38 14
0 232 -211 663 -642z"/>
<path d="M7283 9359 c-764 -89 -1403 -642 -1596 -1384 -74 -283 -82 -550 -26
-840 54 -284 197 -587 382 -814 398 -487 1028 -748 1645 -680 639 69 1188 448
1475 1020 211 418 258 862 140 1314 -136 521 -492 956 -981 1200 -316 157
-695 224 -1039 184z m-228 -175 c-36 -41 -77 -93 -91 -114 -17 -26 -39 -43
-63 -51 -60 -20 -231 -108 -311 -162 -111 -74 -230 -177 -311 -270 -66 -75
-78 -84 -144 -108 -39 -14 -98 -38 -130 -53 -32 -14 -59 -25 -61 -23 -2 2 22
41 53 88 210 314 502 549 852 684 71 27 206 70 269 84 2 1 -26 -33 -63 -75z
m932 42 c413 -119 768 -378 1007 -735 31 -46 55 -86 53 -87 -2 -2 -44 14 -93
35 -50 22 -108 44 -130 50 -31 8 -53 27 -106 90 -149 175 -391 345 -628 440
-40 16 -63 33 -84 62 -16 23 -56 72 -88 110 -33 38 -57 69 -55 69 3 0 59 -15
124 -34z m-771 -347 l244 -80 0 -349 0 -348 -69 -40 c-93 -56 -279 -190 -377
-272 l-81 -69 -337 110 -336 110 0 259 0 258 101 106 c115 121 189 182 309
257 86 53 263 139 289 139 7 0 123 -36 257 -81z m905 46 c182 -78 356 -201
508 -360 l101 -107 0 -258 0 -259 -337 -110 -337 -110 -55 48 c-88 75 -221
173 -351 257 l-120 77 0 351 1 351 237 77 c130 43 244 78 254 78 9 0 53 -16
99 -35z m-1442 -1198 c124 -40 228 -79 232 -87 4 -8 27 -85 49 -170 23 -85 64
-213 92 -285 28 -71 51 -137 51 -145 1 -13 -351 -508 -394 -554 -17 -18 -23
-17 -259 60 l-242 78 -30 44 c-42 61 -132 253 -162 343 -36 111 -65 257 -72
357 l-6 87 151 207 151 206 107 -34 c60 -19 209 -67 332 -107z m2231 -77 l142
-195 -6 -84 c-9 -117 -39 -260 -82 -382 -36 -106 -131 -299 -168 -343 -16 -19
-76 -42 -255 -101 -129 -42 -240 -74 -246 -72 -9 4 -385 514 -409 554 -4 7 15
72 43 145 27 73 70 207 96 298 26 91 52 170 57 175 5 6 156 58 336 116 245 80
330 104 339 95 6 -6 75 -99 153 -206z m-3075 -164 c20 -27 27 -51 35 -137 26
-250 105 -489 230 -695 33 -53 40 -73 40 -117 0 -28 5 -92 10 -141 6 -49 9
-90 7 -92 -2 -2 -27 25 -55 61 -182 227 -308 493 -368 779 -20 95 -27 162 -31
313 -3 105 -3 199 1 209 5 14 18 -1 57 -65 27 -46 61 -97 74 -115z m3452 -25
c-7 -257 -38 -411 -128 -636 -66 -166 -182 -357 -298 -491 l-33 -39 6 40 c3
22 9 90 12 150 6 97 10 115 34 155 127 204 214 461 239 708 10 98 13 106 54
165 24 34 57 85 73 114 23 42 30 49 38 36 5 -9 6 -99 3 -202z m-1259 -756
c111 -153 201 -282 200 -286 -2 -5 -70 -100 -151 -212 l-148 -204 -99 -21
c-232 -50 -460 -50 -676 0 l-94 21 -52 71 c-187 257 -249 347 -242 358 10 17
339 472 376 519 l28 37 327 -2 328 -2 203 -279z m-843 -806 c85 -19 131 -23
300 -23 182 -1 213 2 336 27 l137 28 63 -20 c35 -12 91 -26 126 -33 35 -6 63
-15 63 -19 0 -4 -35 -21 -77 -37 -298 -113 -635 -146 -948 -91 -136 23 -405
108 -405 128 0 4 30 13 68 20 37 7 90 21 117 31 57 21 81 20 220 -11z"/>
<path d="M2830 11989 c-88 -17 -189 -77 -276 -163 -195 -196 -224 -419 -83
-652 47 -77 157 -185 243 -238 240 -149 478 -120 667 82 142 152 187 320 132
497 -70 227 -305 440 -523 475 -74 11 -97 11 -160 -1z m243 -189 c81 -39 190
-137 243 -217 20 -31 48 -88 62 -127 45 -130 16 -233 -97 -347 -93 -92 -142
-114 -257 -114 -87 0 -94 2 -177 43 -115 57 -220 160 -274 269 -36 72 -38 83
-38 167 0 82 3 97 31 151 47 90 147 178 234 206 14 5 66 7 115 6 79 -3 98 -7
158 -37z"/>
<path d="M12014 11836 c-115 -54 -178 -140 -178 -241 0 -65 23 -118 162 -382
72 -135 80 -168 53 -227 -41 -94 -144 -126 -246 -77 -60 30 -164 130 -193 187
-53 104 -50 170 13 264 l35 52 -41 49 c-22 27 -45 49 -49 49 -14 0 -79 -81
-102 -129 -19 -38 -23 -63 -23 -141 0 -85 3 -102 31 -160 41 -86 118 -178 200
-236 177 -127 327 -126 458 1 67 65 81 97 81 191 0 90 9 67 -153 376 -53 100
-72 148 -72 175 0 111 133 177 247 122 23 -11 64 -45 92 -74 103 -113 124
-217 64 -313 l-32 -51 46 -51 46 -51 29 28 c16 15 43 56 60 90 28 58 30 69 26
138 -7 100 -54 196 -142 292 -92 99 -164 136 -276 140 -74 4 -92 1 -136 -21z"/>
<path d="M1915 10736 c-121 -38 -233 -139 -302 -271 -61 -118 -76 -180 -71
-291 3 -84 8 -100 46 -176 132 -267 516 -435 774 -338 140 52 270 200 320 365
61 199 -8 405 -186 553 -62 52 -229 136 -311 157 -71 18 -215 19 -270 1z m298
-170 c138 -52 271 -162 327 -273 21 -40 25 -62 25 -133 0 -76 -4 -93 -33 -152
-43 -88 -110 -161 -179 -194 -188 -93 -532 43 -634 251 -87 178 -10 407 168
499 83 43 216 44 326 2z"/>
<path d="M12711 10674 c-35 -7 -112 -37 -170 -65 -91 -44 -118 -63 -186 -133
-177 -179 -203 -367 -82 -601 118 -229 343 -328 602 -266 217 53 385 176 464
341 34 72 36 80 36 180 -1 88 -5 117 -27 178 -90 249 -265 384 -498 381 -41 0
-104 -7 -139 -15z m265 -151 c129 -43 213 -138 250 -285 64 -249 -199 -497
-528 -498 -144 0 -242 62 -307 194 -83 170 -61 309 69 437 62 60 185 128 280
153 75 20 176 20 236 -1z"/>
<path d="M1133 9123 c-50 -202 -91 -368 -90 -369 10 -6 1061 -264 1064 -261 2
3 12 34 23 71 14 50 16 68 7 71 -7 2 -117 29 -245 60 -196 48 -232 60 -228 74
16 52 126 504 124 506 -6 4 -97 25 -111 25 -11 0 -32 -69 -77 -252 -35 -139
-65 -255 -67 -258 -3 -4 -313 69 -321 75 -3 3 134 553 144 579 4 9 -15 18 -60
30 -36 9 -66 16 -68 16 -2 0 -44 -165 -95 -367z"/>
<path d="M13191 9289 c-314 -61 -501 -247 -501 -496 0 -286 198 -493 473 -493
l70 0 -7 32 c-21 107 -19 105 -94 113 -199 21 -304 134 -306 330 -1 68 3 88
27 137 71 145 255 232 492 233 109 0 125 -2 175 -26 79 -37 125 -81 161 -155
26 -52 32 -79 37 -153 4 -78 2 -95 -17 -134 -21 -43 -85 -111 -125 -134 -17
-10 -18 -15 -6 -77 16 -77 24 -80 91 -38 62 41 113 96 151 166 29 55 33 71 36
162 10 264 -129 468 -363 529 -64 16 -220 19 -294 4z"/>
<path d="M13338 7891 c-267 -14 -489 -29 -492 -32 -4 -3 -4 -37 0 -75 l6 -69
517 27 c284 15 531 27 549 27 36 1 38 12 26 105 l-7 46 -56 -1 c-31 -1 -275
-13 -543 -28z"/>
<path d="M1462 7527 l-523 -221 3 -85 3 -84 549 -173 c302 -96 556 -174 564
-174 10 0 13 7 8 23 -3 12 -6 45 -6 72 l0 51 -167 49 -168 50 -6 100 c-4 55
-9 153 -13 217 l-7 116 161 63 160 62 0 79 c0 68 -2 78 -17 77 -10 -1 -253
-101 -541 -222z m122 -179 c15 -177 17 -278 4 -273 -7 3 -116 36 -242 74 -125
39 -230 71 -232 73 -3 4 444 187 458 188 3 0 9 -28 12 -62z"/>
<path d="M12897 7398 c-3 -13 -9 -46 -13 -74 l-6 -52 138 -75 c77 -42 146 -80
154 -85 13 -8 10 -37 -20 -221 -31 -190 -36 -212 -55 -216 -21 -5 -313 -55
-319 -55 -5 0 -28 -151 -23 -156 3 -3 1048 194 1124 212 17 5 23 17 32 68 6
35 11 72 11 83 0 17 -94 74 -501 304 -276 156 -505 285 -509 287 -4 2 -10 -7
-13 -20z m638 -485 c105 -58 194 -109 198 -113 5 -4 -29 -14 -75 -23 -235 -43
-400 -69 -405 -63 -6 6 35 303 44 319 5 8 -5 13 238 -120z"/>
<path d="M1043 6487 c-24 -5 -43 -13 -43 -16 0 -3 45 -197 99 -431 97 -421 98
-425 123 -422 13 1 42 8 64 15 l41 12 -42 177 -41 177 40 10 c23 5 232 53 466
106 234 54 428 100 432 104 9 8 -23 141 -35 141 -4 0 -216 -47 -469 -105 -253
-58 -462 -104 -465 -101 -5 5 -23 73 -58 229 -30 130 -25 125 -112 104z"/>
<path d="M13682 6158 c-5 -18 -26 -99 -47 -179 l-37 -146 -470 117 c-315 79
-471 114 -473 106 -18 -52 -33 -131 -25 -136 4 -3 216 -56 469 -118 281 -69
461 -118 461 -125 0 -7 -20 -87 -44 -179 l-44 -168 41 -11 c22 -6 52 -11 65
-12 25 -2 26 3 132 425 l107 426 -46 12 c-25 6 -54 13 -63 16 -12 4 -19 -4
-26 -28z"/>
<path d="M2245 5788 c-27 -11 -51 -20 -52 -22 -1 -1 40 -118 92 -261 53 -142
94 -259 93 -260 -2 -1 -205 -75 -453 -164 -247 -90 -451 -164 -453 -165 -4 -4
38 -120 47 -129 8 -8 1006 346 1025 364 11 10 -225 659 -239 658 -5 -1 -32
-10 -60 -21z"/>
<path d="M12346 5229 c-15 -34 -23 -66 -19 -70 8 -8 956 -428 984 -436 11 -3
23 13 43 62 16 36 27 67 25 69 -9 8 -966 429 -985 433 -17 4 -25 -5 -48 -58z"/>
<path d="M2355 4413 c-181 -257 -331 -470 -333 -474 -3 -7 60 -101 88 -132 6
-7 1124 268 1139 279 7 6 -74 124 -84 124 -5 0 -82 -20 -170 -44 -118 -32
-163 -40 -171 -32 -23 22 -237 331 -237 342 0 6 44 70 97 143 55 73 96 137 93
145 -8 21 -78 116 -85 116 -4 0 -155 -210 -337 -467z m252 -186 c51 -72 89
-135 85 -138 -8 -9 -473 -132 -477 -127 -4 4 286 398 294 398 3 -1 47 -60 98
-133z"/>
<path d="M12170 4659 c-142 -23 -298 -143 -374 -289 -87 -166 -89 -309 -5
-479 64 -130 247 -285 404 -342 87 -32 246 -32 328 0 209 82 382 340 363 542
-14 158 -98 302 -241 416 -150 120 -325 176 -475 152z m196 -168 c127 -42 284
-175 339 -286 27 -54 30 -70 30 -155 0 -83 -3 -102 -27 -150 -57 -115 -144
-190 -254 -217 -57 -14 -77 -15 -137 -5 -141 25 -286 123 -374 254 -89 133
-102 228 -49 344 27 59 118 161 175 196 80 50 186 57 297 19z"/>
<path d="M3065 3463 l-368 -406 74 -68 c41 -38 78 -68 82 -69 5 0 190 101 410
224 459 255 451 251 444 239 -7 -12 -375 -866 -379 -879 -2 -6 32 -41 75 -79
77 -67 78 -68 97 -49 11 10 176 192 369 404 l349 385 -26 28 c-15 16 -39 37
-54 48 l-27 19 -193 -212 c-107 -117 -242 -268 -302 -335 -59 -68 -109 -123
-111 -123 -2 0 82 198 187 440 l189 441 -52 47 c-29 26 -55 47 -58 47 -6 0
-743 -408 -811 -448 l-35 -21 30 36 c17 19 155 172 307 339 152 167 275 306
272 310 -2 4 -26 25 -53 48 l-48 41 -368 -407z"/>
<path d="M11274 3716 l-49 -44 21 -24 c12 -12 144 -158 293 -322 149 -165 269
-301 267 -303 -2 -2 -223 57 -490 132 -268 74 -495 135 -504 135 -9 -1 -43
-24 -75 -53 l-57 -52 365 -402 c201 -222 370 -403 376 -403 6 0 31 20 56 44
l46 43 -292 323 c-160 177 -290 324 -288 326 2 2 224 -59 493 -136 269 -77
493 -140 499 -140 5 0 38 26 72 58 l63 57 -364 400 c-201 220 -369 401 -374
403 -5 1 -31 -17 -58 -42z"/>
<path d="M4352 2283 c-18 -30 -31 -57 -30 -58 8 -6 320 -185 323 -185 2 0 17
25 35 56 26 47 29 59 18 69 -16 14 -297 175 -307 175 -3 0 -21 -26 -39 -57z"/>
<path d="M10390 2209 c-74 -44 -145 -87 -157 -95 l-22 -14 32 -55 c18 -30 36
-55 41 -55 11 0 316 180 316 187 0 11 -62 113 -68 113 -4 0 -68 -36 -142 -81z"/>
<path d="M6015 2173 c-51 -80 -70 -88 -195 -87 l-108 1 -7 -34 c-3 -19 -8 -40
-11 -48 -4 -9 27 -21 112 -41 64 -16 118 -34 121 -40 2 -6 -36 -171 -85 -367
l-90 -357 37 -10 c20 -6 52 -13 71 -16 l35 -6 124 499 c69 274 126 505 128
514 3 11 -4 18 -25 22 -16 3 -40 8 -53 11 -20 5 -29 -2 -54 -41z"/>
<path d="M8833 2181 c-73 -25 -118 -58 -158 -116 -48 -71 -65 -139 -65 -264 0
-123 22 -235 72 -367 91 -243 239 -349 430 -309 159 33 245 130 270 304 26
185 -48 482 -156 629 -46 61 -102 106 -163 128 -54 19 -168 17 -230 -5z m219
-133 c72 -56 148 -234 183 -431 41 -228 -15 -356 -163 -374 -128 -15 -223 98
-288 345 -30 114 -42 285 -25 349 25 91 105 146 203 140 41 -2 65 -10 90 -29z"/>
<path d="M6797 2040 c-126 -32 -226 -147 -257 -295 -29 -140 28 -288 135 -351
127 -74 295 -70 384 10 l24 21 -7 -30 c-15 -62 -68 -184 -96 -224 -45 -61
-101 -94 -168 -99 -103 -6 -183 56 -198 154 -3 24 -9 46 -13 48 -3 2 -32 7
-63 10 l-58 7 0 -58 c0 -107 62 -197 169 -246 69 -32 237 -31 302 1 114 56
213 208 265 408 33 127 39 317 11 405 -34 111 -121 200 -227 229 -54 15 -161
20 -203 10z m181 -136 c84 -35 123 -96 123 -193 0 -154 -75 -249 -199 -254
-188 -7 -278 140 -203 334 14 39 71 100 106 115 41 18 128 17 173 -2z"/>
<path d="M7817 2013 c-108 -37 -189 -146 -223 -301 -21 -94 -15 -355 10 -447
40 -143 113 -251 201 -298 61 -32 201 -36 277 -7 104 39 172 128 214 280 25
90 25 323 1 439 -35 165 -101 267 -205 318 -71 35 -200 42 -275 16z m213 -125
c89 -45 130 -169 137 -418 4 -134 2 -177 -11 -230 -28 -108 -91 -170 -180
-178 -71 -6 -133 23 -170 78 -105 159 -115 562 -16 700 48 67 158 89 240 48z"/>
</g>
</svg>
