<?xml version="1.0" encoding="utf-8" standalone="no"?>

<svg height="1.00px" version="1.1" width="350.00px" xmlns="http://www.w3.org/2000/svg"><path d="M1.48 0 L2.49 0 L2.49 0.5 L1.48 0.5 L1.48 0M348.51 0.5 L347.51 0.5 L347.51 0 L348.51 0 L348.51 0.5M3.99 0 L4.99 0 L4.99 0.5 L3.99 0.5 L3.99 0M6.5 0 L7.5 0 L7.5 0.5 L6.5 0.5 L6.5 0M9.01 0 L10.01 0 L10.01 0.5 L9.01 0.5 L9.01 0M11.51 0 L12.52 0 L12.52 0.5 L11.51 0.5 L11.51 0M14.02 0 L15.02 0 L15.02 0.5 L14.02 0.5 L14.02 0M16.53 0 L17.53 0 L17.53 0.5 L16.53 0.5 L16.53 0M19.04 0 L20.04 0 L20.04 0.5 L19.04 0.5 L19.04 0M21.54 0 L22.55 0 L22.55 0.5 L21.54 0.5 L21.54 0M24.05 0 L25.05 0 L25.05 0.5 L24.05 0.5 L24.05 0M26.56 0 L27.56 0 L27.56 0.5 L26.56 0.5 L26.56 0M29.07 0 L30.07 0 L30.07 0.5 L29.07 0.5 L29.07 0M31.57 0 L32.58 0 L32.58 0.5 L31.57 0.5 L31.57 0M34.08 0 L35.08 0 L35.08 0.5 L34.08 0.5 L34.08 0M36.59 0 L37.59 0 L37.59 0.5 L36.59 0.5 L36.59 0M39.1 0 L40.1 0 L40.1 0.5 L39.1 0.5 L39.1 0M41.6 0 L42.61 0 L42.61 0.5 L41.6 0.5 L41.6 0M44.11 0 L45.11 0 L45.11 0.5 L44.11 0.5 L44.11 0M46.62 0 L47.62 0 L47.62 0.5 L46.62 0.5 L46.62 0M49.13 0 L50.13 0 L50.13 0.5 L49.13 0.5 L49.13 0M51.63 0 L52.64 0 L52.64 0.5 L51.63 0.5 L51.63 0M54.14 0 L55.14 0 L55.14 0.5 L54.14 0.5 L54.14 0M56.65 0 L57.65 0 L57.65 0.5 L56.65 0.5 L56.65 0M59.16 0 L60.16 0 L60.16 0.5 L59.16 0.5 L59.16 0M61.66 0 L62.67 0 L62.67 0.5 L61.66 0.5 L61.66 0M64.17 0 L65.17 0 L65.17 0.5 L64.17 0.5 L64.17 0M66.68 0 L67.68 0 L67.68 0.5 L66.68 0.5 L66.68 0M69.19 0 L70.19 0 L70.19 0.5 L69.19 0.5 L69.19 0M71.69 0 L72.7 0 L72.7 0.5 L71.69 0.5 L71.69 0M74.2 0 L75.2 0 L75.2 0.5 L74.2 0.5 L74.2 0M76.71 0 L77.71 0 L77.71 0.5 L76.71 0.5 L76.71 0M79.22 0 L80.22 0 L80.22 0.5 L79.22 0.5 L79.22 0M81.72 0 L82.73 0 L82.73 0.5 L81.72 0.5 L81.72 0M84.23 0 L85.23 0 L85.23 0.5 L84.23 0.5 L84.23 0M86.74 0 L87.74 0 L87.74 0.5 L86.74 0.5 L86.74 0M89.24 0 L90.25 0 L90.25 0.5 L89.24 0.5 L89.24 0M91.75 0 L92.76 0 L92.76 0.5 L91.75 0.5 L91.75 0M94.26 0 L95.26 0 L95.26 0.5 L94.26 0.5 L94.26 0M96.77 0 L97.77 0 L97.77 0.5 L96.77 0.5 L96.77 0M99.27 0 L100.28 0 L100.28 0.5 L99.27 0.5 L99.27 0M101.78 0 L102.79 0 L102.79 0.5 L101.78 0.5 L101.78 0M104.29 0 L105.29 0 L105.29 0.5 L104.29 0.5 L104.29 0M106.8 0 L107.8 0 L107.8 0.5 L106.8 0.5 L106.8 0M109.3 0 L110.31 0 L110.31 0.5 L109.3 0.5 L109.3 0M111.81 0 L112.81 0 L112.81 0.5 L111.81 0.5 L111.81 0M114.32 0 L115.32 0 L115.32 0.5 L114.32 0.5 L114.32 0M116.83 0 L117.83 0 L117.83 0.5 L116.83 0.5 L116.83 0M119.33 0 L120.34 0 L120.34 0.5 L119.33 0.5 L119.33 0M121.84 0 L122.84 0 L122.84 0.5 L121.84 0.5 L121.84 0M124.35 0 L125.35 0 L125.35 0.5 L124.35 0.5 L124.35 0M126.86 0 L127.86 0 L127.86 0.5 L126.86 0.5 L126.86 0M129.36 0 L130.37 0 L130.37 0.5 L129.36 0.5 L129.36 0M131.87 0 L132.87 0 L132.87 0.5 L131.87 0.5 L131.87 0M134.38 0 L135.38 0 L135.38 0.5 L134.38 0.5 L134.38 0M136.89 0 L137.89 0 L137.89 0.5 L136.89 0.5 L136.89 0M139.39 0 L140.4 0 L140.4 0.5 L139.39 0.5 L139.39 0M141.9 0 L142.9 0 L142.9 0.5 L141.9 0.5 L141.9 0M144.41 0 L145.41 0 L145.41 0.5 L144.41 0.5 L144.41 0M146.92 0 L147.92 0 L147.92 0.5 L146.92 0.5 L146.92 0M149.42 0 L150.43 0 L150.43 0.5 L149.42 0.5 L149.42 0M151.93 0 L152.93 0 L152.93 0.5 L151.93 0.5 L151.93 0M154.44 0 L155.44 0 L155.44 0.5 L154.44 0.5 L154.44 0M156.95 0 L157.95 0 L157.95 0.5 L156.95 0.5 L156.95 0M159.45 0 L160.46 0 L160.46 0.5 L159.45 0.5 L159.45 0M161.96 0 L162.96 0 L162.96 0.5 L161.96 0.5 L161.96 0M164.47 0 L165.47 0 L165.47 0.5 L164.47 0.5 L164.47 0M166.98 0 L167.98 0 L167.98 0.5 L166.98 0.5 L166.98 0M169.48 0 L170.49 0 L170.49 0.5 L169.48 0.5 L169.48 0M171.99 0 L172.99 0 L172.99 0.5 L171.99 0.5 L171.99 0M174.5 0 L175.5 0 L175.5 0.5 L174.5 0.5 L174.5 0M177.01 0 L178.01 0 L178.01 0.5 L177.01 0.5 L177.01 0M179.51 0 L180.52 0 L180.52 0.5 L179.51 0.5 L179.51 0M182.02 0 L183.02 0 L183.02 0.5 L182.02 0.5 L182.02 0M184.53 0 L185.53 0 L185.53 0.5 L184.53 0.5 L184.53 0M187.04 0 L188.04 0 L188.04 0.5 L187.04 0.5 L187.04 0M189.54 0 L190.55 0 L190.55 0.5 L189.54 0.5 L189.54 0M192.05 0 L193.05 0 L193.05 0.5 L192.05 0.5 L192.05 0M194.56 0 L195.56 0 L195.56 0.5 L194.56 0.5 L194.56 0M197.07 0 L198.07 0 L198.07 0.5 L197.07 0.5 L197.07 0M199.57 0 L200.58 0 L200.58 0.5 L199.57 0.5 L199.57 0M202.08 0 L203.08 0 L203.08 0.5 L202.08 0.5 L202.08 0M204.59 0 L205.59 0 L205.59 0.5 L204.59 0.5 L204.59 0M207.09 0 L208.1 0 L208.1 0.5 L207.09 0.5 L207.09 0M209.6 0 L210.61 0 L210.61 0.5 L209.6 0.5 L209.6 0M212.11 0 L213.11 0 L213.11 0.5 L212.11 0.5 L212.11 0M214.62 0 L215.62 0 L215.62 0.5 L214.62 0.5 L214.62 0M217.12 0 L218.13 0 L218.13 0.5 L217.12 0.5 L217.12 0M219.63 0 L220.64 0 L220.64 0.5 L219.63 0.5 L219.63 0M222.14 0 L223.14 0 L223.14 0.5 L222.14 0.5 L222.14 0M224.65 0 L225.65 0 L225.65 0.5 L224.65 0.5 L224.65 0M227.15 0 L228.16 0 L228.16 0.5 L227.15 0.5 L227.15 0M229.66 0 L230.66 0 L230.66 0.5 L229.66 0.5 L229.66 0M232.17 0 L233.17 0 L233.17 0.5 L232.17 0.5 L232.17 0M234.68 0 L235.68 0 L235.68 0.5 L234.68 0.5 L234.68 0M237.18 0 L238.19 0 L238.19 0.5 L237.18 0.5 L237.18 0M239.69 0 L240.69 0 L240.69 0.5 L239.69 0.5 L239.69 0M242.2 0 L243.2 0 L243.2 0.5 L242.2 0.5 L242.2 0M244.71 0 L245.71 0 L245.71 0.5 L244.71 0.5 L244.71 0M247.21 0 L248.22 0 L248.22 0.5 L247.21 0.5 L247.21 0M249.72 0 L250.72 0 L250.72 0.5 L249.72 0.5 L249.72 0M252.23 0 L253.23 0 L253.23 0.5 L252.23 0.5 L252.23 0M254.74 0 L255.74 0 L255.74 0.5 L254.74 0.5 L254.74 0M257.24 0 L258.25 0 L258.25 0.5 L257.24 0.5 L257.24 0M259.75 0 L260.75 0 L260.75 0.5 L259.75 0.5 L259.75 0M262.26 0 L263.26 0 L263.26 0.5 L262.26 0.5 L262.26 0M264.77 0 L265.77 0 L265.77 0.5 L264.77 0.5 L264.77 0M267.27 0 L268.28 0 L268.28 0.5 L267.27 0.5 L267.27 0M269.78 0 L270.78 0 L270.78 0.5 L269.78 0.5 L269.78 0M272.29 0 L273.29 0 L273.29 0.5 L272.29 0.5 L272.29 0M274.8 0 L275.8 0 L275.8 0.5 L274.8 0.5 L274.8 0M277.3 0 L278.31 0 L278.31 0.5 L277.3 0.5 L277.3 0M279.81 0 L280.81 0 L280.81 0.5 L279.81 0.5 L279.81 0M282.32 0 L283.32 0 L283.32 0.5 L282.32 0.5 L282.32 0M284.83 0 L285.83 0 L285.83 0.5 L284.83 0.5 L284.83 0M287.33 0 L288.34 0 L288.34 0.5 L287.33 0.5 L287.33 0M289.84 0 L290.84 0 L290.84 0.5 L289.84 0.5 L289.84 0M292.35 0 L293.35 0 L293.35 0.5 L292.35 0.5 L292.35 0M294.86 0 L295.86 0 L295.86 0.5 L294.86 0.5 L294.86 0M297.36 0 L298.37 0 L298.37 0.5 L297.36 0.5 L297.36 0M299.87 0 L300.87 0 L300.87 0.5 L299.87 0.5 L299.87 0M302.38 0 L303.38 0 L303.38 0.5 L302.38 0.5 L302.38 0M304.89 0 L305.89 0 L305.89 0.5 L304.89 0.5 L304.89 0M307.39 0 L308.4 0 L308.4 0.5 L307.39 0.5 L307.39 0M309.9 0 L310.9 0 L310.9 0.5 L309.9 0.5 L309.9 0M312.41 0 L313.41 0 L313.41 0.5 L312.41 0.5 L312.41 0M314.92 0 L315.92 0 L315.92 0.5 L314.92 0.5 L314.92 0M317.42 0 L318.43 0 L318.43 0.5 L317.42 0.5 L317.42 0M319.93 0 L320.93 0 L320.93 0.5 L319.93 0.5 L319.93 0M322.44 0 L323.44 0 L323.44 0.5 L322.44 0.5 L322.44 0M324.94 0 L325.95 0 L325.95 0.5 L324.94 0.5 L324.94 0M327.45 0 L328.46 0 L328.46 0.5 L327.45 0.5 L327.45 0M329.96 0 L330.96 0 L330.96 0.5 L329.96 0.5 L329.96 0M332.47 0 L333.47 0 L333.47 0.5 L332.47 0.5 L332.47 0M334.97 0 L335.98 0 L335.98 0.5 L334.97 0.5 L334.97 0M337.48 0 L338.49 0 L338.49 0.5 L337.48 0.5 L337.48 0M339.99 0 L340.99 0 L340.99 0.5 L339.99 0.5 L339.99 0M342.5 0 L343.5 0 L343.5 0.5 L342.5 0.5 L342.5 0M345 0 L346.01 0 L346.01 0.5 L345 0.5 L345 0" fill="rgba(255,255,255,0)" stroke="rgba(255,255,255,0)" stroke-opacity="0" stroke-width="0"/><path d="M0 -0.02 L1.48 -0.02 L1.48 0.52 L0 0.52 L0 -0.02M348.51 -0.02 L350 -0.02 L350 0.52 L348.51 0.52 L348.51 -0.02M2.49 -0.02 L3.99 -0.02 L3.99 0.52 L2.49 0.52 L2.49 -0.02M4.99 -0.02 L6.5 -0.02 L6.5 0.52 L4.99 0.52 L4.99 -0.02M7.5 -0.02 L9.01 -0.02 L9.01 0.52 L7.5 0.52 L7.5 -0.02M10.01 -0.02 L11.51 -0.02 L11.51 0.52 L10.01 0.52 L10.01 -0.02M12.52 -0.02 L14.02 -0.02 L14.02 0.52 L12.52 0.52 L12.52 -0.02M15.02 -0.02 L16.53 -0.02 L16.53 0.52 L15.02 0.52 L15.02 -0.02M17.53 -0.02 L19.04 -0.02 L19.04 0.52 L17.53 0.52 L17.53 -0.02M20.04 -0.02 L21.54 -0.02 L21.54 0.52 L20.04 0.52 L20.04 -0.02M22.55 -0.02 L24.05 -0.02 L24.05 0.52 L22.55 0.52 L22.55 -0.02M25.05 -0.02 L26.56 -0.02 L26.56 0.52 L25.05 0.52 L25.05 -0.02M27.56 -0.02 L29.07 -0.02 L29.07 0.52 L27.56 0.52 L27.56 -0.02M30.07 -0.02 L31.57 -0.02 L31.57 0.52 L30.07 0.52 L30.07 -0.02M32.58 -0.02 L34.08 -0.02 L34.08 0.52 L32.58 0.52 L32.58 -0.02M35.08 -0.02 L36.59 -0.02 L36.59 0.52 L35.08 0.52 L35.08 -0.02M37.59 -0.02 L39.1 -0.02 L39.1 0.52 L37.59 0.52 L37.59 -0.02M40.1 -0.02 L41.6 -0.02 L41.6 0.52 L40.1 0.52 L40.1 -0.02M42.61 -0.02 L44.11 -0.02 L44.11 0.52 L42.61 0.52 L42.61 -0.02M45.11 -0.02 L46.62 -0.02 L46.62 0.52 L45.11 0.52 L45.11 -0.02M47.62 -0.02 L49.13 -0.02 L49.13 0.52 L47.62 0.52 L47.62 -0.02M50.13 -0.02 L51.63 -0.02 L51.63 0.52 L50.13 0.52 L50.13 -0.02M52.64 -0.02 L54.14 -0.02 L54.14 0.52 L52.64 0.52 L52.64 -0.02M55.14 -0.02 L56.65 -0.02 L56.65 0.52 L55.14 0.52 L55.14 -0.02M57.65 -0.02 L59.16 -0.02 L59.16 0.52 L57.65 0.52 L57.65 -0.02M60.16 -0.02 L61.66 -0.02 L61.66 0.52 L60.16 0.52 L60.16 -0.02M62.67 -0.02 L64.17 -0.02 L64.17 0.52 L62.67 0.52 L62.67 -0.02M65.17 -0.02 L66.68 -0.02 L66.68 0.52 L65.17 0.52 L65.17 -0.02M67.68 -0.02 L69.19 -0.02 L69.19 0.52 L67.68 0.52 L67.68 -0.02M70.19 -0.02 L71.69 -0.02 L71.69 0.52 L70.19 0.52 L70.19 -0.02M72.7 -0.02 L74.2 -0.02 L74.2 0.52 L72.7 0.52 L72.7 -0.02M75.2 -0.02 L76.71 -0.02 L76.71 0.52 L75.2 0.52 L75.2 -0.02M77.71 -0.02 L79.22 -0.02 L79.22 0.52 L77.71 0.52 L77.71 -0.02M80.22 -0.02 L81.72 -0.02 L81.72 0.52 L80.22 0.52 L80.22 -0.02M82.73 -0.02 L84.23 -0.02 L84.23 0.52 L82.73 0.52 L82.73 -0.02M85.23 -0.02 L86.74 -0.02 L86.74 0.52 L85.23 0.52 L85.23 -0.02M87.74 -0.02 L89.24 -0.02 L89.24 0.52 L87.74 0.52 L87.74 -0.02M90.25 -0.02 L91.75 -0.02 L91.75 0.52 L90.25 0.52 L90.25 -0.02M92.76 -0.02 L94.26 -0.02 L94.26 0.52 L92.76 0.52 L92.76 -0.02M95.26 -0.02 L96.77 -0.02 L96.77 0.52 L95.26 0.52 L95.26 -0.02M97.77 -0.02 L99.27 -0.02 L99.27 0.52 L97.77 0.52 L97.77 -0.02M100.28 -0.02 L101.78 -0.02 L101.78 0.52 L100.28 0.52 L100.28 -0.02M102.79 -0.02 L104.29 -0.02 L104.29 0.52 L102.79 0.52 L102.79 -0.02M105.29 -0.02 L106.8 -0.02 L106.8 0.52 L105.29 0.52 L105.29 -0.02M107.8 -0.02 L109.3 -0.02 L109.3 0.52 L107.8 0.52 L107.8 -0.02M110.31 -0.02 L111.81 -0.02 L111.81 0.52 L110.31 0.52 L110.31 -0.02M112.81 -0.02 L114.32 -0.02 L114.32 0.52 L112.81 0.52 L112.81 -0.02M115.32 -0.02 L116.83 -0.02 L116.83 0.52 L115.32 0.52 L115.32 -0.02M117.83 -0.02 L119.33 -0.02 L119.33 0.52 L117.83 0.52 L117.83 -0.02M120.34 -0.02 L121.84 -0.02 L121.84 0.52 L120.34 0.52 L120.34 -0.02M122.84 -0.02 L124.35 -0.02 L124.35 0.52 L122.84 0.52 L122.84 -0.02M125.35 -0.02 L126.86 -0.02 L126.86 0.52 L125.35 0.52 L125.35 -0.02M127.86 -0.02 L129.36 -0.02 L129.36 0.52 L127.86 0.52 L127.86 -0.02M130.37 -0.02 L131.87 -0.02 L131.87 0.52 L130.37 0.52 L130.37 -0.02M132.87 -0.02 L134.38 -0.02 L134.38 0.52 L132.87 0.52 L132.87 -0.02M135.38 -0.02 L136.89 -0.02 L136.89 0.52 L135.38 0.52 L135.38 -0.02M137.89 -0.02 L139.39 -0.02 L139.39 0.52 L137.89 0.52 L137.89 -0.02M140.4 -0.02 L141.9 -0.02 L141.9 0.52 L140.4 0.52 L140.4 -0.02M142.9 -0.02 L144.41 -0.02 L144.41 0.52 L142.9 0.52 L142.9 -0.02M145.41 -0.02 L146.92 -0.02 L146.92 0.52 L145.41 0.52 L145.41 -0.02M147.92 -0.02 L149.42 -0.02 L149.42 0.52 L147.92 0.52 L147.92 -0.02M150.43 -0.02 L151.93 -0.02 L151.93 0.52 L150.43 0.52 L150.43 -0.02M152.93 -0.02 L154.44 -0.02 L154.44 0.52 L152.93 0.52 L152.93 -0.02M155.44 -0.02 L156.95 -0.02 L156.95 0.52 L155.44 0.52 L155.44 -0.02M157.95 -0.02 L159.45 -0.02 L159.45 0.52 L157.95 0.52 L157.95 -0.02M160.46 -0.02 L161.96 -0.02 L161.96 0.52 L160.46 0.52 L160.46 -0.02M162.96 -0.02 L164.47 -0.02 L164.47 0.52 L162.96 0.52 L162.96 -0.02M165.47 -0.02 L166.98 -0.02 L166.98 0.52 L165.47 0.52 L165.47 -0.02M167.98 -0.02 L169.48 -0.02 L169.48 0.52 L167.98 0.52 L167.98 -0.02M170.49 -0.02 L171.99 -0.02 L171.99 0.52 L170.49 0.52 L170.49 -0.02M172.99 -0.02 L174.5 -0.02 L174.5 0.52 L172.99 0.52 L172.99 -0.02M175.5 -0.02 L177.01 -0.02 L177.01 0.52 L175.5 0.52 L175.5 -0.02M178.01 -0.02 L179.51 -0.02 L179.51 0.52 L178.01 0.52 L178.01 -0.02M180.52 -0.02 L182.02 -0.02 L182.02 0.52 L180.52 0.52 L180.52 -0.02M183.02 -0.02 L184.53 -0.02 L184.53 0.52 L183.02 0.52 L183.02 -0.02M185.53 -0.02 L187.04 -0.02 L187.04 0.52 L185.53 0.52 L185.53 -0.02M188.04 -0.02 L189.54 -0.02 L189.54 0.52 L188.04 0.52 L188.04 -0.02M190.55 -0.02 L192.05 -0.02 L192.05 0.52 L190.55 0.52 L190.55 -0.02M193.05 -0.02 L194.56 -0.02 L194.56 0.52 L193.05 0.52 L193.05 -0.02M195.56 -0.02 L197.07 -0.02 L197.07 0.52 L195.56 0.52 L195.56 -0.02M198.07 -0.02 L199.57 -0.02 L199.57 0.52 L198.07 0.52 L198.07 -0.02M200.58 -0.02 L202.08 -0.02 L202.08 0.52 L200.58 0.52 L200.58 -0.02M203.08 -0.02 L204.59 -0.02 L204.59 0.52 L203.08 0.52 L203.08 -0.02M205.59 -0.02 L207.09 -0.02 L207.09 0.52 L205.59 0.52 L205.59 -0.02M208.1 -0.02 L209.6 -0.02 L209.6 0.52 L208.1 0.52 L208.1 -0.02M210.61 -0.02 L212.11 -0.02 L212.11 0.52 L210.61 0.52 L210.61 -0.02M213.11 -0.02 L214.62 -0.02 L214.62 0.52 L213.11 0.52 L213.11 -0.02M215.62 -0.02 L217.12 -0.02 L217.12 0.52 L215.62 0.52 L215.62 -0.02M218.13 -0.02 L219.63 -0.02 L219.63 0.52 L218.13 0.52 L218.13 -0.02M220.64 -0.02 L222.14 -0.02 L222.14 0.52 L220.64 0.52 L220.64 -0.02M223.14 -0.02 L224.65 -0.02 L224.65 0.52 L223.14 0.52 L223.14 -0.02M225.65 -0.02 L227.15 -0.02 L227.15 0.52 L225.65 0.52 L225.65 -0.02M228.16 -0.02 L229.66 -0.02 L229.66 0.52 L228.16 0.52 L228.16 -0.02M230.66 -0.02 L232.17 -0.02 L232.17 0.52 L230.66 0.52 L230.66 -0.02M233.17 -0.02 L234.68 -0.02 L234.68 0.52 L233.17 0.52 L233.17 -0.02M235.68 -0.02 L237.18 -0.02 L237.18 0.52 L235.68 0.52 L235.68 -0.02M238.19 -0.02 L239.69 -0.02 L239.69 0.52 L238.19 0.52 L238.19 -0.02M240.69 -0.02 L242.2 -0.02 L242.2 0.52 L240.69 0.52 L240.69 -0.02M243.2 -0.02 L244.71 -0.02 L244.71 0.52 L243.2 0.52 L243.2 -0.02M245.71 -0.02 L247.21 -0.02 L247.21 0.52 L245.71 0.52 L245.71 -0.02M248.22 -0.02 L249.72 -0.02 L249.72 0.52 L248.22 0.52 L248.22 -0.02M250.72 -0.02 L252.23 -0.02 L252.23 0.52 L250.72 0.52 L250.72 -0.02M253.23 -0.02 L254.74 -0.02 L254.74 0.52 L253.23 0.52 L253.23 -0.02M255.74 -0.02 L257.24 -0.02 L257.24 0.52 L255.74 0.52 L255.74 -0.02M258.25 -0.02 L259.75 -0.02 L259.75 0.52 L258.25 0.52 L258.25 -0.02M260.75 -0.02 L262.26 -0.02 L262.26 0.52 L260.75 0.52 L260.75 -0.02M263.26 -0.02 L264.77 -0.02 L264.77 0.52 L263.26 0.52 L263.26 -0.02M265.77 -0.02 L267.27 -0.02 L267.27 0.52 L265.77 0.52 L265.77 -0.02M268.28 -0.02 L269.78 -0.02 L269.78 0.52 L268.28 0.52 L268.28 -0.02M270.78 -0.02 L272.29 -0.02 L272.29 0.52 L270.78 0.52 L270.78 -0.02M273.29 -0.02 L274.8 -0.02 L274.8 0.52 L273.29 0.52 L273.29 -0.02M275.8 -0.02 L277.3 -0.02 L277.3 0.52 L275.8 0.52 L275.8 -0.02M278.31 -0.02 L279.81 -0.02 L279.81 0.52 L278.31 0.52 L278.31 -0.02M280.81 -0.02 L282.32 -0.02 L282.32 0.52 L280.81 0.52 L280.81 -0.02M283.32 -0.02 L284.83 -0.02 L284.83 0.52 L283.32 0.52 L283.32 -0.02M285.83 -0.02 L287.33 -0.02 L287.33 0.52 L285.83 0.52 L285.83 -0.02M288.34 -0.02 L289.84 -0.02 L289.84 0.52 L288.34 0.52 L288.34 -0.02M290.84 -0.02 L292.35 -0.02 L292.35 0.52 L290.84 0.52 L290.84 -0.02M293.35 -0.02 L294.86 -0.02 L294.86 0.52 L293.35 0.52 L293.35 -0.02M295.86 -0.02 L297.36 -0.02 L297.36 0.52 L295.86 0.52 L295.86 -0.02M298.37 -0.02 L299.87 -0.02 L299.87 0.52 L298.37 0.52 L298.37 -0.02M300.87 -0.02 L302.38 -0.02 L302.38 0.52 L300.87 0.52 L300.87 -0.02M303.38 -0.02 L304.89 -0.02 L304.89 0.52 L303.38 0.52 L303.38 -0.02M305.89 -0.02 L307.39 -0.02 L307.39 0.52 L305.89 0.52 L305.89 -0.02M308.4 -0.02 L309.9 -0.02 L309.9 0.52 L308.4 0.52 L308.4 -0.02M310.9 -0.02 L312.41 -0.02 L312.41 0.52 L310.9 0.52 L310.9 -0.02M313.41 -0.02 L314.92 -0.02 L314.92 0.52 L313.41 0.52 L313.41 -0.02M315.92 -0.02 L317.42 -0.02 L317.42 0.52 L315.92 0.52 L315.92 -0.02M318.43 -0.02 L319.93 -0.02 L319.93 0.52 L318.43 0.52 L318.43 -0.02M320.93 -0.02 L322.44 -0.02 L322.44 0.52 L320.93 0.52 L320.93 -0.02M323.44 -0.02 L324.94 -0.02 L324.94 0.52 L323.44 0.52 L323.44 -0.02M325.95 -0.02 L327.45 -0.02 L327.45 0.52 L325.95 0.52 L325.95 -0.02M328.46 -0.02 L329.96 -0.02 L329.96 0.52 L328.46 0.52 L328.46 -0.02M330.96 -0.02 L332.47 -0.02 L332.47 0.52 L330.96 0.52 L330.96 -0.02M333.47 -0.02 L334.97 -0.02 L334.97 0.52 L333.47 0.52 L333.47 -0.02M335.98 -0.02 L337.48 -0.02 L337.48 0.52 L335.98 0.52 L335.98 -0.02M338.49 -0.02 L339.99 -0.02 L339.99 0.52 L338.49 0.52 L338.49 -0.02M340.99 -0.02 L342.5 -0.02 L342.5 0.52 L340.99 0.52 L340.99 -0.02M343.5 -0.02 L345 -0.02 L345 0.52 L343.5 0.52 L343.5 -0.02M346.01 -0.02 L347.51 -0.02 L347.51 0.52 L346.01 0.52 L346.01 -0.02" fill="#3D4B52" stroke="#3D4B52" stroke-opacity="1" stroke-width="0"/></svg>