<?xml version="1.0" encoding="utf-8" standalone="no"?>

<svg height="1.00px" version="1.1" width="366.00px" xmlns="http://www.w3.org/2000/svg"><path d="M1.51 0 L2.51 0 L2.51 0.5 L1.51 0.5 L1.51 0M363.79 0.5 L362.8 0.5 L362.8 0 L363.79 0 L363.79 0.5M4 0 L5 0 L5 0.5 L4 0.5 L4 0M6.49 0 L7.49 0 L7.49 0.5 L6.49 0.5 L6.49 0M8.99 0 L9.98 0 L9.98 0.5 L8.99 0.5 L8.99 0M11.48 0 L12.47 0 L12.47 0.5 L11.48 0.5 L11.48 0M13.97 0 L14.97 0 L14.97 0.5 L13.97 0.5 L13.97 0M16.46 0 L17.46 0 L17.46 0.5 L16.46 0.5 L16.46 0M18.95 0 L19.95 0 L19.95 0.5 L18.95 0.5 L18.95 0M21.44 0 L22.44 0 L22.44 0.5 L21.44 0.5 L21.44 0M23.93 0 L24.93 0 L24.93 0.5 L23.93 0.5 L23.93 0M26.43 0 L27.42 0 L27.42 0.5 L26.43 0.5 L26.43 0M28.92 0 L29.91 0 L29.91 0.5 L28.92 0.5 L28.92 0M31.41 0 L32.41 0 L32.41 0.5 L31.41 0.5 L31.41 0M33.9 0 L34.9 0 L34.9 0.5 L33.9 0.5 L33.9 0M36.39 0 L37.39 0 L37.39 0.5 L36.39 0.5 L36.39 0M38.88 0 L39.88 0 L39.88 0.5 L38.88 0.5 L38.88 0M41.38 0 L42.37 0 L42.37 0.5 L41.38 0.5 L41.38 0M43.87 0 L44.86 0 L44.86 0.5 L43.87 0.5 L43.87 0M46.36 0 L47.36 0 L47.36 0.5 L46.36 0.5 L46.36 0M48.85 0 L49.85 0 L49.85 0.5 L48.85 0.5 L48.85 0M51.34 0 L52.34 0 L52.34 0.5 L51.34 0.5 L51.34 0M53.83 0 L54.83 0 L54.83 0.5 L53.83 0.5 L53.83 0M56.33 0 L57.32 0 L57.32 0.5 L56.33 0.5 L56.33 0M58.82 0 L59.81 0 L59.81 0.5 L58.82 0.5 L58.82 0M61.31 0 L62.31 0 L62.31 0.5 L61.31 0.5 L61.31 0M63.8 0 L64.8 0 L64.8 0.5 L63.8 0.5 L63.8 0M66.29 0 L67.29 0 L67.29 0.5 L66.29 0.5 L66.29 0M68.78 0 L69.78 0 L69.78 0.5 L68.78 0.5 L68.78 0M71.28 0 L72.27 0 L72.27 0.5 L71.28 0.5 L71.28 0M73.77 0 L74.76 0 L74.76 0.5 L73.77 0.5 L73.77 0M76.26 0 L77.26 0 L77.26 0.5 L76.26 0.5 L76.26 0M78.75 0 L79.75 0 L79.75 0.5 L78.75 0.5 L78.75 0M81.24 0 L82.24 0 L82.24 0.5 L81.24 0.5 L81.24 0M83.73 0 L84.73 0 L84.73 0.5 L83.73 0.5 L83.73 0M86.23 0 L87.22 0 L87.22 0.5 L86.23 0.5 L86.23 0M88.72 0 L89.71 0 L89.71 0.5 L88.72 0.5 L88.72 0M91.21 0 L92.21 0 L92.21 0.5 L91.21 0.5 L91.21 0M93.7 0 L94.7 0 L94.7 0.5 L93.7 0.5 L93.7 0M96.19 0 L97.19 0 L97.19 0.5 L96.19 0.5 L96.19 0M98.68 0 L99.68 0 L99.68 0.5 L98.68 0.5 L98.68 0M101.18 0 L102.17 0 L102.17 0.5 L101.18 0.5 L101.18 0M103.67 0 L104.66 0 L104.66 0.5 L103.67 0.5 L103.67 0M106.16 0 L107.16 0 L107.16 0.5 L106.16 0.5 L106.16 0M108.65 0 L109.65 0 L109.65 0.5 L108.65 0.5 L108.65 0M111.14 0 L112.14 0 L112.14 0.5 L111.14 0.5 L111.14 0M113.63 0 L114.63 0 L114.63 0.5 L113.63 0.5 L113.63 0M116.12 0 L117.12 0 L117.12 0.5 L116.12 0.5 L116.12 0M118.62 0 L119.61 0 L119.61 0.5 L118.62 0.5 L118.62 0M121.11 0 L122.1 0 L122.1 0.5 L121.11 0.5 L121.11 0M123.6 0 L124.6 0 L124.6 0.5 L123.6 0.5 L123.6 0M126.09 0 L127.09 0 L127.09 0.5 L126.09 0.5 L126.09 0M128.58 0 L129.58 0 L129.58 0.5 L128.58 0.5 L128.58 0M131.07 0 L132.07 0 L132.07 0.5 L131.07 0.5 L131.07 0M133.57 0 L134.56 0 L134.56 0.5 L133.57 0.5 L133.57 0M136.06 0 L137.05 0 L137.05 0.5 L136.06 0.5 L136.06 0M138.55 0 L139.55 0 L139.55 0.5 L138.55 0.5 L138.55 0M141.04 0 L142.04 0 L142.04 0.5 L141.04 0.5 L141.04 0M143.53 0 L144.53 0 L144.53 0.5 L143.53 0.5 L143.53 0M146.02 0 L147.02 0 L147.02 0.5 L146.02 0.5 L146.02 0M148.52 0 L149.51 0 L149.51 0.5 L148.52 0.5 L148.52 0M151.01 0 L152 0 L152 0.5 L151.01 0.5 L151.01 0M153.5 0 L154.5 0 L154.5 0.5 L153.5 0.5 L153.5 0M155.99 0 L156.99 0 L156.99 0.5 L155.99 0.5 L155.99 0M158.48 0 L159.48 0 L159.48 0.5 L158.48 0.5 L158.48 0M160.97 0 L161.97 0 L161.97 0.5 L160.97 0.5 L160.97 0M163.47 0 L164.46 0 L164.46 0.5 L163.47 0.5 L163.47 0M165.96 0 L166.95 0 L166.95 0.5 L165.96 0.5 L165.96 0M168.45 0 L169.45 0 L169.45 0.5 L168.45 0.5 L168.45 0M170.94 0 L171.94 0 L171.94 0.5 L170.94 0.5 L170.94 0M173.43 0 L174.43 0 L174.43 0.5 L173.43 0.5 L173.43 0M175.92 0 L176.92 0 L176.92 0.5 L175.92 0.5 L175.92 0M178.42 0 L179.41 0 L179.41 0.5 L178.42 0.5 L178.42 0M180.91 0 L181.9 0 L181.9 0.5 L180.91 0.5 L180.91 0M183.4 0 L184.4 0 L184.4 0.5 L183.4 0.5 L183.4 0M185.89 0 L186.89 0 L186.89 0.5 L185.89 0.5 L185.89 0M188.38 0 L189.38 0 L189.38 0.5 L188.38 0.5 L188.38 0M190.87 0 L191.87 0 L191.87 0.5 L190.87 0.5 L190.87 0M193.37 0 L194.36 0 L194.36 0.5 L193.37 0.5 L193.37 0M195.86 0 L196.85 0 L196.85 0.5 L195.86 0.5 L195.86 0M198.35 0 L199.35 0 L199.35 0.5 L198.35 0.5 L198.35 0M200.84 0 L201.84 0 L201.84 0.5 L200.84 0.5 L200.84 0M203.33 0 L204.33 0 L204.33 0.5 L203.33 0.5 L203.33 0M205.82 0 L206.82 0 L206.82 0.5 L205.82 0.5 L205.82 0M208.32 0 L209.31 0 L209.31 0.5 L208.32 0.5 L208.32 0M210.81 0 L211.8 0 L211.8 0.5 L210.81 0.5 L210.81 0M213.3 0 L214.29 0 L214.29 0.5 L213.3 0.5 L213.3 0M215.79 0 L216.79 0 L216.79 0.5 L215.79 0.5 L215.79 0M218.28 0 L219.28 0 L219.28 0.5 L218.28 0.5 L218.28 0M220.77 0 L221.77 0 L221.77 0.5 L220.77 0.5 L220.77 0M223.26 0 L224.26 0 L224.26 0.5 L223.26 0.5 L223.26 0M225.76 0 L226.75 0 L226.75 0.5 L225.76 0.5 L225.76 0M228.25 0 L229.24 0 L229.24 0.5 L228.25 0.5 L228.25 0M230.74 0 L231.74 0 L231.74 0.5 L230.74 0.5 L230.74 0M233.23 0 L234.23 0 L234.23 0.5 L233.23 0.5 L233.23 0M235.72 0 L236.72 0 L236.72 0.5 L235.72 0.5 L235.72 0M238.21 0 L239.21 0 L239.21 0.5 L238.21 0.5 L238.21 0M240.71 0 L241.7 0 L241.7 0.5 L240.71 0.5 L240.71 0M243.2 0 L244.19 0 L244.19 0.5 L243.2 0.5 L243.2 0M245.69 0 L246.69 0 L246.69 0.5 L245.69 0.5 L245.69 0M248.18 0 L249.18 0 L249.18 0.5 L248.18 0.5 L248.18 0M250.67 0 L251.67 0 L251.67 0.5 L250.67 0.5 L250.67 0M253.16 0 L254.16 0 L254.16 0.5 L253.16 0.5 L253.16 0M255.66 0 L256.65 0 L256.65 0.5 L255.66 0.5 L255.66 0M258.15 0 L259.14 0 L259.14 0.5 L258.15 0.5 L258.15 0M260.64 0 L261.64 0 L261.64 0.5 L260.64 0.5 L260.64 0M263.13 0 L264.13 0 L264.13 0.5 L263.13 0.5 L263.13 0M265.62 0 L266.62 0 L266.62 0.5 L265.62 0.5 L265.62 0M268.11 0 L269.11 0 L269.11 0.5 L268.11 0.5 L268.11 0M270.61 0 L271.6 0 L271.6 0.5 L270.61 0.5 L270.61 0M273.1 0 L274.09 0 L274.09 0.5 L273.1 0.5 L273.1 0M275.59 0 L276.59 0 L276.59 0.5 L275.59 0.5 L275.59 0M278.08 0 L279.08 0 L279.08 0.5 L278.08 0.5 L278.08 0M280.57 0 L281.57 0 L281.57 0.5 L280.57 0.5 L280.57 0M283.06 0 L284.06 0 L284.06 0.5 L283.06 0.5 L283.06 0M285.56 0 L286.55 0 L286.55 0.5 L285.56 0.5 L285.56 0M288.05 0 L289.04 0 L289.04 0.5 L288.05 0.5 L288.05 0M290.54 0 L291.54 0 L291.54 0.5 L290.54 0.5 L290.54 0M293.03 0 L294.03 0 L294.03 0.5 L293.03 0.5 L293.03 0M295.52 0 L296.52 0 L296.52 0.5 L295.52 0.5 L295.52 0M298.01 0 L299.01 0 L299.01 0.5 L298.01 0.5 L298.01 0M300.51 0 L301.5 0 L301.5 0.5 L300.51 0.5 L300.51 0M303 0 L303.99 0 L303.99 0.5 L303 0.5 L303 0M305.49 0 L306.48 0 L306.48 0.5 L305.49 0.5 L305.49 0M307.98 0 L308.98 0 L308.98 0.5 L307.98 0.5 L307.98 0M310.47 0 L311.47 0 L311.47 0.5 L310.47 0.5 L310.47 0M312.96 0 L313.96 0 L313.96 0.5 L312.96 0.5 L312.96 0M315.45 0 L316.45 0 L316.45 0.5 L315.45 0.5 L315.45 0M317.95 0 L318.94 0 L318.94 0.5 L317.95 0.5 L317.95 0M320.44 0 L321.43 0 L321.43 0.5 L320.44 0.5 L320.44 0M322.93 0 L323.93 0 L323.93 0.5 L322.93 0.5 L322.93 0M325.42 0 L326.42 0 L326.42 0.5 L325.42 0.5 L325.42 0M327.91 0 L328.91 0 L328.91 0.5 L327.91 0.5 L327.91 0M330.4 0 L331.4 0 L331.4 0.5 L330.4 0.5 L330.4 0M332.9 0 L333.89 0 L333.89 0.5 L332.9 0.5 L332.9 0M335.39 0 L336.38 0 L336.38 0.5 L335.39 0.5 L335.39 0M337.88 0 L338.88 0 L338.88 0.5 L337.88 0.5 L337.88 0M340.37 0 L341.37 0 L341.37 0.5 L340.37 0.5 L340.37 0M342.86 0 L343.86 0 L343.86 0.5 L342.86 0.5 L342.86 0M345.35 0 L346.35 0 L346.35 0.5 L345.35 0.5 L345.35 0M347.85 0 L348.84 0 L348.84 0.5 L347.85 0.5 L347.85 0M350.34 0 L351.33 0 L351.33 0.5 L350.34 0.5 L350.34 0M352.83 0 L353.83 0 L353.83 0.5 L352.83 0.5 L352.83 0M355.32 0 L356.32 0 L356.32 0.5 L355.32 0.5 L355.32 0M357.81 0 L358.81 0 L358.81 0.5 L357.81 0.5 L357.81 0M360.3 0 L361.3 0 L361.3 0.5 L360.3 0.5 L360.3 0" fill="rgba(255,255,255,0)" stroke="rgba(255,255,255,0)" stroke-opacity="0" stroke-width="0"/><path d="M0 -0.02 L1.51 -0.02 L1.51 0.52 L0 0.52 L0 -0.02M363.79 -0.02 L365.3 -0.02 L365.3 0.52 L363.79 0.52 L363.79 -0.02M2.51 -0.02 L4 -0.02 L4 0.52 L2.51 0.52 L2.51 -0.02M5 -0.02 L6.49 -0.02 L6.49 0.52 L5 0.52 L5 -0.02M7.49 -0.02 L8.99 -0.02 L8.99 0.52 L7.49 0.52 L7.49 -0.02M9.98 -0.02 L11.48 -0.02 L11.48 0.52 L9.98 0.52 L9.98 -0.02M12.47 -0.02 L13.97 -0.02 L13.97 0.52 L12.47 0.52 L12.47 -0.02M14.97 -0.02 L16.46 -0.02 L16.46 0.52 L14.97 0.52 L14.97 -0.02M17.46 -0.02 L18.95 -0.02 L18.95 0.52 L17.46 0.52 L17.46 -0.02M19.95 -0.02 L21.44 -0.02 L21.44 0.52 L19.95 0.52 L19.95 -0.02M22.44 -0.02 L23.93 -0.02 L23.93 0.52 L22.44 0.52 L22.44 -0.02M24.93 -0.02 L26.43 -0.02 L26.43 0.52 L24.93 0.52 L24.93 -0.02M27.42 -0.02 L28.92 -0.02 L28.92 0.52 L27.42 0.52 L27.42 -0.02M29.91 -0.02 L31.41 -0.02 L31.41 0.52 L29.91 0.52 L29.91 -0.02M32.41 -0.02 L33.9 -0.02 L33.9 0.52 L32.41 0.52 L32.41 -0.02M34.9 -0.02 L36.39 -0.02 L36.39 0.52 L34.9 0.52 L34.9 -0.02M37.39 -0.02 L38.88 -0.02 L38.88 0.52 L37.39 0.52 L37.39 -0.02M39.88 -0.02 L41.38 -0.02 L41.38 0.52 L39.88 0.52 L39.88 -0.02M42.37 -0.02 L43.87 -0.02 L43.87 0.52 L42.37 0.52 L42.37 -0.02M44.86 -0.02 L46.36 -0.02 L46.36 0.52 L44.86 0.52 L44.86 -0.02M47.36 -0.02 L48.85 -0.02 L48.85 0.52 L47.36 0.52 L47.36 -0.02M49.85 -0.02 L51.34 -0.02 L51.34 0.52 L49.85 0.52 L49.85 -0.02M52.34 -0.02 L53.83 -0.02 L53.83 0.52 L52.34 0.52 L52.34 -0.02M54.83 -0.02 L56.33 -0.02 L56.33 0.52 L54.83 0.52 L54.83 -0.02M57.32 -0.02 L58.82 -0.02 L58.82 0.52 L57.32 0.52 L57.32 -0.02M59.81 -0.02 L61.31 -0.02 L61.31 0.52 L59.81 0.52 L59.81 -0.02M62.31 -0.02 L63.8 -0.02 L63.8 0.52 L62.31 0.52 L62.31 -0.02M64.8 -0.02 L66.29 -0.02 L66.29 0.52 L64.8 0.52 L64.8 -0.02M67.29 -0.02 L68.78 -0.02 L68.78 0.52 L67.29 0.52 L67.29 -0.02M69.78 -0.02 L71.28 -0.02 L71.28 0.52 L69.78 0.52 L69.78 -0.02M72.27 -0.02 L73.77 -0.02 L73.77 0.52 L72.27 0.52 L72.27 -0.02M74.76 -0.02 L76.26 -0.02 L76.26 0.52 L74.76 0.52 L74.76 -0.02M77.26 -0.02 L78.75 -0.02 L78.75 0.52 L77.26 0.52 L77.26 -0.02M79.75 -0.02 L81.24 -0.02 L81.24 0.52 L79.75 0.52 L79.75 -0.02M82.24 -0.02 L83.73 -0.02 L83.73 0.52 L82.24 0.52 L82.24 -0.02M84.73 -0.02 L86.23 -0.02 L86.23 0.52 L84.73 0.52 L84.73 -0.02M87.22 -0.02 L88.72 -0.02 L88.72 0.52 L87.22 0.52 L87.22 -0.02M89.71 -0.02 L91.21 -0.02 L91.21 0.52 L89.71 0.52 L89.71 -0.02M92.21 -0.02 L93.7 -0.02 L93.7 0.52 L92.21 0.52 L92.21 -0.02M94.7 -0.02 L96.19 -0.02 L96.19 0.52 L94.7 0.52 L94.7 -0.02M97.19 -0.02 L98.68 -0.02 L98.68 0.52 L97.19 0.52 L97.19 -0.02M99.68 -0.02 L101.18 -0.02 L101.18 0.52 L99.68 0.52 L99.68 -0.02M102.17 -0.02 L103.67 -0.02 L103.67 0.52 L102.17 0.52 L102.17 -0.02M104.66 -0.02 L106.16 -0.02 L106.16 0.52 L104.66 0.52 L104.66 -0.02M107.16 -0.02 L108.65 -0.02 L108.65 0.52 L107.16 0.52 L107.16 -0.02M109.65 -0.02 L111.14 -0.02 L111.14 0.52 L109.65 0.52 L109.65 -0.02M112.14 -0.02 L113.63 -0.02 L113.63 0.52 L112.14 0.52 L112.14 -0.02M114.63 -0.02 L116.12 -0.02 L116.12 0.52 L114.63 0.52 L114.63 -0.02M117.12 -0.02 L118.62 -0.02 L118.62 0.52 L117.12 0.52 L117.12 -0.02M119.61 -0.02 L121.11 -0.02 L121.11 0.52 L119.61 0.52 L119.61 -0.02M122.1 -0.02 L123.6 -0.02 L123.6 0.52 L122.1 0.52 L122.1 -0.02M124.6 -0.02 L126.09 -0.02 L126.09 0.52 L124.6 0.52 L124.6 -0.02M127.09 -0.02 L128.58 -0.02 L128.58 0.52 L127.09 0.52 L127.09 -0.02M129.58 -0.02 L131.07 -0.02 L131.07 0.52 L129.58 0.52 L129.58 -0.02M132.07 -0.02 L133.57 -0.02 L133.57 0.52 L132.07 0.52 L132.07 -0.02M134.56 -0.02 L136.06 -0.02 L136.06 0.52 L134.56 0.52 L134.56 -0.02M137.05 -0.02 L138.55 -0.02 L138.55 0.52 L137.05 0.52 L137.05 -0.02M139.55 -0.02 L141.04 -0.02 L141.04 0.52 L139.55 0.52 L139.55 -0.02M142.04 -0.02 L143.53 -0.02 L143.53 0.52 L142.04 0.52 L142.04 -0.02M144.53 -0.02 L146.02 -0.02 L146.02 0.52 L144.53 0.52 L144.53 -0.02M147.02 -0.02 L148.52 -0.02 L148.52 0.52 L147.02 0.52 L147.02 -0.02M149.51 -0.02 L151.01 -0.02 L151.01 0.52 L149.51 0.52 L149.51 -0.02M152 -0.02 L153.5 -0.02 L153.5 0.52 L152 0.52 L152 -0.02M154.5 -0.02 L155.99 -0.02 L155.99 0.52 L154.5 0.52 L154.5 -0.02M156.99 -0.02 L158.48 -0.02 L158.48 0.52 L156.99 0.52 L156.99 -0.02M159.48 -0.02 L160.97 -0.02 L160.97 0.52 L159.48 0.52 L159.48 -0.02M161.97 -0.02 L163.47 -0.02 L163.47 0.52 L161.97 0.52 L161.97 -0.02M164.46 -0.02 L165.96 -0.02 L165.96 0.52 L164.46 0.52 L164.46 -0.02M166.95 -0.02 L168.45 -0.02 L168.45 0.52 L166.95 0.52 L166.95 -0.02M169.45 -0.02 L170.94 -0.02 L170.94 0.52 L169.45 0.52 L169.45 -0.02M171.94 -0.02 L173.43 -0.02 L173.43 0.52 L171.94 0.52 L171.94 -0.02M174.43 -0.02 L175.92 -0.02 L175.92 0.52 L174.43 0.52 L174.43 -0.02M176.92 -0.02 L178.42 -0.02 L178.42 0.52 L176.92 0.52 L176.92 -0.02M179.41 -0.02 L180.91 -0.02 L180.91 0.52 L179.41 0.52 L179.41 -0.02M181.9 -0.02 L183.4 -0.02 L183.4 0.52 L181.9 0.52 L181.9 -0.02M184.4 -0.02 L185.89 -0.02 L185.89 0.52 L184.4 0.52 L184.4 -0.02M186.89 -0.02 L188.38 -0.02 L188.38 0.52 L186.89 0.52 L186.89 -0.02M189.38 -0.02 L190.87 -0.02 L190.87 0.52 L189.38 0.52 L189.38 -0.02M191.87 -0.02 L193.37 -0.02 L193.37 0.52 L191.87 0.52 L191.87 -0.02M194.36 -0.02 L195.86 -0.02 L195.86 0.52 L194.36 0.52 L194.36 -0.02M196.85 -0.02 L198.35 -0.02 L198.35 0.52 L196.85 0.52 L196.85 -0.02M199.35 -0.02 L200.84 -0.02 L200.84 0.52 L199.35 0.52 L199.35 -0.02M201.84 -0.02 L203.33 -0.02 L203.33 0.52 L201.84 0.52 L201.84 -0.02M204.33 -0.02 L205.82 -0.02 L205.82 0.52 L204.33 0.52 L204.33 -0.02M206.82 -0.02 L208.32 -0.02 L208.32 0.52 L206.82 0.52 L206.82 -0.02M209.31 -0.02 L210.81 -0.02 L210.81 0.52 L209.31 0.52 L209.31 -0.02M211.8 -0.02 L213.3 -0.02 L213.3 0.52 L211.8 0.52 L211.8 -0.02M214.29 -0.02 L215.79 -0.02 L215.79 0.52 L214.29 0.52 L214.29 -0.02M216.79 -0.02 L218.28 -0.02 L218.28 0.52 L216.79 0.52 L216.79 -0.02M219.28 -0.02 L220.77 -0.02 L220.77 0.52 L219.28 0.52 L219.28 -0.02M221.77 -0.02 L223.26 -0.02 L223.26 0.52 L221.77 0.52 L221.77 -0.02M224.26 -0.02 L225.76 -0.02 L225.76 0.52 L224.26 0.52 L224.26 -0.02M226.75 -0.02 L228.25 -0.02 L228.25 0.52 L226.75 0.52 L226.75 -0.02M229.24 -0.02 L230.74 -0.02 L230.74 0.52 L229.24 0.52 L229.24 -0.02M231.74 -0.02 L233.23 -0.02 L233.23 0.52 L231.74 0.52 L231.74 -0.02M234.23 -0.02 L235.72 -0.02 L235.72 0.52 L234.23 0.52 L234.23 -0.02M236.72 -0.02 L238.21 -0.02 L238.21 0.52 L236.72 0.52 L236.72 -0.02M239.21 -0.02 L240.71 -0.02 L240.71 0.52 L239.21 0.52 L239.21 -0.02M241.7 -0.02 L243.2 -0.02 L243.2 0.52 L241.7 0.52 L241.7 -0.02M244.19 -0.02 L245.69 -0.02 L245.69 0.52 L244.19 0.52 L244.19 -0.02M246.69 -0.02 L248.18 -0.02 L248.18 0.52 L246.69 0.52 L246.69 -0.02M249.18 -0.02 L250.67 -0.02 L250.67 0.52 L249.18 0.52 L249.18 -0.02M251.67 -0.02 L253.16 -0.02 L253.16 0.52 L251.67 0.52 L251.67 -0.02M254.16 -0.02 L255.66 -0.02 L255.66 0.52 L254.16 0.52 L254.16 -0.02M256.65 -0.02 L258.15 -0.02 L258.15 0.52 L256.65 0.52 L256.65 -0.02M259.14 -0.02 L260.64 -0.02 L260.64 0.52 L259.14 0.52 L259.14 -0.02M261.64 -0.02 L263.13 -0.02 L263.13 0.52 L261.64 0.52 L261.64 -0.02M264.13 -0.02 L265.62 -0.02 L265.62 0.52 L264.13 0.52 L264.13 -0.02M266.62 -0.02 L268.11 -0.02 L268.11 0.52 L266.62 0.52 L266.62 -0.02M269.11 -0.02 L270.61 -0.02 L270.61 0.52 L269.11 0.52 L269.11 -0.02M271.6 -0.02 L273.1 -0.02 L273.1 0.52 L271.6 0.52 L271.6 -0.02M274.09 -0.02 L275.59 -0.02 L275.59 0.52 L274.09 0.52 L274.09 -0.02M276.59 -0.02 L278.08 -0.02 L278.08 0.52 L276.59 0.52 L276.59 -0.02M279.08 -0.02 L280.57 -0.02 L280.57 0.52 L279.08 0.52 L279.08 -0.02M281.57 -0.02 L283.06 -0.02 L283.06 0.52 L281.57 0.52 L281.57 -0.02M284.06 -0.02 L285.56 -0.02 L285.56 0.52 L284.06 0.52 L284.06 -0.02M286.55 -0.02 L288.05 -0.02 L288.05 0.52 L286.55 0.52 L286.55 -0.02M289.04 -0.02 L290.54 -0.02 L290.54 0.52 L289.04 0.52 L289.04 -0.02M291.54 -0.02 L293.03 -0.02 L293.03 0.52 L291.54 0.52 L291.54 -0.02M294.03 -0.02 L295.52 -0.02 L295.52 0.52 L294.03 0.52 L294.03 -0.02M296.52 -0.02 L298.01 -0.02 L298.01 0.52 L296.52 0.52 L296.52 -0.02M299.01 -0.02 L300.51 -0.02 L300.51 0.52 L299.01 0.52 L299.01 -0.02M301.5 -0.02 L303 -0.02 L303 0.52 L301.5 0.52 L301.5 -0.02M303.99 -0.02 L305.49 -0.02 L305.49 0.52 L303.99 0.52 L303.99 -0.02M306.48 -0.02 L307.98 -0.02 L307.98 0.52 L306.48 0.52 L306.48 -0.02M308.98 -0.02 L310.47 -0.02 L310.47 0.52 L308.98 0.52 L308.98 -0.02M311.47 -0.02 L312.96 -0.02 L312.96 0.52 L311.47 0.52 L311.47 -0.02M313.96 -0.02 L315.45 -0.02 L315.45 0.52 L313.96 0.52 L313.96 -0.02M316.45 -0.02 L317.95 -0.02 L317.95 0.52 L316.45 0.52 L316.45 -0.02M318.94 -0.02 L320.44 -0.02 L320.44 0.52 L318.94 0.52 L318.94 -0.02M321.43 -0.02 L322.93 -0.02 L322.93 0.52 L321.43 0.52 L321.43 -0.02M323.93 -0.02 L325.42 -0.02 L325.42 0.52 L323.93 0.52 L323.93 -0.02M326.42 -0.02 L327.91 -0.02 L327.91 0.52 L326.42 0.52 L326.42 -0.02M328.91 -0.02 L330.4 -0.02 L330.4 0.52 L328.91 0.52 L328.91 -0.02M331.4 -0.02 L332.9 -0.02 L332.9 0.52 L331.4 0.52 L331.4 -0.02M333.89 -0.02 L335.39 -0.02 L335.39 0.52 L333.89 0.52 L333.89 -0.02M336.38 -0.02 L337.88 -0.02 L337.88 0.52 L336.38 0.52 L336.38 -0.02M338.88 -0.02 L340.37 -0.02 L340.37 0.52 L338.88 0.52 L338.88 -0.02M341.37 -0.02 L342.86 -0.02 L342.86 0.52 L341.37 0.52 L341.37 -0.02M343.86 -0.02 L345.35 -0.02 L345.35 0.52 L343.86 0.52 L343.86 -0.02M346.35 -0.02 L347.85 -0.02 L347.85 0.52 L346.35 0.52 L346.35 -0.02M348.84 -0.02 L350.34 -0.02 L350.34 0.52 L348.84 0.52 L348.84 -0.02M351.33 -0.02 L352.83 -0.02 L352.83 0.52 L351.33 0.52 L351.33 -0.02M353.83 -0.02 L355.32 -0.02 L355.32 0.52 L353.83 0.52 L353.83 -0.02M356.32 -0.02 L357.81 -0.02 L357.81 0.52 L356.32 0.52 L356.32 -0.02M358.81 -0.02 L360.3 -0.02 L360.3 0.52 L358.81 0.52 L358.81 -0.02M361.3 -0.02 L362.8 -0.02 L362.8 0.52 L361.3 0.52 L361.3 -0.02" fill="#3D4B52" stroke="#3D4B52" stroke-opacity="1" stroke-width="0"/></svg>