<?xml version="1.0" encoding="utf-8" standalone="no"?>

<svg height="1.00px" version="1.1" width="581.00px" xmlns="http://www.w3.org/2000/svg"><path d="M1.51 0 L2.51 0 L2.51 0.5 L1.51 0.5 L1.51 0M578.79 0.5 L577.79 0.5 L577.79 0 L578.79 0 L578.79 0.5M4.01 0 L5.01 0 L5.01 0.5 L4.01 0.5 L4.01 0M6.5 0 L7.5 0 L7.5 0.5 L6.5 0.5 L6.5 0M9 0 L10 0 L10 0.5 L9 0.5 L9 0M11.49 0 L12.49 0 L12.49 0.5 L11.49 0.5 L11.49 0M13.99 0 L14.99 0 L14.99 0.5 L13.99 0.5 L13.99 0M16.48 0 L17.48 0 L17.48 0.5 L16.48 0.5 L16.48 0M18.98 0 L19.97 0 L19.97 0.5 L18.98 0.5 L18.98 0M21.47 0 L22.47 0 L22.47 0.5 L21.47 0.5 L21.47 0M23.97 0 L24.96 0 L24.96 0.5 L23.97 0.5 L23.97 0M26.46 0 L27.46 0 L27.46 0.5 L26.46 0.5 L26.46 0M28.96 0 L29.95 0 L29.95 0.5 L28.96 0.5 L28.96 0M31.45 0 L32.45 0 L32.45 0.5 L31.45 0.5 L31.45 0M33.95 0 L34.94 0 L34.94 0.5 L33.95 0.5 L33.95 0M36.44 0 L37.44 0 L37.44 0.5 L36.44 0.5 L36.44 0M38.93 0 L39.93 0 L39.93 0.5 L38.93 0.5 L38.93 0M41.43 0 L42.43 0 L42.43 0.5 L41.43 0.5 L41.43 0M43.92 0 L44.92 0 L44.92 0.5 L43.92 0.5 L43.92 0M46.42 0 L47.42 0 L47.42 0.5 L46.42 0.5 L46.42 0M48.91 0 L49.91 0 L49.91 0.5 L48.91 0.5 L48.91 0M51.41 0 L52.41 0 L52.41 0.5 L51.41 0.5 L51.41 0M53.9 0 L54.9 0 L54.9 0.5 L53.9 0.5 L53.9 0M56.4 0 L57.4 0 L57.4 0.5 L56.4 0.5 L56.4 0M58.89 0 L59.89 0 L59.89 0.5 L58.89 0.5 L58.89 0M61.39 0 L62.38 0 L62.38 0.5 L61.39 0.5 L61.39 0M63.88 0 L64.88 0 L64.88 0.5 L63.88 0.5 L63.88 0M66.38 0 L67.37 0 L67.37 0.5 L66.38 0.5 L66.38 0M68.87 0 L69.87 0 L69.87 0.5 L68.87 0.5 L68.87 0M71.37 0 L72.36 0 L72.36 0.5 L71.37 0.5 L71.37 0M73.86 0 L74.86 0 L74.86 0.5 L73.86 0.5 L73.86 0M76.36 0 L77.35 0 L77.35 0.5 L76.36 0.5 L76.36 0M78.85 0 L79.85 0 L79.85 0.5 L78.85 0.5 L78.85 0M81.34 0 L82.34 0 L82.34 0.5 L81.34 0.5 L81.34 0M83.84 0 L84.84 0 L84.84 0.5 L83.84 0.5 L83.84 0M86.33 0 L87.33 0 L87.33 0.5 L86.33 0.5 L86.33 0M88.83 0 L89.83 0 L89.83 0.5 L88.83 0.5 L88.83 0M91.32 0 L92.32 0 L92.32 0.5 L91.32 0.5 L91.32 0M93.82 0 L94.82 0 L94.82 0.5 L93.82 0.5 L93.82 0M96.31 0 L97.31 0 L97.31 0.5 L96.31 0.5 L96.31 0M98.81 0 L99.81 0 L99.81 0.5 L98.81 0.5 L98.81 0M101.3 0 L102.3 0 L102.3 0.5 L101.3 0.5 L101.3 0M103.8 0 L104.8 0 L104.8 0.5 L103.8 0.5 L103.8 0M106.29 0 L107.29 0 L107.29 0.5 L106.29 0.5 L106.29 0M108.79 0 L109.78 0 L109.78 0.5 L108.79 0.5 L108.79 0M111.28 0 L112.28 0 L112.28 0.5 L111.28 0.5 L111.28 0M113.78 0 L114.77 0 L114.77 0.5 L113.78 0.5 L113.78 0M116.27 0 L117.27 0 L117.27 0.5 L116.27 0.5 L116.27 0M118.77 0 L119.76 0 L119.76 0.5 L118.77 0.5 L118.77 0M121.26 0 L122.26 0 L122.26 0.5 L121.26 0.5 L121.26 0M123.76 0 L124.75 0 L124.75 0.5 L123.76 0.5 L123.76 0M126.25 0 L127.25 0 L127.25 0.5 L126.25 0.5 L126.25 0M128.74 0 L129.74 0 L129.74 0.5 L128.74 0.5 L128.74 0M131.24 0 L132.24 0 L132.24 0.5 L131.24 0.5 L131.24 0M133.73 0 L134.73 0 L134.73 0.5 L133.73 0.5 L133.73 0M136.23 0 L137.23 0 L137.23 0.5 L136.23 0.5 L136.23 0M138.72 0 L139.72 0 L139.72 0.5 L138.72 0.5 L138.72 0M141.22 0 L142.22 0 L142.22 0.5 L141.22 0.5 L141.22 0M143.71 0 L144.71 0 L144.71 0.5 L143.71 0.5 L143.71 0M146.21 0 L147.21 0 L147.21 0.5 L146.21 0.5 L146.21 0M148.7 0 L149.7 0 L149.7 0.5 L148.7 0.5 L148.7 0M151.2 0 L152.19 0 L152.19 0.5 L151.2 0.5 L151.2 0M153.69 0 L154.69 0 L154.69 0.5 L153.69 0.5 L153.69 0M156.19 0 L157.18 0 L157.18 0.5 L156.19 0.5 L156.19 0M158.68 0 L159.68 0 L159.68 0.5 L158.68 0.5 L158.68 0M161.18 0 L162.17 0 L162.17 0.5 L161.18 0.5 L161.18 0M163.67 0 L164.67 0 L164.67 0.5 L163.67 0.5 L163.67 0M166.17 0 L167.16 0 L167.16 0.5 L166.17 0.5 L166.17 0M168.66 0 L169.66 0 L169.66 0.5 L168.66 0.5 L168.66 0M171.15 0 L172.15 0 L172.15 0.5 L171.15 0.5 L171.15 0M173.65 0 L174.65 0 L174.65 0.5 L173.65 0.5 L173.65 0M176.14 0 L177.14 0 L177.14 0.5 L176.14 0.5 L176.14 0M178.64 0 L179.64 0 L179.64 0.5 L178.64 0.5 L178.64 0M181.13 0 L182.13 0 L182.13 0.5 L181.13 0.5 L181.13 0M183.63 0 L184.63 0 L184.63 0.5 L183.63 0.5 L183.63 0M186.12 0 L187.12 0 L187.12 0.5 L186.12 0.5 L186.12 0M188.62 0 L189.62 0 L189.62 0.5 L188.62 0.5 L188.62 0M191.11 0 L192.11 0 L192.11 0.5 L191.11 0.5 L191.11 0M193.61 0 L194.61 0 L194.61 0.5 L193.61 0.5 L193.61 0M196.1 0 L197.1 0 L197.1 0.5 L196.1 0.5 L196.1 0M198.6 0 L199.59 0 L199.59 0.5 L198.6 0.5 L198.6 0M201.09 0 L202.09 0 L202.09 0.5 L201.09 0.5 L201.09 0M203.59 0 L204.58 0 L204.58 0.5 L203.59 0.5 L203.59 0M206.08 0 L207.08 0 L207.08 0.5 L206.08 0.5 L206.08 0M208.58 0 L209.57 0 L209.57 0.5 L208.58 0.5 L208.58 0M211.07 0 L212.07 0 L212.07 0.5 L211.07 0.5 L211.07 0M213.57 0 L214.56 0 L214.56 0.5 L213.57 0.5 L213.57 0M216.06 0 L217.06 0 L217.06 0.5 L216.06 0.5 L216.06 0M218.55 0 L219.55 0 L219.55 0.5 L218.55 0.5 L218.55 0M221.05 0 L222.05 0 L222.05 0.5 L221.05 0.5 L221.05 0M223.54 0 L224.54 0 L224.54 0.5 L223.54 0.5 L223.54 0M226.04 0 L227.04 0 L227.04 0.5 L226.04 0.5 L226.04 0M228.53 0 L229.53 0 L229.53 0.5 L228.53 0.5 L228.53 0M231.03 0 L232.03 0 L232.03 0.5 L231.03 0.5 L231.03 0M233.52 0 L234.52 0 L234.52 0.5 L233.52 0.5 L233.52 0M236.02 0 L237.02 0 L237.02 0.5 L236.02 0.5 L236.02 0M238.51 0 L239.51 0 L239.51 0.5 L238.51 0.5 L238.51 0M241.01 0 L242 0 L242 0.5 L241.01 0.5 L241.01 0M243.5 0 L244.5 0 L244.5 0.5 L243.5 0.5 L243.5 0M246 0 L246.99 0 L246.99 0.5 L246 0.5 L246 0M248.49 0 L249.49 0 L249.49 0.5 L248.49 0.5 L248.49 0M250.99 0 L251.98 0 L251.98 0.5 L250.99 0.5 L250.99 0M253.48 0 L254.48 0 L254.48 0.5 L253.48 0.5 L253.48 0M255.98 0 L256.97 0 L256.97 0.5 L255.98 0.5 L255.98 0M258.47 0 L259.47 0 L259.47 0.5 L258.47 0.5 L258.47 0M260.96 0 L261.96 0 L261.96 0.5 L260.96 0.5 L260.96 0M263.46 0 L264.46 0 L264.46 0.5 L263.46 0.5 L263.46 0M265.95 0 L266.95 0 L266.95 0.5 L265.95 0.5 L265.95 0M268.45 0 L269.45 0 L269.45 0.5 L268.45 0.5 L268.45 0M270.94 0 L271.94 0 L271.94 0.5 L270.94 0.5 L270.94 0M273.44 0 L274.44 0 L274.44 0.5 L273.44 0.5 L273.44 0M275.93 0 L276.93 0 L276.93 0.5 L275.93 0.5 L275.93 0M278.43 0 L279.43 0 L279.43 0.5 L278.43 0.5 L278.43 0M280.92 0 L281.92 0 L281.92 0.5 L280.92 0.5 L280.92 0M283.42 0 L284.42 0 L284.42 0.5 L283.42 0.5 L283.42 0M285.91 0 L286.91 0 L286.91 0.5 L285.91 0.5 L285.91 0M288.41 0 L289.4 0 L289.4 0.5 L288.41 0.5 L288.41 0M290.9 0 L291.9 0 L291.9 0.5 L290.9 0.5 L290.9 0M293.4 0 L294.39 0 L294.39 0.5 L293.4 0.5 L293.4 0M295.89 0 L296.89 0 L296.89 0.5 L295.89 0.5 L295.89 0M298.39 0 L299.38 0 L299.38 0.5 L298.39 0.5 L298.39 0M300.88 0 L301.88 0 L301.88 0.5 L300.88 0.5 L300.88 0M303.37 0 L304.37 0 L304.37 0.5 L303.37 0.5 L303.37 0M305.87 0 L306.87 0 L306.87 0.5 L305.87 0.5 L305.87 0M308.36 0 L309.36 0 L309.36 0.5 L308.36 0.5 L308.36 0M310.86 0 L311.86 0 L311.86 0.5 L310.86 0.5 L310.86 0M313.35 0 L314.35 0 L314.35 0.5 L313.35 0.5 L313.35 0M315.85 0 L316.85 0 L316.85 0.5 L315.85 0.5 L315.85 0M318.34 0 L319.34 0 L319.34 0.5 L318.34 0.5 L318.34 0M320.84 0 L321.84 0 L321.84 0.5 L320.84 0.5 L320.84 0M323.33 0 L324.33 0 L324.33 0.5 L323.33 0.5 L323.33 0M325.83 0 L326.83 0 L326.83 0.5 L325.83 0.5 L325.83 0M328.32 0 L329.32 0 L329.32 0.5 L328.32 0.5 L328.32 0M330.82 0 L331.81 0 L331.81 0.5 L330.82 0.5 L330.82 0M333.31 0 L334.31 0 L334.31 0.5 L333.31 0.5 L333.31 0M335.81 0 L336.8 0 L336.8 0.5 L335.81 0.5 L335.81 0M338.3 0 L339.3 0 L339.3 0.5 L338.3 0.5 L338.3 0M340.8 0 L341.79 0 L341.79 0.5 L340.8 0.5 L340.8 0M343.29 0 L344.29 0 L344.29 0.5 L343.29 0.5 L343.29 0M345.79 0 L346.78 0 L346.78 0.5 L345.79 0.5 L345.79 0M348.28 0 L349.28 0 L349.28 0.5 L348.28 0.5 L348.28 0M350.77 0 L351.77 0 L351.77 0.5 L350.77 0.5 L350.77 0M353.27 0 L354.27 0 L354.27 0.5 L353.27 0.5 L353.27 0M355.76 0 L356.76 0 L356.76 0.5 L355.76 0.5 L355.76 0M358.26 0 L359.26 0 L359.26 0.5 L358.26 0.5 L358.26 0M360.75 0 L361.75 0 L361.75 0.5 L360.75 0.5 L360.75 0M363.25 0 L364.25 0 L364.25 0.5 L363.25 0.5 L363.25 0M365.74 0 L366.74 0 L366.74 0.5 L365.74 0.5 L365.74 0M368.24 0 L369.24 0 L369.24 0.5 L368.24 0.5 L368.24 0M370.73 0 L371.73 0 L371.73 0.5 L370.73 0.5 L370.73 0M373.23 0 L374.22 0 L374.22 0.5 L373.23 0.5 L373.23 0M375.72 0 L376.72 0 L376.72 0.5 L375.72 0.5 L375.72 0M378.22 0 L379.21 0 L379.21 0.5 L378.22 0.5 L378.22 0M380.71 0 L381.71 0 L381.71 0.5 L380.71 0.5 L380.71 0M383.21 0 L384.2 0 L384.2 0.5 L383.21 0.5 L383.21 0M385.7 0 L386.7 0 L386.7 0.5 L385.7 0.5 L385.7 0M388.2 0 L389.19 0 L389.19 0.5 L388.2 0.5 L388.2 0M390.69 0 L391.69 0 L391.69 0.5 L390.69 0.5 L390.69 0M393.18 0 L394.18 0 L394.18 0.5 L393.18 0.5 L393.18 0M395.68 0 L396.68 0 L396.68 0.5 L395.68 0.5 L395.68 0M398.17 0 L399.17 0 L399.17 0.5 L398.17 0.5 L398.17 0M400.67 0 L401.67 0 L401.67 0.5 L400.67 0.5 L400.67 0M403.16 0 L404.16 0 L404.16 0.5 L403.16 0.5 L403.16 0M405.66 0 L406.66 0 L406.66 0.5 L405.66 0.5 L405.66 0M408.15 0 L409.15 0 L409.15 0.5 L408.15 0.5 L408.15 0M410.65 0 L411.65 0 L411.65 0.5 L410.65 0.5 L410.65 0M413.14 0 L414.14 0 L414.14 0.5 L413.14 0.5 L413.14 0M415.64 0 L416.64 0 L416.64 0.5 L415.64 0.5 L415.64 0M418.13 0 L419.13 0 L419.13 0.5 L418.13 0.5 L418.13 0M420.63 0 L421.62 0 L421.62 0.5 L420.63 0.5 L420.63 0M423.12 0 L424.12 0 L424.12 0.5 L423.12 0.5 L423.12 0M425.62 0 L426.61 0 L426.61 0.5 L425.62 0.5 L425.62 0M428.11 0 L429.11 0 L429.11 0.5 L428.11 0.5 L428.11 0M430.61 0 L431.6 0 L431.6 0.5 L430.61 0.5 L430.61 0M433.1 0 L434.1 0 L434.1 0.5 L433.1 0.5 L433.1 0M435.6 0 L436.59 0 L436.59 0.5 L435.6 0.5 L435.6 0M438.09 0 L439.09 0 L439.09 0.5 L438.09 0.5 L438.09 0M440.58 0 L441.58 0 L441.58 0.5 L440.58 0.5 L440.58 0M443.08 0 L444.08 0 L444.08 0.5 L443.08 0.5 L443.08 0M445.57 0 L446.57 0 L446.57 0.5 L445.57 0.5 L445.57 0M448.07 0 L449.07 0 L449.07 0.5 L448.07 0.5 L448.07 0M450.56 0 L451.56 0 L451.56 0.5 L450.56 0.5 L450.56 0M453.06 0 L454.06 0 L454.06 0.5 L453.06 0.5 L453.06 0M455.55 0 L456.55 0 L456.55 0.5 L455.55 0.5 L455.55 0M458.05 0 L459.05 0 L459.05 0.5 L458.05 0.5 L458.05 0M460.54 0 L461.54 0 L461.54 0.5 L460.54 0.5 L460.54 0M463.04 0 L464.03 0 L464.03 0.5 L463.04 0.5 L463.04 0M465.53 0 L466.53 0 L466.53 0.5 L465.53 0.5 L465.53 0M468.03 0 L469.02 0 L469.02 0.5 L468.03 0.5 L468.03 0M470.52 0 L471.52 0 L471.52 0.5 L470.52 0.5 L470.52 0M473.02 0 L474.01 0 L474.01 0.5 L473.02 0.5 L473.02 0M475.51 0 L476.51 0 L476.51 0.5 L475.51 0.5 L475.51 0M478.01 0 L479 0 L479 0.5 L478.01 0.5 L478.01 0M480.5 0 L481.5 0 L481.5 0.5 L480.5 0.5 L480.5 0M482.99 0 L483.99 0 L483.99 0.5 L482.99 0.5 L482.99 0M485.49 0 L486.49 0 L486.49 0.5 L485.49 0.5 L485.49 0M487.98 0 L488.98 0 L488.98 0.5 L487.98 0.5 L487.98 0M490.48 0 L491.48 0 L491.48 0.5 L490.48 0.5 L490.48 0M492.97 0 L493.97 0 L493.97 0.5 L492.97 0.5 L492.97 0M495.47 0 L496.47 0 L496.47 0.5 L495.47 0.5 L495.47 0M497.96 0 L498.96 0 L498.96 0.5 L497.96 0.5 L497.96 0M500.46 0 L501.46 0 L501.46 0.5 L500.46 0.5 L500.46 0M502.95 0 L503.95 0 L503.95 0.5 L502.95 0.5 L502.95 0M505.45 0 L506.45 0 L506.45 0.5 L505.45 0.5 L505.45 0M507.94 0 L508.94 0 L508.94 0.5 L507.94 0.5 L507.94 0M510.44 0 L511.43 0 L511.43 0.5 L510.44 0.5 L510.44 0M512.93 0 L513.93 0 L513.93 0.5 L512.93 0.5 L512.93 0M515.43 0 L516.42 0 L516.42 0.5 L515.43 0.5 L515.43 0M517.92 0 L518.92 0 L518.92 0.5 L517.92 0.5 L517.92 0M520.42 0 L521.41 0 L521.41 0.5 L520.42 0.5 L520.42 0M522.91 0 L523.91 0 L523.91 0.5 L522.91 0.5 L522.91 0M525.41 0 L526.4 0 L526.4 0.5 L525.41 0.5 L525.41 0M527.9 0 L528.9 0 L528.9 0.5 L527.9 0.5 L527.9 0M530.39 0 L531.39 0 L531.39 0.5 L530.39 0.5 L530.39 0M532.89 0 L533.89 0 L533.89 0.5 L532.89 0.5 L532.89 0M535.38 0 L536.38 0 L536.38 0.5 L535.38 0.5 L535.38 0M537.88 0 L538.88 0 L538.88 0.5 L537.88 0.5 L537.88 0M540.37 0 L541.37 0 L541.37 0.5 L540.37 0.5 L540.37 0M542.87 0 L543.87 0 L543.87 0.5 L542.87 0.5 L542.87 0M545.36 0 L546.36 0 L546.36 0.5 L545.36 0.5 L545.36 0M547.86 0 L548.86 0 L548.86 0.5 L547.86 0.5 L547.86 0M550.35 0 L551.35 0 L551.35 0.5 L550.35 0.5 L550.35 0M552.85 0 L553.84 0 L553.84 0.5 L552.85 0.5 L552.85 0M555.34 0 L556.34 0 L556.34 0.5 L555.34 0.5 L555.34 0M557.84 0 L558.83 0 L558.83 0.5 L557.84 0.5 L557.84 0M560.33 0 L561.33 0 L561.33 0.5 L560.33 0.5 L560.33 0M562.83 0 L563.82 0 L563.82 0.5 L562.83 0.5 L562.83 0M565.32 0 L566.32 0 L566.32 0.5 L565.32 0.5 L565.32 0M567.82 0 L568.81 0 L568.81 0.5 L567.82 0.5 L567.82 0M570.31 0 L571.31 0 L571.31 0.5 L570.31 0.5 L570.31 0M572.8 0 L573.8 0 L573.8 0.5 L572.8 0.5 L572.8 0M575.3 0 L576.3 0 L576.3 0.5 L575.3 0.5 L575.3 0" fill="rgba(255,255,255,0)" stroke="rgba(255,255,255,0)" stroke-opacity="0" stroke-width="0"/><path d="M0 -0.02 L1.51 -0.02 L1.51 0.52 L0 0.52 L0 -0.02M578.79 -0.02 L580.3 -0.02 L580.3 0.52 L578.79 0.52 L578.79 -0.02M2.51 -0.02 L4.01 -0.02 L4.01 0.52 L2.51 0.52 L2.51 -0.02M5.01 -0.02 L6.5 -0.02 L6.5 0.52 L5.01 0.52 L5.01 -0.02M7.5 -0.02 L9 -0.02 L9 0.52 L7.5 0.52 L7.5 -0.02M10 -0.02 L11.49 -0.02 L11.49 0.52 L10 0.52 L10 -0.02M12.49 -0.02 L13.99 -0.02 L13.99 0.52 L12.49 0.52 L12.49 -0.02M14.99 -0.02 L16.48 -0.02 L16.48 0.52 L14.99 0.52 L14.99 -0.02M17.48 -0.02 L18.98 -0.02 L18.98 0.52 L17.48 0.52 L17.48 -0.02M19.97 -0.02 L21.47 -0.02 L21.47 0.52 L19.97 0.52 L19.97 -0.02M22.47 -0.02 L23.97 -0.02 L23.97 0.52 L22.47 0.52 L22.47 -0.02M24.96 -0.02 L26.46 -0.02 L26.46 0.52 L24.96 0.52 L24.96 -0.02M27.46 -0.02 L28.96 -0.02 L28.96 0.52 L27.46 0.52 L27.46 -0.02M29.95 -0.02 L31.45 -0.02 L31.45 0.52 L29.95 0.52 L29.95 -0.02M32.45 -0.02 L33.95 -0.02 L33.95 0.52 L32.45 0.52 L32.45 -0.02M34.94 -0.02 L36.44 -0.02 L36.44 0.52 L34.94 0.52 L34.94 -0.02M37.44 -0.02 L38.93 -0.02 L38.93 0.52 L37.44 0.52 L37.44 -0.02M39.93 -0.02 L41.43 -0.02 L41.43 0.52 L39.93 0.52 L39.93 -0.02M42.43 -0.02 L43.92 -0.02 L43.92 0.52 L42.43 0.52 L42.43 -0.02M44.92 -0.02 L46.42 -0.02 L46.42 0.52 L44.92 0.52 L44.92 -0.02M47.42 -0.02 L48.91 -0.02 L48.91 0.52 L47.42 0.52 L47.42 -0.02M49.91 -0.02 L51.41 -0.02 L51.41 0.52 L49.91 0.52 L49.91 -0.02M52.41 -0.02 L53.9 -0.02 L53.9 0.52 L52.41 0.52 L52.41 -0.02M54.9 -0.02 L56.4 -0.02 L56.4 0.52 L54.9 0.52 L54.9 -0.02M57.4 -0.02 L58.89 -0.02 L58.89 0.52 L57.4 0.52 L57.4 -0.02M59.89 -0.02 L61.39 -0.02 L61.39 0.52 L59.89 0.52 L59.89 -0.02M62.38 -0.02 L63.88 -0.02 L63.88 0.52 L62.38 0.52 L62.38 -0.02M64.88 -0.02 L66.38 -0.02 L66.38 0.52 L64.88 0.52 L64.88 -0.02M67.37 -0.02 L68.87 -0.02 L68.87 0.52 L67.37 0.52 L67.37 -0.02M69.87 -0.02 L71.37 -0.02 L71.37 0.52 L69.87 0.52 L69.87 -0.02M72.36 -0.02 L73.86 -0.02 L73.86 0.52 L72.36 0.52 L72.36 -0.02M74.86 -0.02 L76.36 -0.02 L76.36 0.52 L74.86 0.52 L74.86 -0.02M77.35 -0.02 L78.85 -0.02 L78.85 0.52 L77.35 0.52 L77.35 -0.02M79.85 -0.02 L81.34 -0.02 L81.34 0.52 L79.85 0.52 L79.85 -0.02M82.34 -0.02 L83.84 -0.02 L83.84 0.52 L82.34 0.52 L82.34 -0.02M84.84 -0.02 L86.33 -0.02 L86.33 0.52 L84.84 0.52 L84.84 -0.02M87.33 -0.02 L88.83 -0.02 L88.83 0.52 L87.33 0.52 L87.33 -0.02M89.83 -0.02 L91.32 -0.02 L91.32 0.52 L89.83 0.52 L89.83 -0.02M92.32 -0.02 L93.82 -0.02 L93.82 0.52 L92.32 0.52 L92.32 -0.02M94.82 -0.02 L96.31 -0.02 L96.31 0.52 L94.82 0.52 L94.82 -0.02M97.31 -0.02 L98.81 -0.02 L98.81 0.52 L97.31 0.52 L97.31 -0.02M99.81 -0.02 L101.3 -0.02 L101.3 0.52 L99.81 0.52 L99.81 -0.02M102.3 -0.02 L103.8 -0.02 L103.8 0.52 L102.3 0.52 L102.3 -0.02M104.8 -0.02 L106.29 -0.02 L106.29 0.52 L104.8 0.52 L104.8 -0.02M107.29 -0.02 L108.79 -0.02 L108.79 0.52 L107.29 0.52 L107.29 -0.02M109.78 -0.02 L111.28 -0.02 L111.28 0.52 L109.78 0.52 L109.78 -0.02M112.28 -0.02 L113.78 -0.02 L113.78 0.52 L112.28 0.52 L112.28 -0.02M114.77 -0.02 L116.27 -0.02 L116.27 0.52 L114.77 0.52 L114.77 -0.02M117.27 -0.02 L118.77 -0.02 L118.77 0.52 L117.27 0.52 L117.27 -0.02M119.76 -0.02 L121.26 -0.02 L121.26 0.52 L119.76 0.52 L119.76 -0.02M122.26 -0.02 L123.76 -0.02 L123.76 0.52 L122.26 0.52 L122.26 -0.02M124.75 -0.02 L126.25 -0.02 L126.25 0.52 L124.75 0.52 L124.75 -0.02M127.25 -0.02 L128.74 -0.02 L128.74 0.52 L127.25 0.52 L127.25 -0.02M129.74 -0.02 L131.24 -0.02 L131.24 0.52 L129.74 0.52 L129.74 -0.02M132.24 -0.02 L133.73 -0.02 L133.73 0.52 L132.24 0.52 L132.24 -0.02M134.73 -0.02 L136.23 -0.02 L136.23 0.52 L134.73 0.52 L134.73 -0.02M137.23 -0.02 L138.72 -0.02 L138.72 0.52 L137.23 0.52 L137.23 -0.02M139.72 -0.02 L141.22 -0.02 L141.22 0.52 L139.72 0.52 L139.72 -0.02M142.22 -0.02 L143.71 -0.02 L143.71 0.52 L142.22 0.52 L142.22 -0.02M144.71 -0.02 L146.21 -0.02 L146.21 0.52 L144.71 0.52 L144.71 -0.02M147.21 -0.02 L148.7 -0.02 L148.7 0.52 L147.21 0.52 L147.21 -0.02M149.7 -0.02 L151.2 -0.02 L151.2 0.52 L149.7 0.52 L149.7 -0.02M152.19 -0.02 L153.69 -0.02 L153.69 0.52 L152.19 0.52 L152.19 -0.02M154.69 -0.02 L156.19 -0.02 L156.19 0.52 L154.69 0.52 L154.69 -0.02M157.18 -0.02 L158.68 -0.02 L158.68 0.52 L157.18 0.52 L157.18 -0.02M159.68 -0.02 L161.18 -0.02 L161.18 0.52 L159.68 0.52 L159.68 -0.02M162.17 -0.02 L163.67 -0.02 L163.67 0.52 L162.17 0.52 L162.17 -0.02M164.67 -0.02 L166.17 -0.02 L166.17 0.52 L164.67 0.52 L164.67 -0.02M167.16 -0.02 L168.66 -0.02 L168.66 0.52 L167.16 0.52 L167.16 -0.02M169.66 -0.02 L171.15 -0.02 L171.15 0.52 L169.66 0.52 L169.66 -0.02M172.15 -0.02 L173.65 -0.02 L173.65 0.52 L172.15 0.52 L172.15 -0.02M174.65 -0.02 L176.14 -0.02 L176.14 0.52 L174.65 0.52 L174.65 -0.02M177.14 -0.02 L178.64 -0.02 L178.64 0.52 L177.14 0.52 L177.14 -0.02M179.64 -0.02 L181.13 -0.02 L181.13 0.52 L179.64 0.52 L179.64 -0.02M182.13 -0.02 L183.63 -0.02 L183.63 0.52 L182.13 0.52 L182.13 -0.02M184.63 -0.02 L186.12 -0.02 L186.12 0.52 L184.63 0.52 L184.63 -0.02M187.12 -0.02 L188.62 -0.02 L188.62 0.52 L187.12 0.52 L187.12 -0.02M189.62 -0.02 L191.11 -0.02 L191.11 0.52 L189.62 0.52 L189.62 -0.02M192.11 -0.02 L193.61 -0.02 L193.61 0.52 L192.11 0.52 L192.11 -0.02M194.61 -0.02 L196.1 -0.02 L196.1 0.52 L194.61 0.52 L194.61 -0.02M197.1 -0.02 L198.6 -0.02 L198.6 0.52 L197.1 0.52 L197.1 -0.02M199.59 -0.02 L201.09 -0.02 L201.09 0.52 L199.59 0.52 L199.59 -0.02M202.09 -0.02 L203.59 -0.02 L203.59 0.52 L202.09 0.52 L202.09 -0.02M204.58 -0.02 L206.08 -0.02 L206.08 0.52 L204.58 0.52 L204.58 -0.02M207.08 -0.02 L208.58 -0.02 L208.58 0.52 L207.08 0.52 L207.08 -0.02M209.57 -0.02 L211.07 -0.02 L211.07 0.52 L209.57 0.52 L209.57 -0.02M212.07 -0.02 L213.57 -0.02 L213.57 0.52 L212.07 0.52 L212.07 -0.02M214.56 -0.02 L216.06 -0.02 L216.06 0.52 L214.56 0.52 L214.56 -0.02M217.06 -0.02 L218.55 -0.02 L218.55 0.52 L217.06 0.52 L217.06 -0.02M219.55 -0.02 L221.05 -0.02 L221.05 0.52 L219.55 0.52 L219.55 -0.02M222.05 -0.02 L223.54 -0.02 L223.54 0.52 L222.05 0.52 L222.05 -0.02M224.54 -0.02 L226.04 -0.02 L226.04 0.52 L224.54 0.52 L224.54 -0.02M227.04 -0.02 L228.53 -0.02 L228.53 0.52 L227.04 0.52 L227.04 -0.02M229.53 -0.02 L231.03 -0.02 L231.03 0.52 L229.53 0.52 L229.53 -0.02M232.03 -0.02 L233.52 -0.02 L233.52 0.52 L232.03 0.52 L232.03 -0.02M234.52 -0.02 L236.02 -0.02 L236.02 0.52 L234.52 0.52 L234.52 -0.02M237.02 -0.02 L238.51 -0.02 L238.51 0.52 L237.02 0.52 L237.02 -0.02M239.51 -0.02 L241.01 -0.02 L241.01 0.52 L239.51 0.52 L239.51 -0.02M242 -0.02 L243.5 -0.02 L243.5 0.52 L242 0.52 L242 -0.02M244.5 -0.02 L246 -0.02 L246 0.52 L244.5 0.52 L244.5 -0.02M246.99 -0.02 L248.49 -0.02 L248.49 0.52 L246.99 0.52 L246.99 -0.02M249.49 -0.02 L250.99 -0.02 L250.99 0.52 L249.49 0.52 L249.49 -0.02M251.98 -0.02 L253.48 -0.02 L253.48 0.52 L251.98 0.52 L251.98 -0.02M254.48 -0.02 L255.98 -0.02 L255.98 0.52 L254.48 0.52 L254.48 -0.02M256.97 -0.02 L258.47 -0.02 L258.47 0.52 L256.97 0.52 L256.97 -0.02M259.47 -0.02 L260.96 -0.02 L260.96 0.52 L259.47 0.52 L259.47 -0.02M261.96 -0.02 L263.46 -0.02 L263.46 0.52 L261.96 0.52 L261.96 -0.02M264.46 -0.02 L265.95 -0.02 L265.95 0.52 L264.46 0.52 L264.46 -0.02M266.95 -0.02 L268.45 -0.02 L268.45 0.52 L266.95 0.52 L266.95 -0.02M269.45 -0.02 L270.94 -0.02 L270.94 0.52 L269.45 0.52 L269.45 -0.02M271.94 -0.02 L273.44 -0.02 L273.44 0.52 L271.94 0.52 L271.94 -0.02M274.44 -0.02 L275.93 -0.02 L275.93 0.52 L274.44 0.52 L274.44 -0.02M276.93 -0.02 L278.43 -0.02 L278.43 0.52 L276.93 0.52 L276.93 -0.02M279.43 -0.02 L280.92 -0.02 L280.92 0.52 L279.43 0.52 L279.43 -0.02M281.92 -0.02 L283.42 -0.02 L283.42 0.52 L281.92 0.52 L281.92 -0.02M284.42 -0.02 L285.91 -0.02 L285.91 0.52 L284.42 0.52 L284.42 -0.02M286.91 -0.02 L288.41 -0.02 L288.41 0.52 L286.91 0.52 L286.91 -0.02M289.4 -0.02 L290.9 -0.02 L290.9 0.52 L289.4 0.52 L289.4 -0.02M291.9 -0.02 L293.4 -0.02 L293.4 0.52 L291.9 0.52 L291.9 -0.02M294.39 -0.02 L295.89 -0.02 L295.89 0.52 L294.39 0.52 L294.39 -0.02M296.89 -0.02 L298.39 -0.02 L298.39 0.52 L296.89 0.52 L296.89 -0.02M299.38 -0.02 L300.88 -0.02 L300.88 0.52 L299.38 0.52 L299.38 -0.02M301.88 -0.02 L303.37 -0.02 L303.37 0.52 L301.88 0.52 L301.88 -0.02M304.37 -0.02 L305.87 -0.02 L305.87 0.52 L304.37 0.52 L304.37 -0.02M306.87 -0.02 L308.36 -0.02 L308.36 0.52 L306.87 0.52 L306.87 -0.02M309.36 -0.02 L310.86 -0.02 L310.86 0.52 L309.36 0.52 L309.36 -0.02M311.86 -0.02 L313.35 -0.02 L313.35 0.52 L311.86 0.52 L311.86 -0.02M314.35 -0.02 L315.85 -0.02 L315.85 0.52 L314.35 0.52 L314.35 -0.02M316.85 -0.02 L318.34 -0.02 L318.34 0.52 L316.85 0.52 L316.85 -0.02M319.34 -0.02 L320.84 -0.02 L320.84 0.52 L319.34 0.52 L319.34 -0.02M321.84 -0.02 L323.33 -0.02 L323.33 0.52 L321.84 0.52 L321.84 -0.02M324.33 -0.02 L325.83 -0.02 L325.83 0.52 L324.33 0.52 L324.33 -0.02M326.83 -0.02 L328.32 -0.02 L328.32 0.52 L326.83 0.52 L326.83 -0.02M329.32 -0.02 L330.82 -0.02 L330.82 0.52 L329.32 0.52 L329.32 -0.02M331.81 -0.02 L333.31 -0.02 L333.31 0.52 L331.81 0.52 L331.81 -0.02M334.31 -0.02 L335.81 -0.02 L335.81 0.52 L334.31 0.52 L334.31 -0.02M336.8 -0.02 L338.3 -0.02 L338.3 0.52 L336.8 0.52 L336.8 -0.02M339.3 -0.02 L340.8 -0.02 L340.8 0.52 L339.3 0.52 L339.3 -0.02M341.79 -0.02 L343.29 -0.02 L343.29 0.52 L341.79 0.52 L341.79 -0.02M344.29 -0.02 L345.79 -0.02 L345.79 0.52 L344.29 0.52 L344.29 -0.02M346.78 -0.02 L348.28 -0.02 L348.28 0.52 L346.78 0.52 L346.78 -0.02M349.28 -0.02 L350.77 -0.02 L350.77 0.52 L349.28 0.52 L349.28 -0.02M351.77 -0.02 L353.27 -0.02 L353.27 0.52 L351.77 0.52 L351.77 -0.02M354.27 -0.02 L355.76 -0.02 L355.76 0.52 L354.27 0.52 L354.27 -0.02M356.76 -0.02 L358.26 -0.02 L358.26 0.52 L356.76 0.52 L356.76 -0.02M359.26 -0.02 L360.75 -0.02 L360.75 0.52 L359.26 0.52 L359.26 -0.02M361.75 -0.02 L363.25 -0.02 L363.25 0.52 L361.75 0.52 L361.75 -0.02M364.25 -0.02 L365.74 -0.02 L365.74 0.52 L364.25 0.52 L364.25 -0.02M366.74 -0.02 L368.24 -0.02 L368.24 0.52 L366.74 0.52 L366.74 -0.02M369.24 -0.02 L370.73 -0.02 L370.73 0.52 L369.24 0.52 L369.24 -0.02M371.73 -0.02 L373.23 -0.02 L373.23 0.52 L371.73 0.52 L371.73 -0.02M374.22 -0.02 L375.72 -0.02 L375.72 0.52 L374.22 0.52 L374.22 -0.02M376.72 -0.02 L378.22 -0.02 L378.22 0.52 L376.72 0.52 L376.72 -0.02M379.21 -0.02 L380.71 -0.02 L380.71 0.52 L379.21 0.52 L379.21 -0.02M381.71 -0.02 L383.21 -0.02 L383.21 0.52 L381.71 0.52 L381.71 -0.02M384.2 -0.02 L385.7 -0.02 L385.7 0.52 L384.2 0.52 L384.2 -0.02M386.7 -0.02 L388.2 -0.02 L388.2 0.52 L386.7 0.52 L386.7 -0.02M389.19 -0.02 L390.69 -0.02 L390.69 0.52 L389.19 0.52 L389.19 -0.02M391.69 -0.02 L393.18 -0.02 L393.18 0.52 L391.69 0.52 L391.69 -0.02M394.18 -0.02 L395.68 -0.02 L395.68 0.52 L394.18 0.52 L394.18 -0.02M396.68 -0.02 L398.17 -0.02 L398.17 0.52 L396.68 0.52 L396.68 -0.02M399.17 -0.02 L400.67 -0.02 L400.67 0.52 L399.17 0.52 L399.17 -0.02M401.67 -0.02 L403.16 -0.02 L403.16 0.52 L401.67 0.52 L401.67 -0.02M404.16 -0.02 L405.66 -0.02 L405.66 0.52 L404.16 0.52 L404.16 -0.02M406.66 -0.02 L408.15 -0.02 L408.15 0.52 L406.66 0.52 L406.66 -0.02M409.15 -0.02 L410.65 -0.02 L410.65 0.52 L409.15 0.52 L409.15 -0.02M411.65 -0.02 L413.14 -0.02 L413.14 0.52 L411.65 0.52 L411.65 -0.02M414.14 -0.02 L415.64 -0.02 L415.64 0.52 L414.14 0.52 L414.14 -0.02M416.64 -0.02 L418.13 -0.02 L418.13 0.52 L416.64 0.52 L416.64 -0.02M419.13 -0.02 L420.63 -0.02 L420.63 0.52 L419.13 0.52 L419.13 -0.02M421.62 -0.02 L423.12 -0.02 L423.12 0.52 L421.62 0.52 L421.62 -0.02M424.12 -0.02 L425.62 -0.02 L425.62 0.52 L424.12 0.52 L424.12 -0.02M426.61 -0.02 L428.11 -0.02 L428.11 0.52 L426.61 0.52 L426.61 -0.02M429.11 -0.02 L430.61 -0.02 L430.61 0.52 L429.11 0.52 L429.11 -0.02M431.6 -0.02 L433.1 -0.02 L433.1 0.52 L431.6 0.52 L431.6 -0.02M434.1 -0.02 L435.6 -0.02 L435.6 0.52 L434.1 0.52 L434.1 -0.02M436.59 -0.02 L438.09 -0.02 L438.09 0.52 L436.59 0.52 L436.59 -0.02M439.09 -0.02 L440.58 -0.02 L440.58 0.52 L439.09 0.52 L439.09 -0.02M441.58 -0.02 L443.08 -0.02 L443.08 0.52 L441.58 0.52 L441.58 -0.02M444.08 -0.02 L445.57 -0.02 L445.57 0.52 L444.08 0.52 L444.08 -0.02M446.57 -0.02 L448.07 -0.02 L448.07 0.52 L446.57 0.52 L446.57 -0.02M449.07 -0.02 L450.56 -0.02 L450.56 0.52 L449.07 0.52 L449.07 -0.02M451.56 -0.02 L453.06 -0.02 L453.06 0.52 L451.56 0.52 L451.56 -0.02M454.06 -0.02 L455.55 -0.02 L455.55 0.52 L454.06 0.52 L454.06 -0.02M456.55 -0.02 L458.05 -0.02 L458.05 0.52 L456.55 0.52 L456.55 -0.02M459.05 -0.02 L460.54 -0.02 L460.54 0.52 L459.05 0.52 L459.05 -0.02M461.54 -0.02 L463.04 -0.02 L463.04 0.52 L461.54 0.52 L461.54 -0.02M464.03 -0.02 L465.53 -0.02 L465.53 0.52 L464.03 0.52 L464.03 -0.02M466.53 -0.02 L468.03 -0.02 L468.03 0.52 L466.53 0.52 L466.53 -0.02M469.02 -0.02 L470.52 -0.02 L470.52 0.52 L469.02 0.52 L469.02 -0.02M471.52 -0.02 L473.02 -0.02 L473.02 0.52 L471.52 0.52 L471.52 -0.02M474.01 -0.02 L475.51 -0.02 L475.51 0.52 L474.01 0.52 L474.01 -0.02M476.51 -0.02 L478.01 -0.02 L478.01 0.52 L476.51 0.52 L476.51 -0.02M479 -0.02 L480.5 -0.02 L480.5 0.52 L479 0.52 L479 -0.02M481.5 -0.02 L482.99 -0.02 L482.99 0.52 L481.5 0.52 L481.5 -0.02M483.99 -0.02 L485.49 -0.02 L485.49 0.52 L483.99 0.52 L483.99 -0.02M486.49 -0.02 L487.98 -0.02 L487.98 0.52 L486.49 0.52 L486.49 -0.02M488.98 -0.02 L490.48 -0.02 L490.48 0.52 L488.98 0.52 L488.98 -0.02M491.48 -0.02 L492.97 -0.02 L492.97 0.52 L491.48 0.52 L491.48 -0.02M493.97 -0.02 L495.47 -0.02 L495.47 0.52 L493.97 0.52 L493.97 -0.02M496.47 -0.02 L497.96 -0.02 L497.96 0.52 L496.47 0.52 L496.47 -0.02M498.96 -0.02 L500.46 -0.02 L500.46 0.52 L498.96 0.52 L498.96 -0.02M501.46 -0.02 L502.95 -0.02 L502.95 0.52 L501.46 0.52 L501.46 -0.02M503.95 -0.02 L505.45 -0.02 L505.45 0.52 L503.95 0.52 L503.95 -0.02M506.45 -0.02 L507.94 -0.02 L507.94 0.52 L506.45 0.52 L506.45 -0.02M508.94 -0.02 L510.44 -0.02 L510.44 0.52 L508.94 0.52 L508.94 -0.02M511.43 -0.02 L512.93 -0.02 L512.93 0.52 L511.43 0.52 L511.43 -0.02M513.93 -0.02 L515.43 -0.02 L515.43 0.52 L513.93 0.52 L513.93 -0.02M516.42 -0.02 L517.92 -0.02 L517.92 0.52 L516.42 0.52 L516.42 -0.02M518.92 -0.02 L520.42 -0.02 L520.42 0.52 L518.92 0.52 L518.92 -0.02M521.41 -0.02 L522.91 -0.02 L522.91 0.52 L521.41 0.52 L521.41 -0.02M523.91 -0.02 L525.41 -0.02 L525.41 0.52 L523.91 0.52 L523.91 -0.02M526.4 -0.02 L527.9 -0.02 L527.9 0.52 L526.4 0.52 L526.4 -0.02M528.9 -0.02 L530.39 -0.02 L530.39 0.52 L528.9 0.52 L528.9 -0.02M531.39 -0.02 L532.89 -0.02 L532.89 0.52 L531.39 0.52 L531.39 -0.02M533.89 -0.02 L535.38 -0.02 L535.38 0.52 L533.89 0.52 L533.89 -0.02M536.38 -0.02 L537.88 -0.02 L537.88 0.52 L536.38 0.52 L536.38 -0.02M538.88 -0.02 L540.37 -0.02 L540.37 0.52 L538.88 0.52 L538.88 -0.02M541.37 -0.02 L542.87 -0.02 L542.87 0.52 L541.37 0.52 L541.37 -0.02M543.87 -0.02 L545.36 -0.02 L545.36 0.52 L543.87 0.52 L543.87 -0.02M546.36 -0.02 L547.86 -0.02 L547.86 0.52 L546.36 0.52 L546.36 -0.02M548.86 -0.02 L550.35 -0.02 L550.35 0.52 L548.86 0.52 L548.86 -0.02M551.35 -0.02 L552.85 -0.02 L552.85 0.52 L551.35 0.52 L551.35 -0.02M553.84 -0.02 L555.34 -0.02 L555.34 0.52 L553.84 0.52 L553.84 -0.02M556.34 -0.02 L557.84 -0.02 L557.84 0.52 L556.34 0.52 L556.34 -0.02M558.83 -0.02 L560.33 -0.02 L560.33 0.52 L558.83 0.52 L558.83 -0.02M561.33 -0.02 L562.83 -0.02 L562.83 0.52 L561.33 0.52 L561.33 -0.02M563.82 -0.02 L565.32 -0.02 L565.32 0.52 L563.82 0.52 L563.82 -0.02M566.32 -0.02 L567.82 -0.02 L567.82 0.52 L566.32 0.52 L566.32 -0.02M568.81 -0.02 L570.31 -0.02 L570.31 0.52 L568.81 0.52 L568.81 -0.02M571.31 -0.02 L572.8 -0.02 L572.8 0.52 L571.31 0.52 L571.31 -0.02M573.8 -0.02 L575.3 -0.02 L575.3 0.52 L573.8 0.52 L573.8 -0.02M576.3 -0.02 L577.79 -0.02 L577.79 0.52 L576.3 0.52 L576.3 -0.02" fill="#3D4B52" stroke="#3D4B52" stroke-opacity="1" stroke-width="0"/></svg>