<?xml version="1.0" encoding="utf-8"?>
<!-- Generator: Adobe Illustrator 16.0.0, SVG Export Plug-In . SVG Version: 6.00 Build 0)  -->
<!DOCTYPE svg PUBLIC "-//W3C//DTD SVG 1.1//EN" "http://www.w3.org/Graphics/SVG/1.1/DTD/svg11.dtd">
<svg version="1.1" xmlns="http://www.w3.org/2000/svg" xmlns:xlink="http://www.w3.org/1999/xlink" x="0px" y="0px"
	 width="26.083px" height="24.167px" viewBox="0 0 26.083 24.167" enable-background="new 0 0 26.083 24.167" xml:space="preserve">

	<path d="M23.152,12.742l-0.312,4.47c-0.035,0.517-0.486,0.91-1.004,0.873l-1.525-0.107
	c-0.52-0.036-0.91-0.485-0.873-1.004l0.312-4.469c0.031-0.42,0.332-0.744,0.719-0.838c-0.281-3.464-3.186-6.196-6.721-6.196
	c-3.529,0-6.43,2.724-6.721,6.178c0.459,0.034,0.838,0.383,0.873,0.856l0.312,4.469c0.035,0.519-0.355,0.969-0.875,1.006
	l-1.525,0.107c-0.518,0.036-0.969-0.357-1.004-0.874l-0.312-4.47c-0.027-0.397,0.195-0.749,0.533-0.912
	c0.205-4.645,4.023-8.35,8.719-8.35c4.682,0,8.49,3.683,8.717,8.307C22.883,11.906,23.184,12.289,23.152,12.742z M18.592,14.673
	c0,2.655-2.154,4.808-4.809,4.808c-2.656,0-4.807-2.153-4.807-4.808c0-2.655,2.15-4.809,4.807-4.809
	C16.438,9.864,18.592,12.018,18.592,14.673z M16.234,14.673l-3.924-2.268v4.535L16.234,14.673z"/>
</svg>
