<?xml version="1.0" encoding="utf-8"?>
<!-- Generator: Adobe Illustrator 20.0.0, SVG Export Plug-In . SVG Version: 6.00 Build 0)  -->
<svg version="1.1" id="DownArrow" xmlns="http://www.w3.org/2000/svg" xmlns:xlink="http://www.w3.org/1999/xlink" x="0px" y="0px"
	 viewBox="0 0 24 24" style="enable-background:new 0 0 24 24;" xml:space="preserve">
<path d="M20.8,10.6l-8.3,8.3c-0.1,0.1-0.3,0.2-0.5,0.2s-0.4-0.1-0.5-0.2l-8.3-8.3c-0.1-0.1-0.2-0.3-0.2-0.5
	s0.1-0.4,0.2-0.5l1.9-1.9c0.1-0.1,0.3-0.2,0.5-0.2c0.2,0,0.4,0.1,0.5,0.2l6,6l6-6c0.1-0.1,0.3-0.2,0.5-0.2c0.2,0,0.4,0.1,0.5,0.2
	l1.9,1.9c0.1,0.1,0.2,0.3,0.2,0.5S20.9,10.4,20.8,10.6z"/>
</svg>
