<?xml version="1.0" encoding="utf-8"?>
<!-- Generator: Adobe Illustrator 16.0.0, SVG Export Plug-In . SVG Version: 6.00 Build 0)  -->
<!DOCTYPE svg PUBLIC "-//W3C//DTD SVG 1.1//EN" "http://www.w3.org/Graphics/SVG/1.1/DTD/svg11.dtd">
<svg version="1.1" xmlns="http://www.w3.org/2000/svg" xmlns:xlink="http://www.w3.org/1999/xlink" x="0px" y="0px"
	 width="26.083px" height="24.167px" viewBox="0 0 26.083 24.167" enable-background="new 0 0 26.083 24.167" xml:space="preserve">
<g id="Issue_3_">
	<path d="M22.148,7.49l-0.032-0.018c-0.051-0.03-0.103-0.059-0.16-0.083V7.38l-7.693-4.381
		c-0.183-0.045-0.383-0.077-0.605-0.077c-0.207,0-0.394,0.028-0.568,0.07L5.048,7.571C4.96,7.653,4.907,7.747,4.907,7.849
		c0,0.097,0.046,0.186,0.126,0.266l7.962,4.843c0.421,0.163,0.533,0.163,0.662,0.163c0.119,0,0.354,0,0.697-0.17l7.931-4.824
		c0.078-0.079,0.123-0.168,0.123-0.263C22.408,7.72,22.309,7.594,22.148,7.49z"/>
	<path d="M22.148,11.496l-0.032-0.02c-0.051-0.03-0.103-0.058-0.16-0.083v-0.008l-0.897-0.511l-6.704,4.077
		c-0.344,0.17-0.578,0.17-0.697,0.17c-0.129,0-0.241,0-0.662-0.163l-6.718-4.085l-1.229,0.7c-0.088,0.084-0.141,0.177-0.141,0.278
		c0,0.097,0.046,0.188,0.126,0.268l7.962,4.842c0.421,0.164,0.533,0.164,0.662,0.164c0.119,0,0.354,0,0.697-0.171l7.931-4.825
		c0.078-0.079,0.123-0.167,0.123-0.263C22.408,11.726,22.309,11.599,22.148,11.496z"/>
	<path d="M22.148,15.29l-0.032-0.018c-0.051-0.03-0.103-0.058-0.16-0.083V15.18l-0.897-0.51l-6.704,4.077
		c-0.344,0.17-0.578,0.17-0.697,0.17c-0.129,0-0.241,0-0.662-0.164L6.277,14.67l-1.229,0.7c-0.088,0.083-0.141,0.176-0.141,0.278
		c0,0.097,0.046,0.187,0.126,0.267l7.962,4.842c0.421,0.165,0.533,0.165,0.662,0.165c0.119,0,0.354,0,0.697-0.17l7.931-4.825
		c0.078-0.079,0.123-0.169,0.123-0.264C22.408,15.521,22.309,15.393,22.148,15.29z"/>
</g>
</svg>
