<?xml version="1.0" encoding="utf-8" standalone="no"?>

<svg height="1.00px" version="1.1" width="350.00px" xmlns="http://www.w3.org/2000/svg"><path d="M1.2 0 L2 0 L2 0.4 L1.2 0.4 L1.2 0M348.8 0.4 L348 0.4 L348 0 L348.8 0 L348.8 0.4M3.2 0 L4.01 0 L4.01 0.4 L3.2 0.4 L3.2 0M5.21 0 L6.01 0 L6.01 0.4 L5.21 0.4 L5.21 0M7.21 0 L8.01 0 L8.01 0.4 L7.21 0.4 L7.21 0M9.22 0 L10.02 0 L10.02 0.4 L9.22 0.4 L9.22 0M11.22 0 L12.02 0 L12.02 0.4 L11.22 0.4 L11.22 0M13.23 0 L14.03 0 L14.03 0.4 L13.23 0.4 L13.23 0M15.23 0 L16.03 0 L16.03 0.4 L15.23 0.4 L15.23 0M17.24 0 L18.04 0 L18.04 0.4 L17.24 0.4 L17.24 0M19.24 0 L20.04 0 L20.04 0.4 L19.24 0.4 L19.24 0M21.24 0 L22.05 0 L22.05 0.4 L21.24 0.4 L21.24 0M23.25 0 L24.05 0 L24.05 0.4 L23.25 0.4 L23.25 0M25.25 0 L26.06 0 L26.06 0.4 L25.25 0.4 L25.25 0M27.26 0 L28.06 0 L28.06 0.4 L27.26 0.4 L27.26 0M29.26 0 L30.07 0 L30.07 0.4 L29.26 0.4 L29.26 0M31.27 0 L32.07 0 L32.07 0.4 L31.27 0.4 L31.27 0M33.27 0 L34.07 0 L34.07 0.4 L33.27 0.4 L33.27 0M35.28 0 L36.08 0 L36.08 0.4 L35.28 0.4 L35.28 0M37.28 0 L38.08 0 L38.08 0.4 L37.28 0.4 L37.28 0M39.29 0 L40.09 0 L40.09 0.4 L39.29 0.4 L39.29 0M41.29 0 L42.09 0 L42.09 0.4 L41.29 0.4 L41.29 0M43.3 0 L44.1 0 L44.1 0.4 L43.3 0.4 L43.3 0M45.3 0 L46.1 0 L46.1 0.4 L45.3 0.4 L45.3 0M47.31 0 L48.11 0 L48.11 0.4 L47.31 0.4 L47.31 0M49.31 0 L50.11 0 L50.11 0.4 L49.31 0.4 L49.31 0M51.31 0 L52.12 0 L52.12 0.4 L51.31 0.4 L51.31 0M53.32 0 L54.12 0 L54.12 0.4 L53.32 0.4 L53.32 0M55.32 0 L56.13 0 L56.13 0.4 L55.32 0.4 L55.32 0M57.33 0 L58.13 0 L58.13 0.4 L57.33 0.4 L57.33 0M59.33 0 L60.13 0 L60.13 0.4 L59.33 0.4 L59.33 0M61.34 0 L62.14 0 L62.14 0.4 L61.34 0.4 L61.34 0M63.34 0 L64.14 0 L64.14 0.4 L63.34 0.4 L63.34 0M65.35 0 L66.15 0 L66.15 0.4 L65.35 0.4 L65.35 0M67.35 0 L68.15 0 L68.15 0.4 L67.35 0.4 L67.35 0M69.36 0 L70.16 0 L70.16 0.4 L69.36 0.4 L69.36 0M71.36 0 L72.16 0 L72.16 0.4 L71.36 0.4 L71.36 0M73.37 0 L74.17 0 L74.17 0.4 L73.37 0.4 L73.37 0M75.37 0 L76.17 0 L76.17 0.4 L75.37 0.4 L75.37 0M77.37 0 L78.18 0 L78.18 0.4 L77.37 0.4 L77.37 0M79.38 0 L80.18 0 L80.18 0.4 L79.38 0.4 L79.38 0M81.38 0 L82.19 0 L82.19 0.4 L81.38 0.4 L81.38 0M83.39 0 L84.19 0 L84.19 0.4 L83.39 0.4 L83.39 0M85.39 0 L86.19 0 L86.19 0.4 L85.39 0.4 L85.39 0M87.4 0 L88.2 0 L88.2 0.4 L87.4 0.4 L87.4 0M89.4 0 L90.2 0 L90.2 0.4 L89.4 0.4 L89.4 0M91.41 0 L92.21 0 L92.21 0.4 L91.41 0.4 L91.41 0M93.41 0 L94.21 0 L94.21 0.4 L93.41 0.4 L93.41 0M95.42 0 L96.22 0 L96.22 0.4 L95.42 0.4 L95.42 0M97.42 0 L98.22 0 L98.22 0.4 L97.42 0.4 L97.42 0M99.43 0 L100.23 0 L100.23 0.4 L99.43 0.4 L99.43 0M101.43 0 L102.23 0 L102.23 0.4 L101.43 0.4 L101.43 0M103.43 0 L104.24 0 L104.24 0.4 L103.43 0.4 L103.43 0M105.44 0 L106.24 0 L106.24 0.4 L105.44 0.4 L105.44 0M107.44 0 L108.25 0 L108.25 0.4 L107.44 0.4 L107.44 0M109.45 0 L110.25 0 L110.25 0.4 L109.45 0.4 L109.45 0M111.45 0 L112.25 0 L112.25 0.4 L111.45 0.4 L111.45 0M113.46 0 L114.26 0 L114.26 0.4 L113.46 0.4 L113.46 0M115.46 0 L116.26 0 L116.26 0.4 L115.46 0.4 L115.46 0M117.47 0 L118.27 0 L118.27 0.4 L117.47 0.4 L117.47 0M119.47 0 L120.27 0 L120.27 0.4 L119.47 0.4 L119.47 0M121.48 0 L122.28 0 L122.28 0.4 L121.48 0.4 L121.48 0M123.48 0 L124.28 0 L124.28 0.4 L123.48 0.4 L123.48 0M125.49 0 L126.29 0 L126.29 0.4 L125.49 0.4 L125.49 0M127.49 0 L128.29 0 L128.29 0.4 L127.49 0.4 L127.49 0M129.49 0 L130.3 0 L130.3 0.4 L129.49 0.4 L129.49 0M131.5 0 L132.3 0 L132.3 0.4 L131.5 0.4 L131.5 0M133.5 0 L134.31 0 L134.31 0.4 L133.5 0.4 L133.5 0M135.51 0 L136.31 0 L136.31 0.4 L135.51 0.4 L135.51 0M137.51 0 L138.31 0 L138.31 0.4 L137.51 0.4 L137.51 0M139.52 0 L140.32 0 L140.32 0.4 L139.52 0.4 L139.52 0M141.52 0 L142.32 0 L142.32 0.4 L141.52 0.4 L141.52 0M143.53 0 L144.33 0 L144.33 0.4 L143.53 0.4 L143.53 0M145.53 0 L146.33 0 L146.33 0.4 L145.53 0.4 L145.53 0M147.54 0 L148.34 0 L148.34 0.4 L147.54 0.4 L147.54 0M149.54 0 L150.34 0 L150.34 0.4 L149.54 0.4 L149.54 0M151.55 0 L152.35 0 L152.35 0.4 L151.55 0.4 L151.55 0M153.55 0 L154.35 0 L154.35 0.4 L153.55 0.4 L153.55 0M155.55 0 L156.36 0 L156.36 0.4 L155.55 0.4 L155.55 0M157.56 0 L158.36 0 L158.36 0.4 L157.56 0.4 L157.56 0M159.56 0 L160.37 0 L160.37 0.4 L159.56 0.4 L159.56 0M161.57 0 L162.37 0 L162.37 0.4 L161.57 0.4 L161.57 0M163.57 0 L164.38 0 L164.38 0.4 L163.57 0.4 L163.57 0M165.58 0 L166.38 0 L166.38 0.4 L165.58 0.4 L165.58 0M167.58 0 L168.38 0 L168.38 0.4 L167.58 0.4 L167.58 0M169.59 0 L170.39 0 L170.39 0.4 L169.59 0.4 L169.59 0M171.59 0 L172.39 0 L172.39 0.4 L171.59 0.4 L171.59 0M173.6 0 L174.4 0 L174.4 0.4 L173.6 0.4 L173.6 0M175.6 0 L176.4 0 L176.4 0.4 L175.6 0.4 L175.6 0M177.61 0 L178.41 0 L178.41 0.4 L177.61 0.4 L177.61 0M179.61 0 L180.41 0 L180.41 0.4 L179.61 0.4 L179.61 0M181.61 0 L182.42 0 L182.42 0.4 L181.61 0.4 L181.61 0M183.62 0 L184.42 0 L184.42 0.4 L183.62 0.4 L183.62 0M185.62 0 L186.43 0 L186.43 0.4 L185.62 0.4 L185.62 0M187.63 0 L188.43 0 L188.43 0.4 L187.63 0.4 L187.63 0M189.63 0 L190.44 0 L190.44 0.4 L189.63 0.4 L189.63 0M191.64 0 L192.44 0 L192.44 0.4 L191.64 0.4 L191.64 0M193.64 0 L194.44 0 L194.44 0.4 L193.64 0.4 L193.64 0M195.65 0 L196.45 0 L196.45 0.4 L195.65 0.4 L195.65 0M197.65 0 L198.45 0 L198.45 0.4 L197.65 0.4 L197.65 0M199.66 0 L200.46 0 L200.46 0.4 L199.66 0.4 L199.66 0M201.66 0 L202.46 0 L202.46 0.4 L201.66 0.4 L201.66 0M203.67 0 L204.47 0 L204.47 0.4 L203.67 0.4 L203.67 0M205.67 0 L206.47 0 L206.47 0.4 L205.67 0.4 L205.67 0M207.67 0 L208.48 0 L208.48 0.4 L207.67 0.4 L207.67 0M209.68 0 L210.48 0 L210.48 0.4 L209.68 0.4 L209.68 0M211.68 0 L212.49 0 L212.49 0.4 L211.68 0.4 L211.68 0M213.69 0 L214.49 0 L214.49 0.4 L213.69 0.4 L213.69 0M215.69 0 L216.5 0 L216.5 0.4 L215.69 0.4 L215.69 0M217.7 0 L218.5 0 L218.5 0.4 L217.7 0.4 L217.7 0M219.7 0 L220.5 0 L220.5 0.4 L219.7 0.4 L219.7 0M221.71 0 L222.51 0 L222.51 0.4 L221.71 0.4 L221.71 0M223.71 0 L224.51 0 L224.51 0.4 L223.71 0.4 L223.71 0M225.72 0 L226.52 0 L226.52 0.4 L225.72 0.4 L225.72 0M227.72 0 L228.52 0 L228.52 0.4 L227.72 0.4 L227.72 0M229.73 0 L230.53 0 L230.53 0.4 L229.73 0.4 L229.73 0M231.73 0 L232.53 0 L232.53 0.4 L231.73 0.4 L231.73 0M233.74 0 L234.54 0 L234.54 0.4 L233.74 0.4 L233.74 0M235.74 0 L236.54 0 L236.54 0.4 L235.74 0.4 L235.74 0M237.74 0 L238.55 0 L238.55 0.4 L237.74 0.4 L237.74 0M239.75 0 L240.55 0 L240.55 0.4 L239.75 0.4 L239.75 0M241.75 0 L242.56 0 L242.56 0.4 L241.75 0.4 L241.75 0M243.76 0 L244.56 0 L244.56 0.4 L243.76 0.4 L243.76 0M245.76 0 L246.56 0 L246.56 0.4 L245.76 0.4 L245.76 0M247.77 0 L248.57 0 L248.57 0.4 L247.77 0.4 L247.77 0M249.77 0 L250.57 0 L250.57 0.4 L249.77 0.4 L249.77 0M251.78 0 L252.58 0 L252.58 0.4 L251.78 0.4 L251.78 0M253.78 0 L254.58 0 L254.58 0.4 L253.78 0.4 L253.78 0M255.79 0 L256.59 0 L256.59 0.4 L255.79 0.4 L255.79 0M257.79 0 L258.59 0 L258.59 0.4 L257.79 0.4 L257.79 0M259.8 0 L260.6 0 L260.6 0.4 L259.8 0.4 L259.8 0M261.8 0 L262.6 0 L262.6 0.4 L261.8 0.4 L261.8 0M263.8 0 L264.61 0 L264.61 0.4 L263.8 0.4 L263.8 0M265.81 0 L266.61 0 L266.61 0.4 L265.81 0.4 L265.81 0M267.81 0 L268.62 0 L268.62 0.4 L267.81 0.4 L267.81 0M269.82 0 L270.62 0 L270.62 0.4 L269.82 0.4 L269.82 0M271.82 0 L272.62 0 L272.62 0.4 L271.82 0.4 L271.82 0M273.83 0 L274.63 0 L274.63 0.4 L273.83 0.4 L273.83 0M275.83 0 L276.63 0 L276.63 0.4 L275.83 0.4 L275.83 0M277.84 0 L278.64 0 L278.64 0.4 L277.84 0.4 L277.84 0M279.84 0 L280.64 0 L280.64 0.4 L279.84 0.4 L279.84 0M281.85 0 L282.65 0 L282.65 0.4 L281.85 0.4 L281.85 0M283.85 0 L284.65 0 L284.65 0.4 L283.85 0.4 L283.85 0M285.86 0 L286.66 0 L286.66 0.4 L285.86 0.4 L285.86 0M287.86 0 L288.66 0 L288.66 0.4 L287.86 0.4 L287.86 0M289.86 0 L290.67 0 L290.67 0.4 L289.86 0.4 L289.86 0M291.87 0 L292.67 0 L292.67 0.4 L291.87 0.4 L291.87 0M293.87 0 L294.68 0 L294.68 0.4 L293.87 0.4 L293.87 0M295.88 0 L296.68 0 L296.68 0.4 L295.88 0.4 L295.88 0M297.88 0 L298.68 0 L298.68 0.4 L297.88 0.4 L297.88 0M299.89 0 L300.69 0 L300.69 0.4 L299.89 0.4 L299.89 0M301.89 0 L302.69 0 L302.69 0.4 L301.89 0.4 L301.89 0M303.9 0 L304.7 0 L304.7 0.4 L303.9 0.4 L303.9 0M305.9 0 L306.7 0 L306.7 0.4 L305.9 0.4 L305.9 0M307.91 0 L308.71 0 L308.71 0.4 L307.91 0.4 L307.91 0M309.91 0 L310.71 0 L310.71 0.4 L309.91 0.4 L309.91 0M311.92 0 L312.72 0 L312.72 0.4 L311.92 0.4 L311.92 0M313.92 0 L314.72 0 L314.72 0.4 L313.92 0.4 L313.92 0M315.92 0 L316.73 0 L316.73 0.4 L315.92 0.4 L315.92 0M317.93 0 L318.73 0 L318.73 0.4 L317.93 0.4 L317.93 0M319.93 0 L320.74 0 L320.74 0.4 L319.93 0.4 L319.93 0M321.94 0 L322.74 0 L322.74 0.4 L321.94 0.4 L321.94 0M323.94 0 L324.74 0 L324.74 0.4 L323.94 0.4 L323.94 0M325.95 0 L326.75 0 L326.75 0.4 L325.95 0.4 L325.95 0M327.95 0 L328.75 0 L328.75 0.4 L327.95 0.4 L327.95 0M329.96 0 L330.76 0 L330.76 0.4 L329.96 0.4 L329.96 0M331.96 0 L332.76 0 L332.76 0.4 L331.96 0.4 L331.96 0M333.97 0 L334.77 0 L334.77 0.4 L333.97 0.4 L333.97 0M335.97 0 L336.77 0 L336.77 0.4 L335.97 0.4 L335.97 0M337.98 0 L338.78 0 L338.78 0.4 L337.98 0.4 L337.98 0M339.98 0 L340.78 0 L340.78 0.4 L339.98 0.4 L339.98 0M341.98 0 L342.79 0 L342.79 0.4 L341.98 0.4 L341.98 0M343.99 0 L344.79 0 L344.79 0.4 L343.99 0.4 L343.99 0M345.99 0 L346.8 0 L346.8 0.4 L345.99 0.4 L345.99 0" fill="rgba(255,255,255,0)" stroke="rgba(255,255,255,0)" stroke-opacity="0" stroke-width="0"/><path d="M0 -0.01 L1.2 -0.01 L1.2 0.41 L0 0.41 L0 -0.01M348.8 -0.01 L350 -0.01 L350 0.41 L348.8 0.41 L348.8 -0.01M2 -0.01 L3.2 -0.01 L3.2 0.41 L2 0.41 L2 -0.01M4.01 -0.01 L5.21 -0.01 L5.21 0.41 L4.01 0.41 L4.01 -0.01M6.01 -0.01 L7.21 -0.01 L7.21 0.41 L6.01 0.41 L6.01 -0.01M8.01 -0.01 L9.22 -0.01 L9.22 0.41 L8.01 0.41 L8.01 -0.01M10.02 -0.01 L11.22 -0.01 L11.22 0.41 L10.02 0.41 L10.02 -0.01M12.02 -0.01 L13.23 -0.01 L13.23 0.41 L12.02 0.41 L12.02 -0.01M14.03 -0.01 L15.23 -0.01 L15.23 0.41 L14.03 0.41 L14.03 -0.01M16.03 -0.01 L17.24 -0.01 L17.24 0.41 L16.03 0.41 L16.03 -0.01M18.04 -0.01 L19.24 -0.01 L19.24 0.41 L18.04 0.41 L18.04 -0.01M20.04 -0.01 L21.24 -0.01 L21.24 0.41 L20.04 0.41 L20.04 -0.01M22.05 -0.01 L23.25 -0.01 L23.25 0.41 L22.05 0.41 L22.05 -0.01M24.05 -0.01 L25.25 -0.01 L25.25 0.41 L24.05 0.41 L24.05 -0.01M26.06 -0.01 L27.26 -0.01 L27.26 0.41 L26.06 0.41 L26.06 -0.01M28.06 -0.01 L29.26 -0.01 L29.26 0.41 L28.06 0.41 L28.06 -0.01M30.07 -0.01 L31.27 -0.01 L31.27 0.41 L30.07 0.41 L30.07 -0.01M32.07 -0.01 L33.27 -0.01 L33.27 0.41 L32.07 0.41 L32.07 -0.01M34.07 -0.01 L35.28 -0.01 L35.28 0.41 L34.07 0.41 L34.07 -0.01M36.08 -0.01 L37.28 -0.01 L37.28 0.41 L36.08 0.41 L36.08 -0.01M38.08 -0.01 L39.29 -0.01 L39.29 0.41 L38.08 0.41 L38.08 -0.01M40.09 -0.01 L41.29 -0.01 L41.29 0.41 L40.09 0.41 L40.09 -0.01M42.09 -0.01 L43.3 -0.01 L43.3 0.41 L42.09 0.41 L42.09 -0.01M44.1 -0.01 L45.3 -0.01 L45.3 0.41 L44.1 0.41 L44.1 -0.01M46.1 -0.01 L47.31 -0.01 L47.31 0.41 L46.1 0.41 L46.1 -0.01M48.11 -0.01 L49.31 -0.01 L49.31 0.41 L48.11 0.41 L48.11 -0.01M50.11 -0.01 L51.31 -0.01 L51.31 0.41 L50.11 0.41 L50.11 -0.01M52.12 -0.01 L53.32 -0.01 L53.32 0.41 L52.12 0.41 L52.12 -0.01M54.12 -0.01 L55.32 -0.01 L55.32 0.41 L54.12 0.41 L54.12 -0.01M56.13 -0.01 L57.33 -0.01 L57.33 0.41 L56.13 0.41 L56.13 -0.01M58.13 -0.01 L59.33 -0.01 L59.33 0.41 L58.13 0.41 L58.13 -0.01M60.13 -0.01 L61.34 -0.01 L61.34 0.41 L60.13 0.41 L60.13 -0.01M62.14 -0.01 L63.34 -0.01 L63.34 0.41 L62.14 0.41 L62.14 -0.01M64.14 -0.01 L65.35 -0.01 L65.35 0.41 L64.14 0.41 L64.14 -0.01M66.15 -0.01 L67.35 -0.01 L67.35 0.41 L66.15 0.41 L66.15 -0.01M68.15 -0.01 L69.36 -0.01 L69.36 0.41 L68.15 0.41 L68.15 -0.01M70.16 -0.01 L71.36 -0.01 L71.36 0.41 L70.16 0.41 L70.16 -0.01M72.16 -0.01 L73.37 -0.01 L73.37 0.41 L72.16 0.41 L72.16 -0.01M74.17 -0.01 L75.37 -0.01 L75.37 0.41 L74.17 0.41 L74.17 -0.01M76.17 -0.01 L77.37 -0.01 L77.37 0.41 L76.17 0.41 L76.17 -0.01M78.18 -0.01 L79.38 -0.01 L79.38 0.41 L78.18 0.41 L78.18 -0.01M80.18 -0.01 L81.38 -0.01 L81.38 0.41 L80.18 0.41 L80.18 -0.01M82.19 -0.01 L83.39 -0.01 L83.39 0.41 L82.19 0.41 L82.19 -0.01M84.19 -0.01 L85.39 -0.01 L85.39 0.41 L84.19 0.41 L84.19 -0.01M86.19 -0.01 L87.4 -0.01 L87.4 0.41 L86.19 0.41 L86.19 -0.01M88.2 -0.01 L89.4 -0.01 L89.4 0.41 L88.2 0.41 L88.2 -0.01M90.2 -0.01 L91.41 -0.01 L91.41 0.41 L90.2 0.41 L90.2 -0.01M92.21 -0.01 L93.41 -0.01 L93.41 0.41 L92.21 0.41 L92.21 -0.01M94.21 -0.01 L95.42 -0.01 L95.42 0.41 L94.21 0.41 L94.21 -0.01M96.22 -0.01 L97.42 -0.01 L97.42 0.41 L96.22 0.41 L96.22 -0.01M98.22 -0.01 L99.43 -0.01 L99.43 0.41 L98.22 0.41 L98.22 -0.01M100.23 -0.01 L101.43 -0.01 L101.43 0.41 L100.23 0.41 L100.23 -0.01M102.23 -0.01 L103.43 -0.01 L103.43 0.41 L102.23 0.41 L102.23 -0.01M104.24 -0.01 L105.44 -0.01 L105.44 0.41 L104.24 0.41 L104.24 -0.01M106.24 -0.01 L107.44 -0.01 L107.44 0.41 L106.24 0.41 L106.24 -0.01M108.25 -0.01 L109.45 -0.01 L109.45 0.41 L108.25 0.41 L108.25 -0.01M110.25 -0.01 L111.45 -0.01 L111.45 0.41 L110.25 0.41 L110.25 -0.01M112.25 -0.01 L113.46 -0.01 L113.46 0.41 L112.25 0.41 L112.25 -0.01M114.26 -0.01 L115.46 -0.01 L115.46 0.41 L114.26 0.41 L114.26 -0.01M116.26 -0.01 L117.47 -0.01 L117.47 0.41 L116.26 0.41 L116.26 -0.01M118.27 -0.01 L119.47 -0.01 L119.47 0.41 L118.27 0.41 L118.27 -0.01M120.27 -0.01 L121.48 -0.01 L121.48 0.41 L120.27 0.41 L120.27 -0.01M122.28 -0.01 L123.48 -0.01 L123.48 0.41 L122.28 0.41 L122.28 -0.01M124.28 -0.01 L125.49 -0.01 L125.49 0.41 L124.28 0.41 L124.28 -0.01M126.29 -0.01 L127.49 -0.01 L127.49 0.41 L126.29 0.41 L126.29 -0.01M128.29 -0.01 L129.49 -0.01 L129.49 0.41 L128.29 0.41 L128.29 -0.01M130.3 -0.01 L131.5 -0.01 L131.5 0.41 L130.3 0.41 L130.3 -0.01M132.3 -0.01 L133.5 -0.01 L133.5 0.41 L132.3 0.41 L132.3 -0.01M134.31 -0.01 L135.51 -0.01 L135.51 0.41 L134.31 0.41 L134.31 -0.01M136.31 -0.01 L137.51 -0.01 L137.51 0.41 L136.31 0.41 L136.31 -0.01M138.31 -0.01 L139.52 -0.01 L139.52 0.41 L138.31 0.41 L138.31 -0.01M140.32 -0.01 L141.52 -0.01 L141.52 0.41 L140.32 0.41 L140.32 -0.01M142.32 -0.01 L143.53 -0.01 L143.53 0.41 L142.32 0.41 L142.32 -0.01M144.33 -0.01 L145.53 -0.01 L145.53 0.41 L144.33 0.41 L144.33 -0.01M146.33 -0.01 L147.54 -0.01 L147.54 0.41 L146.33 0.41 L146.33 -0.01M148.34 -0.01 L149.54 -0.01 L149.54 0.41 L148.34 0.41 L148.34 -0.01M150.34 -0.01 L151.55 -0.01 L151.55 0.41 L150.34 0.41 L150.34 -0.01M152.35 -0.01 L153.55 -0.01 L153.55 0.41 L152.35 0.41 L152.35 -0.01M154.35 -0.01 L155.55 -0.01 L155.55 0.41 L154.35 0.41 L154.35 -0.01M156.36 -0.01 L157.56 -0.01 L157.56 0.41 L156.36 0.41 L156.36 -0.01M158.36 -0.01 L159.56 -0.01 L159.56 0.41 L158.36 0.41 L158.36 -0.01M160.37 -0.01 L161.57 -0.01 L161.57 0.41 L160.37 0.41 L160.37 -0.01M162.37 -0.01 L163.57 -0.01 L163.57 0.41 L162.37 0.41 L162.37 -0.01M164.38 -0.01 L165.58 -0.01 L165.58 0.41 L164.38 0.41 L164.38 -0.01M166.38 -0.01 L167.58 -0.01 L167.58 0.41 L166.38 0.41 L166.38 -0.01M168.38 -0.01 L169.59 -0.01 L169.59 0.41 L168.38 0.41 L168.38 -0.01M170.39 -0.01 L171.59 -0.01 L171.59 0.41 L170.39 0.41 L170.39 -0.01M172.39 -0.01 L173.6 -0.01 L173.6 0.41 L172.39 0.41 L172.39 -0.01M174.4 -0.01 L175.6 -0.01 L175.6 0.41 L174.4 0.41 L174.4 -0.01M176.4 -0.01 L177.61 -0.01 L177.61 0.41 L176.4 0.41 L176.4 -0.01M178.41 -0.01 L179.61 -0.01 L179.61 0.41 L178.41 0.41 L178.41 -0.01M180.41 -0.01 L181.61 -0.01 L181.61 0.41 L180.41 0.41 L180.41 -0.01M182.42 -0.01 L183.62 -0.01 L183.62 0.41 L182.42 0.41 L182.42 -0.01M184.42 -0.01 L185.62 -0.01 L185.62 0.41 L184.42 0.41 L184.42 -0.01M186.43 -0.01 L187.63 -0.01 L187.63 0.41 L186.43 0.41 L186.43 -0.01M188.43 -0.01 L189.63 -0.01 L189.63 0.41 L188.43 0.41 L188.43 -0.01M190.44 -0.01 L191.64 -0.01 L191.64 0.41 L190.44 0.41 L190.44 -0.01M192.44 -0.01 L193.64 -0.01 L193.64 0.41 L192.44 0.41 L192.44 -0.01M194.44 -0.01 L195.65 -0.01 L195.65 0.41 L194.44 0.41 L194.44 -0.01M196.45 -0.01 L197.65 -0.01 L197.65 0.41 L196.45 0.41 L196.45 -0.01M198.45 -0.01 L199.66 -0.01 L199.66 0.41 L198.45 0.41 L198.45 -0.01M200.46 -0.01 L201.66 -0.01 L201.66 0.41 L200.46 0.41 L200.46 -0.01M202.46 -0.01 L203.67 -0.01 L203.67 0.41 L202.46 0.41 L202.46 -0.01M204.47 -0.01 L205.67 -0.01 L205.67 0.41 L204.47 0.41 L204.47 -0.01M206.47 -0.01 L207.67 -0.01 L207.67 0.41 L206.47 0.41 L206.47 -0.01M208.48 -0.01 L209.68 -0.01 L209.68 0.41 L208.48 0.41 L208.48 -0.01M210.48 -0.01 L211.68 -0.01 L211.68 0.41 L210.48 0.41 L210.48 -0.01M212.49 -0.01 L213.69 -0.01 L213.69 0.41 L212.49 0.41 L212.49 -0.01M214.49 -0.01 L215.69 -0.01 L215.69 0.41 L214.49 0.41 L214.49 -0.01M216.5 -0.01 L217.7 -0.01 L217.7 0.41 L216.5 0.41 L216.5 -0.01M218.5 -0.01 L219.7 -0.01 L219.7 0.41 L218.5 0.41 L218.5 -0.01M220.5 -0.01 L221.71 -0.01 L221.71 0.41 L220.5 0.41 L220.5 -0.01M222.51 -0.01 L223.71 -0.01 L223.71 0.41 L222.51 0.41 L222.51 -0.01M224.51 -0.01 L225.72 -0.01 L225.72 0.41 L224.51 0.41 L224.51 -0.01M226.52 -0.01 L227.72 -0.01 L227.72 0.41 L226.52 0.41 L226.52 -0.01M228.52 -0.01 L229.73 -0.01 L229.73 0.41 L228.52 0.41 L228.52 -0.01M230.53 -0.01 L231.73 -0.01 L231.73 0.41 L230.53 0.41 L230.53 -0.01M232.53 -0.01 L233.74 -0.01 L233.74 0.41 L232.53 0.41 L232.53 -0.01M234.54 -0.01 L235.74 -0.01 L235.74 0.41 L234.54 0.41 L234.54 -0.01M236.54 -0.01 L237.74 -0.01 L237.74 0.41 L236.54 0.41 L236.54 -0.01M238.55 -0.01 L239.75 -0.01 L239.75 0.41 L238.55 0.41 L238.55 -0.01M240.55 -0.01 L241.75 -0.01 L241.75 0.41 L240.55 0.41 L240.55 -0.01M242.56 -0.01 L243.76 -0.01 L243.76 0.41 L242.56 0.41 L242.56 -0.01M244.56 -0.01 L245.76 -0.01 L245.76 0.41 L244.56 0.41 L244.56 -0.01M246.56 -0.01 L247.77 -0.01 L247.77 0.41 L246.56 0.41 L246.56 -0.01M248.57 -0.01 L249.77 -0.01 L249.77 0.41 L248.57 0.41 L248.57 -0.01M250.57 -0.01 L251.78 -0.01 L251.78 0.41 L250.57 0.41 L250.57 -0.01M252.58 -0.01 L253.78 -0.01 L253.78 0.41 L252.58 0.41 L252.58 -0.01M254.58 -0.01 L255.79 -0.01 L255.79 0.41 L254.58 0.41 L254.58 -0.01M256.59 -0.01 L257.79 -0.01 L257.79 0.41 L256.59 0.41 L256.59 -0.01M258.59 -0.01 L259.8 -0.01 L259.8 0.41 L258.59 0.41 L258.59 -0.01M260.6 -0.01 L261.8 -0.01 L261.8 0.41 L260.6 0.41 L260.6 -0.01M262.6 -0.01 L263.8 -0.01 L263.8 0.41 L262.6 0.41 L262.6 -0.01M264.61 -0.01 L265.81 -0.01 L265.81 0.41 L264.61 0.41 L264.61 -0.01M266.61 -0.01 L267.81 -0.01 L267.81 0.41 L266.61 0.41 L266.61 -0.01M268.62 -0.01 L269.82 -0.01 L269.82 0.41 L268.62 0.41 L268.62 -0.01M270.62 -0.01 L271.82 -0.01 L271.82 0.41 L270.62 0.41 L270.62 -0.01M272.62 -0.01 L273.83 -0.01 L273.83 0.41 L272.62 0.41 L272.62 -0.01M274.63 -0.01 L275.83 -0.01 L275.83 0.41 L274.63 0.41 L274.63 -0.01M276.63 -0.01 L277.84 -0.01 L277.84 0.41 L276.63 0.41 L276.63 -0.01M278.64 -0.01 L279.84 -0.01 L279.84 0.41 L278.64 0.41 L278.64 -0.01M280.64 -0.01 L281.85 -0.01 L281.85 0.41 L280.64 0.41 L280.64 -0.01M282.65 -0.01 L283.85 -0.01 L283.85 0.41 L282.65 0.41 L282.65 -0.01M284.65 -0.01 L285.86 -0.01 L285.86 0.41 L284.65 0.41 L284.65 -0.01M286.66 -0.01 L287.86 -0.01 L287.86 0.41 L286.66 0.41 L286.66 -0.01M288.66 -0.01 L289.86 -0.01 L289.86 0.41 L288.66 0.41 L288.66 -0.01M290.67 -0.01 L291.87 -0.01 L291.87 0.41 L290.67 0.41 L290.67 -0.01M292.67 -0.01 L293.87 -0.01 L293.87 0.41 L292.67 0.41 L292.67 -0.01M294.68 -0.01 L295.88 -0.01 L295.88 0.41 L294.68 0.41 L294.68 -0.01M296.68 -0.01 L297.88 -0.01 L297.88 0.41 L296.68 0.41 L296.68 -0.01M298.68 -0.01 L299.89 -0.01 L299.89 0.41 L298.68 0.41 L298.68 -0.01M300.69 -0.01 L301.89 -0.01 L301.89 0.41 L300.69 0.41 L300.69 -0.01M302.69 -0.01 L303.9 -0.01 L303.9 0.41 L302.69 0.41 L302.69 -0.01M304.7 -0.01 L305.9 -0.01 L305.9 0.41 L304.7 0.41 L304.7 -0.01M306.7 -0.01 L307.91 -0.01 L307.91 0.41 L306.7 0.41 L306.7 -0.01M308.71 -0.01 L309.91 -0.01 L309.91 0.41 L308.71 0.41 L308.71 -0.01M310.71 -0.01 L311.92 -0.01 L311.92 0.41 L310.71 0.41 L310.71 -0.01M312.72 -0.01 L313.92 -0.01 L313.92 0.41 L312.72 0.41 L312.72 -0.01M314.72 -0.01 L315.92 -0.01 L315.92 0.41 L314.72 0.41 L314.72 -0.01M316.73 -0.01 L317.93 -0.01 L317.93 0.41 L316.73 0.41 L316.73 -0.01M318.73 -0.01 L319.93 -0.01 L319.93 0.41 L318.73 0.41 L318.73 -0.01M320.74 -0.01 L321.94 -0.01 L321.94 0.41 L320.74 0.41 L320.74 -0.01M322.74 -0.01 L323.94 -0.01 L323.94 0.41 L322.74 0.41 L322.74 -0.01M324.74 -0.01 L325.95 -0.01 L325.95 0.41 L324.74 0.41 L324.74 -0.01M326.75 -0.01 L327.95 -0.01 L327.95 0.41 L326.75 0.41 L326.75 -0.01M328.75 -0.01 L329.96 -0.01 L329.96 0.41 L328.75 0.41 L328.75 -0.01M330.76 -0.01 L331.96 -0.01 L331.96 0.41 L330.76 0.41 L330.76 -0.01M332.76 -0.01 L333.97 -0.01 L333.97 0.41 L332.76 0.41 L332.76 -0.01M334.77 -0.01 L335.97 -0.01 L335.97 0.41 L334.77 0.41 L334.77 -0.01M336.77 -0.01 L337.98 -0.01 L337.98 0.41 L336.77 0.41 L336.77 -0.01M338.78 -0.01 L339.98 -0.01 L339.98 0.41 L338.78 0.41 L338.78 -0.01M340.78 -0.01 L341.98 -0.01 L341.98 0.41 L340.78 0.41 L340.78 -0.01M342.79 -0.01 L343.99 -0.01 L343.99 0.41 L342.79 0.41 L342.79 -0.01M344.79 -0.01 L345.99 -0.01 L345.99 0.41 L344.79 0.41 L344.79 -0.01M346.8 -0.01 L348 -0.01 L348 0.41 L346.8 0.41 L346.8 -0.01" fill="#3D4B52" stroke="#3D4B52" stroke-opacity="1" stroke-width="0"/></svg>